<?xml version="1.0" encoding="iso-8859-1"?>
<!-- Generator: Adobe Illustrator 21.1.0, SVG Export Plug-In . SVG Version: 6.00 Build 0)  -->
<svg version="1.1" xmlns="http://www.w3.org/2000/svg" xmlns:xlink="http://www.w3.org/1999/xlink" x="0px" y="0px"
	 viewBox="0 0 132 132" width="132" height="132" style="enable-background:new 0 0 132 132;" xml:space="preserve">
<g id="action_x5F_pin">
	<g>
		<g>
			<path style="fill:#5D6771;" d="M66,130.5c-35.565,0-64.5-28.935-64.5-64.5S30.435,1.5,66,1.5s64.5,28.935,64.5,64.5
				S101.565,130.5,66,130.5z"/>
			<path style="fill:#FFFFFF;" d="M66,3c34.738,0,63,28.262,63,63s-28.262,63-63,63S3,100.738,3,66S31.262,3,66,3 M66,0
				C29.549,0,0,29.549,0,66s29.549,66,66,66s66-29.549,66-66S102.451,0,66,0L66,0z"/>
		</g>
	</g>
	<g>
		<path style="fill:#FFFFFF;" d="M42.422,114.3c-0.949,0-1.722-0.772-1.722-1.722V24.422c0-0.949,0.772-1.722,1.722-1.722
			s1.722,0.772,1.722,1.722v1.422c0,0.619,0.504,1.122,1.122,1.122h56.838c0.622,0,1.179,0.321,1.49,0.859
			c0.312,0.538,0.312,1.18,0.003,1.719L92.996,48.036c-0.197,0.344-0.197,0.771,0,1.116l10.602,18.492
			c0.309,0.539,0.308,1.182-0.004,1.719c-0.312,0.538-0.868,0.859-1.49,0.859H45.266c-0.618,0-1.122,0.504-1.122,1.122v41.234
			C44.144,113.527,43.371,114.3,42.422,114.3z M45.266,30.409c-0.618,0-1.122,0.503-1.122,1.122v34.125
			c0,0.619,0.504,1.122,1.122,1.122h52.013c0.404,0,0.767-0.209,0.97-0.558c0.203-0.35,0.205-0.768,0.005-1.119l-8.912-15.655
			c-0.299-0.526-0.299-1.178,0-1.704l8.912-15.655c0.2-0.352,0.198-0.77-0.005-1.119c-0.203-0.349-0.565-0.558-0.97-0.558H45.266z"
			/>
		<path style="fill:#FFFFFF;" d="M43.844,25.844v-1.422c0-0.785-0.637-1.422-1.422-1.422l0,0C41.637,23,41,23.637,41,24.422v2.844
			v42.656v42.656c0,0.785,0.637,1.422,1.422,1.422l0,0c0.785,0,1.422-0.637,1.422-1.422V71.344c0-0.785,0.637-1.422,1.422-1.422
			h56.838c1.093,0,1.777-1.181,1.234-2.129L92.735,49.301c-0.251-0.438-0.251-0.976,0-1.414l10.602-18.492
			c0.543-0.948-0.141-2.129-1.234-2.129H45.266C44.48,27.266,43.844,26.629,43.844,25.844z M97.278,67.078H45.266
			c-0.785,0-1.422-0.637-1.422-1.422V31.531c0-0.785,0.637-1.422,1.422-1.422h52.012c1.091,0,1.775,1.177,1.236,2.125L89.602,47.89
			c-0.248,0.436-0.248,0.971,0,1.407l8.912,15.656C99.053,65.901,98.369,67.078,97.278,67.078z"/>
	</g>
</g>
<g id="Layer_1">
</g>
</svg>
