<?xml version="1.0" encoding="iso-8859-1"?>
<!-- Generator: Adobe Illustrator 21.1.0, SVG Export Plug-In . SVG Version: 6.00 Build 0)  -->
<svg version="1.1" xmlns="http://www.w3.org/2000/svg" xmlns:xlink="http://www.w3.org/1999/xlink" x="0px" y="0px"
	 viewBox="0 0 76.921 80.755" style="enable-background:new 0 0 76.921 80.755;" xml:space="preserve">
<g id="arrow">
	<g>
		<path style="fill:#303030;stroke:#000000;stroke-width:0.75;stroke-miterlimit:10;" d="M74.807,38.642H5.766L34.113,3.166
			c0.522-0.696,0.522-1.913-0.348-2.435c-0.696-0.522-1.913-0.522-2.435,0.348L0.723,39.338c-0.174,0.348-0.348,0.696-0.348,1.043
			l0,0l0,0l0,0c0,0.348,0.174,0.87,0.348,1.043L31.33,79.684c0.348,0.348,0.87,0.696,1.391,0.696c0.348,0,0.696-0.174,1.043-0.348
			c0.696-0.522,0.87-1.739,0.348-2.435L5.766,42.121h69.04c1.043,0,1.739-0.696,1.739-1.739S75.85,38.642,74.807,38.642z"/>
	</g>
</g>
<g id="Layer_1">
</g>
</svg>
