<?xml version="1.0" encoding="iso-8859-1"?>
<!-- Generator: Adobe Illustrator 21.1.0, SVG Export Plug-In . SVG Version: 6.00 Build 0)  -->
<svg version="1.1" xmlns="http://www.w3.org/2000/svg" xmlns:xlink="http://www.w3.org/1999/xlink" x="0px" y="0px"
	 viewBox="0 0 86.171 90.004" style="enable-background:new 0 0 86.171 90.004;" xml:space="preserve">
<g id="arrow">
	<g>
		<path style="fill:#303030;" d="M37.347,90.004c-1.78,0-3.528-0.766-4.922-2.155l-0.199-0.197L1.518,49.264
			C0.405,47.956,0,46.24,0,45.006c0-1.537,0.573-2.678,0.882-3.29l0.235-0.468L31.915,2.75C33.125,1.02,35.1,0,37.282,0
			c1.397,0,2.773,0.427,3.903,1.208c1.438,0.946,2.446,2.451,2.782,4.167c0.373,1.902-0.075,3.876-1.229,5.415L20.787,38.267h58.645
			c3.779,0,6.739,2.96,6.739,6.739s-2.96,6.739-6.739,6.739H20.787l21.951,27.477c2.191,2.922,1.574,7.243-1.348,9.435l-0.363,0.272
			l-0.405,0.202C40.008,89.437,38.871,90.004,37.347,90.004z"/>
	</g>
</g>
<g id="Layer_1">
</g>
</svg>
