<?xml version="1.0" encoding="iso-8859-1"?>
<!-- Generator: Adobe Illustrator 21.1.0, SVG Export Plug-In . SVG Version: 6.00 Build 0)  -->
<svg version="1.1" xmlns="http://www.w3.org/2000/svg" xmlns:xlink="http://www.w3.org/1999/xlink" x="0px" y="0px"
	 viewBox="0 0 132 132" width="132" height="132" style="enable-background:new 0 0 132 132;" xml:space="preserve">
<g id="basestation_x5F_pin">
	<g>
		<g>
			<path style="fill:#5D6771;" d="M66,130.5c-35.565,0-64.5-28.935-64.5-64.5S30.435,1.5,66,1.5s64.5,28.935,64.5,64.5
				S101.565,130.5,66,130.5z"/>
			<path style="fill:#FFFFFF;" d="M66,3c34.738,0,63,28.262,63,63s-28.262,63-63,63S3,100.738,3,66S31.262,3,66,3 M66,0
				C29.549,0,0,29.549,0,66s29.549,66,66,66s66-29.549,66-66S102.451,0,66,0L66,0z"/>
		</g>
	</g>
	<g>
		<path style="fill:#FFFFFF;" d="M85.822,114.3c-0.738,0-1.288-0.355-1.684-0.666L66.45,97.898l-17.674,15.724
			c-0.411,0.322-0.96,0.678-1.698,0.678c-0.587,0-1.1-0.178-1.569-0.545c-1.054-0.827-1.398-2.07-0.898-3.245l16.968-44.555
			c-0.874-0.486-1.635-1.082-2.379-1.859c-1.885-1.969-2.966-4.723-2.966-7.556c0-2.833,1.081-5.586,2.966-7.556
			c1.953-2.04,4.528-3.164,7.251-3.164c2.722,0,5.297,1.124,7.25,3.164c1.885,1.969,2.966,4.723,2.966,7.556
			c0,2.833-1.081,5.587-2.966,7.556c-0.744,0.777-1.506,1.373-2.379,1.859l16.972,44.565c0.406,1.271,0.067,2.474-0.902,3.234
			C86.922,114.122,86.409,114.3,85.822,114.3z M85.108,110.436l-8.292-21.824l-8.184,7.2L85.108,110.436z M47.795,110.428
			l16.359-14.617l-8.072-7.196L47.795,110.428z M66.45,93.842l9.217-8.236l-7.103-18.61C67.922,67.103,67.19,67.2,66.45,67.2
			c-0.739,0-1.388,0-2.123-0.18l-7.094,18.586L66.45,93.842z M66.45,48.89c-2,0-3.848,0.78-5.203,2.196
			c-1.376,1.558-2.108,3.446-2.108,5.454c0,2.158,0.709,3.993,2.108,5.454c1.393,1.456,3.241,2.257,5.203,2.257
			c1.962,0,3.811-0.801,5.203-2.257c1.376-1.558,2.108-3.446,2.108-5.454c0-2.158-0.709-3.993-2.108-5.454
			C70.297,49.67,68.45,48.89,66.45,48.89z"/>
		<path style="fill:#FFFFFF;" d="M76.367,56.54c0-2.771-1.038-5.421-2.883-7.348c-3.921-4.096-10.147-4.096-14.068,0
			c-1.845,1.927-2.883,4.578-2.883,7.348s1.038,5.421,2.883,7.348c0.807,0.843,1.614,1.446,2.537,1.927l-17.066,44.811
			c-0.461,1.084-0.115,2.168,0.807,2.891c0.461,0.361,0.922,0.482,1.384,0.482c0.577,0,1.038-0.241,1.499-0.602L66.45,97.497
			l17.873,15.901c0.461,0.361,0.923,0.602,1.499,0.602c0.461,0,0.923-0.12,1.384-0.482c0.923-0.723,1.153-1.807,0.807-2.891
			L70.947,65.816c0.922-0.482,1.73-1.084,2.537-1.927C75.329,61.961,76.367,59.311,76.367,56.54z M47.078,111.47l8.879-23.369
			l8.648,7.709L47.078,111.47z M68.18,95.81l8.764-7.709l8.879,23.369L68.18,95.81z M76.021,85.692l-9.571,8.553l-9.571-8.553
			l7.265-19.033C64.951,66.9,65.643,66.9,66.45,66.9s1.614-0.12,2.306-0.241L76.021,85.692z M61.03,62.202
			c-1.499-1.566-2.191-3.493-2.191-5.662s0.807-4.096,2.191-5.662c1.499-1.566,3.459-2.289,5.42-2.289s3.921,0.723,5.42,2.289
			c1.499,1.566,2.191,3.493,2.191,5.662s-0.807,4.096-2.191,5.662C68.872,65.334,64.028,65.334,61.03,62.202z"/>
		<path style="fill:#FFFFFF;" d="M48.129,75.659c-4.887-5.104-7.579-11.895-7.579-19.119c0-7.224,2.691-14.014,7.579-19.12
			l0.217-0.227l2.03,2.121l-0.199,0.208c-4.333,4.527-6.72,10.571-6.72,17.018s2.387,12.491,6.72,17.02l0.199,0.207l-2.03,2.119
			L48.129,75.659z"/>
		<path style="fill:#FFFFFF;" d="M48.346,37.628c-4.843,5.059-7.495,11.805-7.495,18.912s2.652,13.853,7.495,18.912l1.614-1.686
			c-4.382-4.578-6.803-10.721-6.803-17.226s2.422-12.648,6.803-17.226L48.346,37.628z"/>
		<path style="fill:#FFFFFF;" d="M82.524,73.767l0.199-0.207c4.334-4.528,6.721-10.572,6.721-17.02
			c0-6.447-2.387-12.491-6.721-17.018l-0.198-0.208l2.029-2.121l0.217,0.227c4.887,5.105,7.579,11.896,7.579,19.12
			c0,7.225-2.691,14.015-7.579,19.119l-0.217,0.227L82.524,73.767z"/>
		<path style="fill:#FFFFFF;" d="M84.554,75.453c4.843-5.059,7.495-11.805,7.495-18.912s-2.652-13.853-7.495-18.912l-1.614,1.686
			c4.382,4.578,6.803,10.721,6.803,17.226s-2.422,12.648-6.803,17.226L84.554,75.453z"/>
		<path style="fill:#FFFFFF;" d="M36.137,88.308c-16.737-17.483-16.737-45.931,0-63.415l0.217-0.227l2.03,2.121l-0.199,0.208
			c-15.627,16.325-15.627,42.888,0,59.213l0.199,0.207l-2.03,2.12L36.137,88.308z"/>
		<path style="fill:#FFFFFF;" d="M37.968,86.414c-15.682-16.383-15.682-43.245,0-59.628L36.354,25.1
			c-16.605,17.346-16.605,45.655,0,63.001L37.968,86.414z"/>
		<path style="fill:#FFFFFF;" d="M94.517,86.414l0.199-0.207c15.627-16.325,15.627-42.888,0-59.213l-0.198-0.208l2.029-2.121
			l0.217,0.227c16.737,17.484,16.737,45.932,0,63.415l-0.217,0.227L94.517,86.414z"/>
		<path style="fill:#FFFFFF;" d="M94.932,26.786c15.682,16.383,15.682,43.245,0,59.628l1.614,1.686
			c16.605-17.346,16.605-45.655,0-63.001L94.932,26.786z"/>
	</g>
</g>
<g id="Layer_1">
</g>
</svg>
