<?xml version="1.0" encoding="iso-8859-1"?>
<!-- Generator: Adobe Illustrator 21.0.0, SVG Export Plug-In . SVG Version: 6.00 Build 0)  -->
<svg version="1.1" xmlns="http://www.w3.org/2000/svg" xmlns:xlink="http://www.w3.org/1999/xlink" x="0px" y="0px"
	 viewBox="0 0 132 106" style="enable-background:new 0 0 132 106;" xml:space="preserve">
<g id="triangle_x5F_basestation">
	<path style="fill:#FFFFFF;" d="M-616.363,522.49l61.282,97.347c0.913,1.447,2.49,2.163,4.081,2.163s3.182-0.717,4.081-2.163
		l61.282-97.347c1.812-2.893-0.457-6.49-4.081-6.49h-122.564C-615.906,516-618.175,519.596-616.363,522.49z M-499.927,525.721
		L-551,606.871l-51.073-81.136h102.147V525.721z M-546.919,589.821l33.587-53.27c1.812-2.88-0.457-6.49-4.081-6.49h-67.145
		c-3.639,0-5.907,3.61-4.081,6.49l33.558,53.27c0.913,1.447,2.504,2.163,4.081,2.163
		C-549.409,591.985-547.818,591.268-546.919,589.821L-546.919,589.821z M-578.444,537.633h54.889L-551,581.168L-578.444,537.633z
		 M-546.919,563.876l8.397-13.304c1.812-2.866-0.457-6.449-4.081-6.449h-16.794c-3.624,0-5.878,3.583-4.081,6.449l8.397,13.304
		c0.899,1.433,2.49,2.15,4.081,2.15S-547.833,565.309-546.919,563.876L-546.919,563.876z M-555.331,550.572h8.647l-4.331,6.855
		L-555.331,550.572z"/>
</g>
<g id="Layer_1">
</g>
</svg>
