<?xml version="1.0" encoding="iso-8859-1"?>
<!-- Generator: Adobe Illustrator 21.0.0, SVG Export Plug-In . SVG Version: 6.00 Build 0)  -->
<svg version="1.1" xmlns="http://www.w3.org/2000/svg" xmlns:xlink="http://www.w3.org/1999/xlink" x="0px" y="0px"
	 viewBox="0 0 165.32 131.053" style="enable-background:new 0 0 165.32 131.053;" xml:space="preserve">
<g id="Layer_36">
	<path style="fill:#FFFFFF;" d="M120.007,7.514V0h16.957v7.514h28.355c0,2.129,0,7.613,0,9.742H0c0-2.128,0-7.612,0-9.742h31.03V0
		h16.957v7.514H120.007L120.007,7.514z M106.885,32.202L87.75,63.595l12.832-4.262L58.436,119.48l20.427-43.27l-14.114,5.238
		L84.39,43.628L106.885,32.202L106.885,32.202z M157.524,21.5H7.797c0,36.514,0,73.038,0,109.553h149.726
		C157.524,94.538,157.524,58.014,157.524,21.5L157.524,21.5z M124.566,56.242v-7.55h-7.279v-5.195h7.279v-7.55h4.839v7.55h7.279
		v5.195h-7.279v7.55H124.566L124.566,56.242z M28.636,48.875v-5.56H43.71v5.56H28.636z"/>
</g>
<g id="Layer_1">
</g>
</svg>
