<?xml version="1.0" encoding="iso-8859-1"?>
<!-- Generator: Adobe Illustrator 21.0.0, SVG Export Plug-In . SVG Version: 6.00 Build 0)  -->
<svg version="1.1" xmlns="http://www.w3.org/2000/svg" xmlns:xlink="http://www.w3.org/1999/xlink" x="0px" y="0px"
	 viewBox="0 0 132 132" style="enable-background:new 0 0 132 132;" xml:space="preserve">
<g id="pictures">
	<g>
		<circle style="fill:#F5F5F5;" cx="66" cy="66" r="66"/>
	</g>
	<g>
		<path d="M98.703,37.434H85.276l-4.11-8.22c-0.913-1.827-2.831-3.014-4.932-3.014H55.775c-2.101,0-4.019,1.187-4.932,3.014
			l-4.11,8.22H33.306c-5.937,0-10.686,4.75-10.686,10.595v41.284c0,5.846,4.75,10.686,10.686,10.686h65.488
			c5.846,0,10.686-4.75,10.686-10.686V48.029C109.389,42.184,104.64,37.434,98.703,37.434z M66.004,88.035
			c-11.508,0-20.825-9.316-20.825-20.825s9.316-20.733,20.825-20.733s20.825,9.316,20.825,20.825S77.513,88.035,66.004,88.035z"/>
		<path d="M66.004,53.053c-7.764,0-14.157,6.394-14.157,14.157s6.394,14.157,14.157,14.157s14.157-6.394,14.157-14.157
			S73.768,53.053,66.004,53.053z"/>
	</g>
</g>
<g id="Layer_1">
</g>
</svg>
