<?xml version="1.0" encoding="iso-8859-1"?>
<!-- Generator: Adobe Illustrator 21.1.0, SVG Export Plug-In . SVG Version: 6.00 Build 0)  -->
<svg version="1.1" xmlns="http://www.w3.org/2000/svg" xmlns:xlink="http://www.w3.org/1999/xlink" x="0px" y="0px"
	 viewBox="0 0 53.754 93.063" style="enable-background:new 0 0 53.754 93.063;" xml:space="preserve">
<g id="chevron">
	 <path style="fill:#303030;" d="M7.222,93.063c-1.748,0-3.39-0.681-4.625-1.918l-0.682-0.681c-2.548-2.551-2.548-6.696-0.003-9.244
		l34.689-34.689L1.915,11.843C0.681,10.61,0,8.969,0,7.222s0.681-3.389,1.916-4.623L2.6,1.915C3.835,0.68,5.477,0,7.222,0
		c1.745-0.001,3.386,0.679,4.621,1.912L51.84,41.91c1.234,1.232,1.915,2.874,1.915,4.621s-0.681,3.389-1.916,4.623L11.844,91.148
		C10.611,92.383,8.969,93.063,7.222,93.063z"/>
	<path style="fill:#303030;" d="M5.45,84.755l37.137-37.137c0.6-0.6,0.6-1.572,0-2.172L5.45,8.308c-0.6-0.6-0.6-1.572,0-2.172
		L6.136,5.45c0.6-0.6,1.572-0.6,2.172,0l39.996,39.996c0.6,0.6,0.6,1.572,0,2.172L8.308,87.614c-0.6,0.6-1.572,0.6-2.172,0
		L5.45,86.927C4.85,86.328,4.85,85.355,5.45,84.755z"/>
</g>
<g id="Layer_1">
</g>
</svg>
