<?xml version="1.0" encoding="iso-8859-1"?>
<!-- Generator: Adobe Illustrator 21.0.0, SVG Export Plug-In . SVG Version: 6.00 Build 0)  -->
<svg version="1.1" xmlns="http://www.w3.org/2000/svg" xmlns:xlink="http://www.w3.org/1999/xlink" x="0px" y="0px"
	 viewBox="0 0 132 132" style="enable-background:new 0 0 132 132;" xml:space="preserve">
<g id="clock">
	<path style="fill:#FFFFFF;" d="M66,0C29.553,0,0,29.553,0,66s29.553,66,66,66s66-29.553,66-66S102.447,0,66,0z M66,120.804
		c-30.26,0-54.804-24.544-54.804-54.804S35.74,11.196,66,11.196S120.804,35.74,120.804,66S96.26,120.804,66,120.804z"/>
	<path style="fill:#FFFFFF;" d="M89.787,83.238L70.371,69.2V35.5c0-0.599-0.49-1.089-1.089-1.089h-6.549
		c-0.599,0-1.089,0.49-1.089,1.089v37.499c0,0.354,0.163,0.681,0.449,0.885l22.521,16.421c0.49,0.354,1.171,0.245,1.525-0.231
		l3.894-5.31C90.386,84.259,90.277,83.578,89.787,83.238L89.787,83.238z"/>
</g>
<g id="Layer_1">
</g>
</svg>
