<?xml version="1.0" encoding="iso-8859-1"?>
<!-- Generator: Adobe Illustrator 21.1.0, SVG Export Plug-In . SVG Version: 6.00 Build 0)  -->
<svg version="1.1" xmlns="http://www.w3.org/2000/svg" xmlns:xlink="http://www.w3.org/1999/xlink" x="0px" y="0px"
	 viewBox="0 0 78.7 78.7" style="enable-background:new 0 0 78.7 78.7;" xml:space="preserve">
<g id="control">
	<g>
		<path style="fill:#303030;" d="M78.457,29.923c0-2.798-2.311-5.109-5.109-5.109H53.764V5.109C53.764,2.311,51.453,0,48.655,0
			H29.923c-2.798,0-5.109,2.311-5.109,5.109v19.705H5.109C2.311,24.814,0,27.125,0,29.923v18.854c0,2.798,2.311,5.109,5.109,5.109
			h19.705v19.705c0,2.798,2.311,5.109,5.109,5.109h18.854c2.798,0,5.109-2.311,5.109-5.109V53.764h19.705
			c2.798,0,5.109-2.311,5.109-5.109L78.457,29.923z M38.559,6.812c0.365-0.365,0.973-0.365,1.46,0l6.082,9.488H32.477L38.559,6.812z
			 M6.69,40.019c-0.365-0.365-0.365-0.973,0-1.46l9.488-6.082v13.502L6.69,40.019z M40.019,71.888c-0.365,0.365-0.973,0.365-1.46,0
			L32.477,62.4h13.502L40.019,71.888z M71.767,40.019l-9.488,6.082V32.599l9.488,6.082C72.132,38.924,72.132,39.654,71.767,40.019z"
			/>
	</g>
</g>
<g id="Layer_1">
</g>
</svg>
