<?xml version="1.0" encoding="iso-8859-1"?>
<!-- Generator: Adobe Illustrator 21.1.0, SVG Export Plug-In . SVG Version: 6.00 Build 0)  -->
<svg version="1.1" xmlns="http://www.w3.org/2000/svg" xmlns:xlink="http://www.w3.org/1999/xlink" x="0px" y="0px"
	 viewBox="0 0 86.749 86.752" style="enable-background:new 0 0 86.749 86.752;" xml:space="preserve">
<g id="disconnect">
	<g>
		<path style="fill:#303030;" d="M62.911,54.914c0.355,0.355,0.837,0.551,1.335,0.551c0.045,0,0.083,0,0.128-0.004
			c0.543-0.038,1.041-0.309,1.373-0.743l20.119-26.519c0.63-0.83,0.468-2.01-0.362-2.64c-12.266-9.316-26.833-14.242-42.131-14.242
			c-5.956,0-11.923,0.781-17.735,2.32c-0.653,0.174-1.165,0.679-1.339,1.331c-0.177,0.653,0.008,1.347,0.487,1.826L62.911,54.914z"
			/>
		<path style="fill:#303030;" d="M86.198,83.531L60.976,58.309L19.478,16.816h-0.004L3.218,0.552c-0.735-0.735-1.931-0.735-2.667,0
			s-0.735,1.931,0,2.667l14.318,14.318c-4.892,2.199-9.479,4.873-13.627,8.026c-0.83,0.63-0.992,1.81-0.362,2.64l40.988,54.031
			c0.358,0.471,0.917,0.747,1.505,0.747c0.588,0,1.147-0.275,1.501-0.747l14.963-19.726l23.691,23.691
			c0.37,0.37,0.852,0.554,1.335,0.554s0.966-0.185,1.335-0.551C86.933,85.462,86.933,84.27,86.198,83.531z"/>
	</g>
</g>
<g id="Layer_1">
</g>
</svg>
