<?xml version="1.0" encoding="iso-8859-1"?>
<!-- Generator: Adobe Illustrator 21.1.0, SVG Export Plug-In . SVG Version: 6.00 Build 0)  -->
<svg version="1.1" xmlns="http://www.w3.org/2000/svg" xmlns:xlink="http://www.w3.org/1999/xlink" x="0px" y="0px"
	 viewBox="0 0 64 64" style="enable-background:new 0 0 64 64;" xml:space="preserve">
<g id="end_x5F_cap">
	<g>
		<path style="fill:#FFFFFF;" d="M12,58c-3.309,0-6-2.691-6-6V12c0-3.309,2.691-6,6-6h40c3.309,0,6,2.691,6,6v40
			c0,3.309-2.691,6-6,6H12z"/>
		<path style="fill:#1C2026;" d="M51.979,12c0.007,0.005,0.013,0.009,0.017,0.009c0.002,0,0.003-0.001,0.004-0.004l0.01,39.96
			c-0.006,0.012-0.027,0.033-0.015,0.035l-39.96,0.01c-0.01-0.005-0.024-0.018-0.031-0.018c-0.002,0-0.003,0.001-0.004,0.004
			l-0.01-39.96c0.006-0.012,0.027-0.033,0.015-0.035H51.979 M52,0H12C5.4,0,0,5.4,0,12v40c0,6.6,5.4,12,12,12h40c6.6,0,12-5.4,12-12
			V12C64,5.4,58.6,0,52,0L52,0z"/>
	</g>
</g>
<g id="Layer_1">
</g>
</svg>
