<?xml version="1.0" encoding="iso-8859-1"?>
<!-- Generator: Adobe Illustrator 21.1.0, SVG Export Plug-In . SVG Version: 6.00 Build 0)  -->
<svg version="1.1" xmlns="http://www.w3.org/2000/svg" xmlns:xlink="http://www.w3.org/1999/xlink" x="0px" y="0px"
	 viewBox="0 0 86.262 86.261" style="enable-background:new 0 0 86.262 86.261;" xml:space="preserve">
<g id="ex">
	<g>
		<path style="fill:#303030;" d="M7.313,86.261c-1.938,0-3.766-0.751-5.147-2.115c-2.874-2.875-2.875-7.515-0.026-10.365
			L73.78,2.142C75.156,0.762,76.994,0,78.95,0c1.957,0,3.795,0.762,5.175,2.146c1.376,1.372,2.138,3.21,2.138,5.166
			c0,1.954-0.761,3.79-2.142,5.171L12.483,84.12C11.105,85.5,9.269,86.261,7.313,86.261z"/>
		<path style="fill:#303030;" d="M7.313,81.261c-0.615,0-1.195-0.239-1.634-0.673c-0.905-0.905-0.905-2.371-0.003-3.273
			L77.315,5.676C77.751,5.239,78.332,5,78.95,5c0.618,0,1.199,0.24,1.635,0.677c0.437,0.436,0.677,1.017,0.677,1.635
			s-0.24,1.199-0.677,1.635L8.947,80.585C8.511,81.021,7.931,81.261,7.313,81.261z"/>
		<path style="fill:#303030;" d="M78.949,86.261c-1.943,0-3.773-0.754-5.154-2.122L2.141,12.482C0.761,11.104,0,9.267,0,7.312
			c0-1.958,0.763-3.796,2.147-5.176C3.515,0.763,5.354,0,7.312,0s3.797,0.763,5.177,2.147l71.632,71.632
			c1.381,1.381,2.142,3.217,2.142,5.171c0,1.953-0.761,3.789-2.142,5.17C82.718,85.508,80.888,86.261,78.949,86.261z"/>
		<path style="fill:#303030;" d="M78.949,81.261c-0.615,0-1.196-0.239-1.635-0.674L5.677,8.947C5.24,8.511,5,7.93,5,7.312
			s0.24-1.199,0.677-1.635C6.113,5.239,6.694,5,7.312,5s1.199,0.24,1.635,0.677l71.638,71.638c0.902,0.902,0.902,2.369,0,3.27
			C80.144,81.022,79.563,81.261,78.949,81.261z"/>
	</g>
</g>
<g id="Layer_1">
</g>
</svg>
