<?xml version="1.0" encoding="iso-8859-1"?>
<!-- Generator: Adobe Illustrator 21.0.0, SVG Export Plug-In . SVG Version: 6.00 Build 0)  -->
<svg version="1.1" xmlns="http://www.w3.org/2000/svg" xmlns:xlink="http://www.w3.org/1999/xlink" x="0px" y="0px"
	 viewBox="0 0 142 142" style="enable-background:new 0 0 142 142;" xml:space="preserve">
<g id="exclamation">
	<path style="fill:#FFFFFF;" d="M71,0C31.792,0,0,31.792,0,71s31.792,71,71,71s71-31.792,71-71S110.208,0,71,0z M71,129.955
		c-32.552,0-58.955-26.403-58.955-58.955S38.448,12.045,71,12.045S129.955,38.448,129.955,71S103.552,129.955,71,129.955z"/>
	<path style="fill:#FFFFFF;" d="M63.393,98.893c0,4.201,3.406,7.607,7.607,7.607c4.201,0,7.607-3.406,7.607-7.607
		c0-4.201-3.406-7.607-7.607-7.607C66.799,91.286,63.393,94.692,63.393,98.893z M67.196,81.143h7.607
		c0.697,0,1.268-0.571,1.268-1.268V36.768c0-0.697-0.571-1.268-1.268-1.268h-7.607c-0.697,0-1.268,0.571-1.268,1.268v43.107
		C65.929,80.572,66.499,81.143,67.196,81.143z"/>
</g>
<g id="Layer_1">
</g>
</svg>
