<?xml version="1.0" encoding="iso-8859-1"?>
<!-- Generator: Adobe Illustrator 21.0.0, SVG Export Plug-In . SVG Version: 6.00 Build 0)  -->
<svg version="1.1" xmlns="http://www.w3.org/2000/svg" xmlns:xlink="http://www.w3.org/1999/xlink" x="0px" y="0px"
	 viewBox="0 0 111.297 130.383" style="enable-background:new 0 0 111.297 130.383;" xml:space="preserve">
<g id="Layer_37">
	<g>
		
			<rect x="47.419" y="62.684" transform="matrix(1 -0.0021 0.0021 1 -0.161 0.126)" style="fill:#FFFFFF;" width="26.577" height="30.052"/>
		<polygon style="fill:#FFFFFF;" points="14.679,11.12 0,24.753 8.671,32.801 23.725,19.321 		"/>
		<path style="fill:#FFFFFF;" d="M111.045,14.755L98.053,0L54.478,0.095l-14.2,15.056l-8.019,0.02L19.245,27.367l-7.464,7.005
			l-0.291,84.245l12.889,11.765l76.409-0.167l10.508-12.707L111.045,14.755z M56.418,5.503l37.865-0.177L82.714,20.068
			l-30.123,0.065l-10.276,0.198L56.418,5.503z M97.475,115.618l-21.588-20.41l-29.49,0.062l-20.155,20.503l-2.951-2.406
			l21.503-20.928l-0.069-29.991L23.12,43.241l2.649-2.928l22.276,19.898l27.755-0.062l21.952-19.99l1.627,2.892L76.616,64.012
			l0.071,28.353l22.865,20.616L97.475,115.618z"/>
	</g>
</g>
<g id="Layer_1">
</g>
</svg>
