<svg xmlns="http://www.w3.org/2000/svg" viewBox="0 0 1616 1085"><defs><style>.cls-1{fill:#050505;}.cls-2{fill:#303030;}.cls-12,.cls-3,.cls-4,.cls-5{fill:#fff;}.cls-10,.cls-11,.cls-12,.cls-3,.cls-5{stroke:#fff;stroke-miterlimit:10;}.cls-10,.cls-11,.cls-3{stroke-width:4px;}.cls-5{stroke-width:5px;}.cls-6,.cls-7{fill:none;}.cls-6{stroke:#303030;stroke-linecap:round;stroke-linejoin:round;stroke-width:15px;}.cls-8{fill:#5d6771;}.cls-9{fill:#f5f5f5;}.cls-10{fill:#4a8ee4;}.cls-11{fill:#f2682b;}.cls-12{stroke-width:2px;}</style></defs><title>gps</title><g id="_-_Background" data-name="- Background"><rect class="cls-1" width="1616" height="598"/></g><g id="path"><path class="cls-2" d="M1090.39,903.3c-2.12-.13-4.15-.27-6-.43a1.8,1.8,0,0,1,.13-3.59h.19c1.84.15,3.84.3,5.92.42a1.8,1.8,0,0,1-.11,3.6Zm-12-1c-2.08-.12-4.11-.27-6-.43a1.8,1.8,0,0,1,.13-3.59h.19c1.84.15,3.83.3,5.92.42a1.8,1.8,0,0,1-.11,3.6Zm-11.86-1h-.22c-2.11-.24-4.13-.52-6-.81a1.8,1.8,0,0,1-1.5-2.06,1.81,1.81,0,0,1,1.77-1.52l.29,0c1.83.29,3.81.56,5.86.79a1.8,1.8,0,0,1-.2,3.59Zm-11.83-1.91a1.81,1.81,0,0,1-.39,0,54.51,54.51,0,0,1-6-1.66,1.8,1.8,0,1,1,1.19-3.4,51,51,0,0,0,5.57,1.55,1.8,1.8,0,0,1-.39,3.56Zm-11.14-4.23a1.78,1.78,0,0,1-1.07-.35c-2.09-1.54-3.15-3.32-3.15-5.28a5.53,5.53,0,0,1,.33-1.85,1.81,1.81,0,0,1,1.7-1.2,1.77,1.77,0,0,1,.6.1,1.8,1.8,0,0,1,1.09,2.3,1.94,1.94,0,0,0-.12.64c0,.76.57,1.56,1.68,2.38a1.8,1.8,0,0,1-1.07,3.25Zm1.88-9.34a1.8,1.8,0,0,1-1-3.32,29.46,29.46,0,0,1,5.78-2.72,1.8,1.8,0,0,1,1.2,3.4,25.69,25.69,0,0,0-5.06,2.37A1.77,1.77,0,0,1,1045.44,885.8Zm11.23-4.06a1.8,1.8,0,0,1-.3-3.57,32,32,0,0,1,5.42-.49l.93,0a1.8,1.8,0,0,1,0,3.6h-.84a28.74,28.74,0,0,0-4.87.44Zm12-.44a1.76,1.76,0,0,1-1.29-3,1.81,1.81,0,0,1,1.25-.54,55.09,55.09,0,0,0,5.79-.41h.23a1.81,1.81,0,0,1,1.79,1.57,1.73,1.73,0,0,1-.34,1.29,1.81,1.81,0,0,1-1.21.69,47.68,47.68,0,0,1-6.19.41Zm11.84-1.57a1.8,1.8,0,0,1-.51-3.52A21.86,21.86,0,0,0,1085,874a1.81,1.81,0,0,1,.93-.26,1.8,1.8,0,0,1,.94,3.34,25.34,25.34,0,0,1-5.91,2.56A1.82,1.82,0,0,1,1080.49,879.73Zm9.92-6.35a1.8,1.8,0,0,1-1.45-2.86,11.56,11.56,0,0,0,2-4.73,1.8,1.8,0,0,1,1.77-1.46,1.77,1.77,0,0,1,.33,0,1.81,1.81,0,0,1,1.44,2.1,15.14,15.14,0,0,1-2.67,6.19A1.81,1.81,0,0,1,1090.41,873.39Zm2.35-11.43a1.79,1.79,0,0,1-1.77-1.5,20.74,20.74,0,0,0-1.65-5.26,1.8,1.8,0,0,1,3.27-1.51,24.4,24.4,0,0,1,1.93,6.17,1.8,1.8,0,0,1-1.48,2.07Zm-40.11-2.8a10.89,10.89,0,0,1-3.9-.67,1.8,1.8,0,0,1,.64-3.48,1.78,1.78,0,0,1,.64.12,7.33,7.33,0,0,0,2.62.44,12.75,12.75,0,0,0,2.33-.23,1.8,1.8,0,0,1,2.1,1.44,1.8,1.8,0,0,1-1.44,2.1,16.43,16.43,0,0,1-3,.3Zm65.32-.36a1.85,1.85,0,0,1-.45-.06,1.81,1.81,0,0,1-1.3-2.2q.45-1.72.83-3.31a1.8,1.8,0,1,1,3.5.83q-.39,1.64-.85,3.39A1.8,1.8,0,0,1,1118,858.8ZM1061,857.09a1.8,1.8,0,0,1-.69-3.46c1.53-.64,3.22-1.43,5.3-2.5a1.8,1.8,0,1,1,1.64,3.2c-2.18,1.12-3.95,2-5.56,2.62A1.79,1.79,0,0,1,1061,857.09Zm-15.95-2.47a1.79,1.79,0,0,1-1.54-.87,25.45,25.45,0,0,1-2.6-5.89,1.8,1.8,0,0,1,3.45-1,21.87,21.87,0,0,0,2.23,5.06,1.8,1.8,0,0,1-1.54,2.73Zm26.69-2.89a1.8,1.8,0,0,1-.84-3.39c1.81-1,3.73-1.94,5.53-2.7a1.8,1.8,0,1,1,1.41,3.32c-1.69.72-3.53,1.66-5.26,2.57A1.8,1.8,0,0,1,1071.77,851.73Zm16-.55a1.8,1.8,0,0,1-1.37-.63,7.71,7.71,0,0,0-3.74-2.76,1.8,1.8,0,0,1,.28-3.58l.28,0c1.89.3,4,1.71,5.92,4a1.8,1.8,0,0,1-1.37,3Zm32.26-1.6-.32,0a1.81,1.81,0,0,1-1.46-2.09c.38-2.06.66-4,.83-5.79a1.79,1.79,0,0,1,1.78-1.62h.19a1.8,1.8,0,0,1,1.61,2c-.18,1.87-.48,3.91-.87,6.08A1.8,1.8,0,0,1,1120.05,849.58Zm-78.46-6.32a1.81,1.81,0,0,1-1.79-1.67c-.06-.81-.09-1.65-.09-2.49a36.05,36.05,0,0,1,.21-3.83,1.8,1.8,0,0,1,1.8-1.61h.18a1.81,1.81,0,0,1,1.6,2,32.56,32.56,0,0,0-.19,3.45c0,.75,0,1.5.08,2.22a1.8,1.8,0,0,1-1.66,1.93h-.14Zm79.5-6a1.66,1.66,0,0,1-1.8-1.54,16.82,16.82,0,0,0-1-5.22,1.75,1.75,0,0,1,1-2.28,1.78,1.78,0,0,1,.63-.12,1.83,1.83,0,0,1,1.7,1.18,19.72,19.72,0,0,1,1.21,6.26,1.59,1.59,0,0,1-.43,1.19,1.79,1.79,0,0,1-1.32.53Zm-78.27-5.93a1.8,1.8,0,0,1-1.74-2.28,40.61,40.61,0,0,1,2.12-5.91,1.8,1.8,0,1,1,3.28,1.48,37,37,0,0,0-1.93,5.38A1.81,1.81,0,0,1,1042.83,831.37Zm47.26-3.48c-.74,0-1.44,0-2.09-.1s-1-.12-1.51-.2a1.8,1.8,0,0,1,.29-3.58l.29,0c.42.07.84.13,1.28.17s1.12.08,1.74.08c.77,0,1.59,0,2.51-.12h.14a1.82,1.82,0,0,1,1.81,1.64,1.8,1.8,0,0,1-1.64,2C1091.89,827.85,1091,827.89,1090.09,827.89Zm26.26-.71a1.81,1.81,0,0,1-.93-.26,10.17,10.17,0,0,0-4.88-1.27,1.8,1.8,0,0,1-1.71-1.88,1.82,1.82,0,0,1,1.81-1.71,13.77,13.77,0,0,1,6.66,1.79,1.8,1.8,0,0,1-.94,3.34Zm-17.64-.24a1.8,1.8,0,0,1-.3-3.58l1-.17c1.64-.28,3.34-.56,5-.78l.24,0a1.8,1.8,0,0,1,.23,3.58c-1.6.21-3.32.5-4.84.76l-1,.17Zm-17.6-1.16a1.79,1.79,0,0,1-.8-.19A25.51,25.51,0,0,1,1075,822a1.8,1.8,0,0,1,2.37-2.71,21.83,21.83,0,0,0,4.56,3.13,1.8,1.8,0,0,1-.81,3.41Zm-33.35-5.3a1.8,1.8,0,0,1-1.49-2.81,29.27,29.27,0,0,1,4.1-4.89,1.8,1.8,0,0,1,2.47,2.61,25.81,25.81,0,0,0-3.59,4.29A1.8,1.8,0,0,1,1047.76,820.48Zm24.18-2.33a1.81,1.81,0,0,1-1.33-.58l-.34-.37a42.43,42.43,0,0,0-3.71-3.74,1.8,1.8,0,0,1,2.31-2.76,45.05,45.05,0,0,1,4,4.06l.34.36a1.8,1.8,0,0,1-1.32,3Zm-15.42-5.65a1.8,1.8,0,0,1-.74-3.44,13.43,13.43,0,0,1,5.52-1.24l.5,0c.26,0,.5,0,.73,0a1.8,1.8,0,0,1,1.61,2,1.73,1.73,0,0,1-1.77,1.56h-.22l-.36,0a3.23,3.23,0,0,0-.49-.05,10,10,0,0,0-4.05,1A1.67,1.67,0,0,1,1056.52,812.5Z"/><path class="cls-2" d="M1118,874.48a2.31,2.31,0,0,1-2.07-1.3l-2.26-4.69-4.69,2.26a2.27,2.27,0,0,1-1,.23,2.3,2.3,0,0,1-1-4.37l4.69-2.26-2.26-4.69a2.3,2.3,0,0,1,4.15-2l2.26,4.69,4.69-2.26a2.29,2.29,0,0,1,1-.23,2.3,2.3,0,0,1,1,4.37l-4.69,2.26,2.26,4.69a2.3,2.3,0,0,1-2.07,3.3Z"/></g><g id="settings"><path class="cls-3" d="M1431.23,448.23a2.19,2.19,0,0,1,4.39,0v50.32a2.19,2.19,0,0,1-4.39,0V448.23Zm0,66.77a2.19,2.19,0,0,1,4.39,0v18.83a2.19,2.19,0,1,1-4.39,0Z"/><path class="cls-3" d="M1469.5,448.23a2.19,2.19,0,1,1,4.39,0v18.83a2.19,2.19,0,1,1-4.39,0V448.23Zm0,35.28a2.19,2.19,0,1,1,4.39,0v50.32a2.19,2.19,0,1,1-4.39,0Z"/><path class="cls-3" d="M1507.78,448.23a2.19,2.19,0,1,1,4.39,0V482.8a2.19,2.19,0,1,1-4.39,0V448.23Zm0,51a2.19,2.19,0,1,1,4.39,0v34.57a2.19,2.19,0,1,1-4.39,0Z"/><path class="cls-3" d="M1471.7,464.86a10.42,10.42,0,1,1-7.37,3.05,10.39,10.39,0,0,1,7.37-3.05ZM1476,471a6,6,0,1,0,1.77,4.27A6,6,0,0,0,1476,471Z"/><path class="cls-3" d="M1433.42,496.35a10.42,10.42,0,1,1-7.37,3.05,10.38,10.38,0,0,1,7.37-3.05Zm4.27,6.15a6,6,0,1,0,1.77,4.27A6,6,0,0,0,1437.69,502.5Z"/><path class="cls-3" d="M1510,480.6a10.42,10.42,0,1,1-7.37,3.05,10.39,10.39,0,0,1,7.37-3.05Zm4.27,6.15A6,6,0,1,0,1516,491,6,6,0,0,0,1514.24,486.76Z"/></g><g id="support"><path class="cls-4" d="M1329.47,553c-4.73,0-29.49-1.31-51.9-27.11-27.14-31.22-19.78-58.41-19.69-58.67,1.44-5.61,10.47-17.21,17.48-17.21l.56,0h0c1.54,0,3.46,1.51,5.74,4.61,3.52,4.9,12.06,20.11,11.53,23s-8.27,7.8-10.69,9.16c0,3.07,4.94,18,12.74,26,10.44,10.45,18.27,12,22,12a7.8,7.8,0,0,0,2.09-1l.22-.13a14.58,14.58,0,0,1,7.87-2.58c5.44,0,18.28,9.58,21.14,12.63l.09.11.24.32a3.35,3.35,0,0,1,.94,2.14C1349.64,541.2,1336.22,553,1329.47,553Zm-55-98.37c-3.82,1-11.11,9-12.42,13.91l0,.1c-5,25.32,14.78,49.76,18.8,54.41,3.68,4.25,23.32,25.46,48.61,25.46,4.42,0,14.18-8.88,15.72-11.9-2.58-2.57-14.31-11-17.57-11a10,10,0,0,0-5.56,2,9.55,9.55,0,0,1-4.62,1.7c-4.41,0-13.57-1.73-25.36-13.34-8.25-8.25-14.78-25.12-13.89-30.23a3.11,3.11,0,0,1,1.7-2.47,43.82,43.82,0,0,0,8.55-6.26,95.2,95.2,0,0,0-5.76-11.54c-4.56-8-7-10.56-7.65-10.78Z"/><path class="cls-4" d="M1329.47,551.67c-4.63,0-28.88-1.3-50.9-26.66-25.91-29.8-19.81-56.27-19.44-57.38,1.48-5.74,10.74-16.84,16.66-16.29.74,0,2.22.56,4.81,4.07,4.26,5.92,11.66,20,11.29,22-.56,2.41-8.89,7.77-10.55,8.51-1.11,1.67,4.26,18.88,13,27.77,10.92,10.92,19.07,12.4,23,12.4a7.47,7.47,0,0,0,3-1.3,13.37,13.37,0,0,1,7.22-2.41c4.81,0,17.4,9.26,20.18,12.22.56.74.93,1.11.93,1.67C1348.35,540.38,1335.39,551.67,1329.47,551.67Zm-54.24-98.48c-4.44,0-13,9.44-14.44,15-.19,1.11-6.29,26.47,19.07,55.72,21.47,24.8,45,25.91,49.61,25.91,5.18,0,16.66-10.37,17.21-13.51-1.3-1.85-14.81-12-19.07-12a11.18,11.18,0,0,0-6.29,2.22,8.45,8.45,0,0,1-3.89,1.48c-4.26,0-13-1.67-24.43-13-8.33-8.33-14.25-24.8-13.51-29.06.19-.74.37-1.3.93-1.48,3-1.48,9.07-6.11,9.44-7.22-.19-2.22-11.29-23.51-14.62-23.88Z"/></g><g id="signal"><path class="cls-2" d="M1315.83,812.17h-11.67a3.18,3.18,0,0,0-3.17,3.17V899a3.18,3.18,0,0,0,3.17,3.17h11.67A3.18,3.18,0,0,0,1319,899V815.33A3.18,3.18,0,0,0,1315.83,812.17Z"/><path class="cls-2" d="M1281.45,830.17a3,3,0,0,0-2.95,2.95v66.1a3,3,0,0,0,2.95,2.95h12.1a3,3,0,0,0,2.95-2.95v-66.1a3,3,0,0,0-2.95-2.95Z"/><path class="cls-2" d="M1259.45,848.17a3.46,3.46,0,0,0-3.45,3.45v47.1a3.46,3.46,0,0,0,3.45,3.45h11.1a3.46,3.46,0,0,0,3.45-3.45v-47.1a3.46,3.46,0,0,0-3.45-3.45Z"/><path class="cls-2" d="M1236.54,866.17a3.05,3.05,0,0,0-3,3v29.92a3.05,3.05,0,0,0,3,3h11.92a3.05,3.05,0,0,0,3-3V869.21a3.05,3.05,0,0,0-3-3Z"/><path class="cls-2" d="M1213.85,902.17h12.29a2.86,2.86,0,0,0,2.85-2.85V887a2.86,2.86,0,0,0-2.85-2.85h-12.29A2.86,2.86,0,0,0,1211,887v12.29A2.86,2.86,0,0,0,1213.85,902.17Z"/></g><g id="control"><path class="cls-2" d="M953.41,842.22a5.14,5.14,0,0,0-5.11-5.11H928.71V817.41a5.14,5.14,0,0,0-5.11-5.11H904.87a5.14,5.14,0,0,0-5.11,5.11v19.71H880.06a5.14,5.14,0,0,0-5.11,5.11v18.85a5.14,5.14,0,0,0,5.11,5.11h19.71v19.71a5.14,5.14,0,0,0,5.11,5.11h18.85a5.14,5.14,0,0,0,5.11-5.11V866.06h19.71a5.14,5.14,0,0,0,5.11-5.11Zm-39.9-23.11a1.11,1.11,0,0,1,1.46,0l6.08,9.49H907.43Zm-31.87,33.21a1.11,1.11,0,0,1,0-1.46l9.49-6.08v13.5ZM915,884.19a1.11,1.11,0,0,1-1.46,0l-6.08-9.49h13.5Zm31.75-31.87-9.49,6.08V844.9l9.49,6.08A1,1,0,0,1,946.72,852.32Z"/></g><g id="disconnect"><path class="cls-2" d="M718.16,863.1a1.89,1.89,0,0,0,1.34.55h.13a1.89,1.89,0,0,0,1.37-.74l20.12-26.52a1.88,1.88,0,0,0-.36-2.64,69.3,69.3,0,0,0-59.87-11.92A1.89,1.89,0,0,0,680,825Z"/><path class="cls-2" d="M741.45,891.72l-25.22-25.22L674.73,825h0l-16.26-16.26a1.89,1.89,0,1,0-2.67,2.67l14.32,14.32a69.74,69.74,0,0,0-13.63,8,1.88,1.88,0,0,0-.36,2.64l41,54a1.89,1.89,0,0,0,3,0l15-19.73,23.69,23.69a1.89,1.89,0,1,0,2.67-2.67Z"/></g><g id="connect"><path class="cls-2" d="M539.26,834.64a68.5,68.5,0,0,0-83.15,0,1.86,1.86,0,0,0-.36,2.61l40.45,53.32a1.86,1.86,0,0,0,3,0l40.45-53.32A1.86,1.86,0,0,0,539.26,834.64Z"/></g><g id="play"><path class="cls-2" d="M288,817.19a1.41,1.41,0,0,1,.66-1.25,1.29,1.29,0,0,1,1.45,0L349,850.6a1.51,1.51,0,0,1,.75,1.25,1.33,1.33,0,0,1-.76,1.26L290.1,887.77a1.28,1.28,0,0,1-1.45,0,1.66,1.66,0,0,1-.65-1.25Z"/></g><g id="pause"><rect class="cls-2" x="104.65" y="817" width="31.99" height="78.2" rx="1.41" ry="1.41"/><rect class="cls-2" x="150.86" y="817" width="31.99" height="78.2" rx="1.39" ry="1.39"/></g><g id="user"><path class="cls-2" d="M105.44,711.6a4.34,4.34,0,0,1-4.33-4.33V693.15a4,4,0,0,1,2.59-3.88l26.68-11.61a2.28,2.28,0,0,0,1.19-1.44,2,2,0,0,0-.69-2c-5.4-5.54-9-15.38-9-24.49,0-15.42,9.54-22.32,19-22.32s19,6.9,19,22.32c0,9.11-3.63,18.95-9,24.49a2.47,2.47,0,0,0-.67,2.12,1.89,1.89,0,0,0,1.2,1.35L178,689.29a4.18,4.18,0,0,1,2.57,3.87V707.4a4.49,4.49,0,0,1-4.33,4.2Z"/></g><g id="settings-2" data-name="settings"><path class="cls-2" d="M1435.3,730.7a12.32,12.32,0,0,1-8.71-21l37.92-37.92A26.05,26.05,0,0,1,1489.44,638q.85,0,1.71.06a26.49,26.49,0,0,1,7.16,1.45,1.89,1.89,0,0,1,.7.46,1.86,1.86,0,0,1,0,2.63l-13.93,14,2.68,9.43,9.46,2.72,14-14a1.84,1.84,0,0,1,.64-.41,1.86,1.86,0,0,1,2.4,1.09,26.36,26.36,0,0,1-6.11,27.34,25.83,25.83,0,0,1-18.39,7.58,26.76,26.76,0,0,1-7.75-1.15L1444,727.09A12.25,12.25,0,0,1,1435.3,730.7Z"/></g><g id="warning"><path class="cls-2" d="M1216.34,726.88a2.07,2.07,0,0,1-1.84-1,1.89,1.89,0,0,1,0-2.12l50.75-86.19a2.21,2.21,0,0,1,1.84-1.1,2,2,0,0,1,1.84,1.11l50.75,86.19a1.88,1.88,0,0,1,0,2.12,2.43,2.43,0,0,1-1.83,1Z"/><path class="cls-5" d="M1266.79,667.23a2.13,2.13,0,0,0-2.11,2v23.18a2.12,2.12,0,0,0,4.23,0V669.28A2.13,2.13,0,0,0,1266.79,667.23Z"/><path class="cls-5" d="M1266.79,705a2.13,2.13,0,0,0-2.11,2v2.73a2.12,2.12,0,0,0,4.23,0V707A2.13,2.13,0,0,0,1266.79,705Z"/></g><g id="arrow"><path class="cls-2" d="M1078.45,724a7,7,0,0,1-4.92-2.16l-.2-.2-30.71-38.39a6.81,6.81,0,0,1-1.52-4.26,7.07,7.07,0,0,1,.88-3.29l.24-.47,30.8-38.5a6.48,6.48,0,0,1,5.37-2.75,6.9,6.9,0,0,1,3.9,1.21,6.48,6.48,0,0,1,2.78,4.17,6.84,6.84,0,0,1-1.23,5.42l-22,27.48h58.64a6.74,6.74,0,1,1,0,13.48h-58.64l22,27.48a6.83,6.83,0,0,1-1.35,9.43l-.36.27-.41.2A7.11,7.11,0,0,1,1078.45,724Z"/></g><g id="checkmark"><path class="cls-6" d="M957.08,704.14"/><path class="cls-6" d="M865.5,739.94"/><line class="cls-7" x1="880.71" y1="691.06" x2="894.26" y2="704.6"/><path class="cls-2" d="M960.28,639.15a9.29,9.29,0,0,0-13.14,0l-64.92,64.91L861.75,683.6a9.29,9.29,0,0,0-13.14,13.14l27,27a9.29,9.29,0,0,0,13.14,0l71.49-71.49A9.29,9.29,0,0,0,960.28,639.15Z"/></g><g id="ex"><path class="cls-2" d="M664.05,719a7.31,7.31,0,0,1-5.17-12.48l71.64-71.64a7.31,7.31,0,0,1,10.34,10.34l-71.64,71.64A7.26,7.26,0,0,1,664.05,719Z"/><path class="cls-2" d="M664.05,714a2.31,2.31,0,0,1-1.64-3.95l71.64-71.64a2.31,2.31,0,0,1,3.27,3.27l-71.64,71.64A2.29,2.29,0,0,1,664.05,714Z"/><path class="cls-2" d="M735.69,719a7.28,7.28,0,0,1-5.15-2.12l-71.65-71.66a7.31,7.31,0,1,1,10.35-10.33l71.63,71.63A7.31,7.31,0,0,1,735.69,719Z"/><path class="cls-2" d="M735.69,714a2.31,2.31,0,0,1-1.63-.67l-71.64-71.64a2.31,2.31,0,0,1,3.27-3.27l71.64,71.64a2.31,2.31,0,0,1-1.64,3.95Z"/></g><g id="chevron"><path class="cls-2" d="M483.63,720a6.49,6.49,0,0,1-4.62-1.92l-.68-.68a6.55,6.55,0,0,1,0-9.24L513,673.47l-34.69-34.69a6.53,6.53,0,0,1,0-9.24l.68-.68a6.54,6.54,0,0,1,9.24,0l40,40a6.53,6.53,0,0,1,0,9.24l-40,40A6.49,6.49,0,0,1,483.63,720Z"/><path class="cls-2" d="M481.86,711.69,519,674.55a1.54,1.54,0,0,0,0-2.17l-37.14-37.14a1.54,1.54,0,0,1,0-2.17l.69-.69a1.54,1.54,0,0,1,2.17,0l40,40a1.54,1.54,0,0,1,0,2.17l-40,40a1.54,1.54,0,0,1-2.17,0l-.69-.69A1.54,1.54,0,0,1,481.86,711.69Z"/></g><g id="password"><path class="cls-2" d="M289.93,711.9a1.8,1.8,0,0,1-1.8-1.8V662.37a1.8,1.8,0,0,1,1.8-1.8h6.6v-12a22.47,22.47,0,1,1,44.94,0v12h6.6a1.8,1.8,0,0,1,1.8,1.8V710.1a1.8,1.8,0,0,1-1.8,1.8Zm47.93-51.33v-12a18.83,18.83,0,0,0-18.44-18.42H319a19,19,0,0,0-18.85,18.44v12Z"/></g><g id="user_pin"><path class="cls-8" d="M530,1078.5a64.5,64.5,0,1,1,64.5-64.5A64.57,64.57,0,0,1,530,1078.5Z"/><path class="cls-4" d="M530,951a63,63,0,1,1-63,63,63.07,63.07,0,0,1,63-63m0-3a66,66,0,1,0,66,66,66,66,0,0,0-66-66Z"/><path class="cls-4" d="M495.44,1052.6a4.34,4.34,0,0,1-4.33-4.33v-14.11a4,4,0,0,1,2.59-3.88l26.68-11.61a2.28,2.28,0,0,0,1.19-1.44,2,2,0,0,0-.69-2c-5.4-5.54-9-15.38-9-24.49,0-15.42,9.54-22.32,19-22.32s19,6.9,19,22.32c0,9.11-3.63,18.95-9,24.49a2.47,2.47,0,0,0-.67,2.12,1.89,1.89,0,0,0,1.2,1.35L568,1030.29a4.18,4.18,0,0,1,2.57,3.87v14.25a4.49,4.49,0,0,1-4.33,4.2Zm35.41-80.23c-9,0-15,7.38-15,18.35,0,8.21,3.21,16.93,8,21.71a6.07,6.07,0,0,1,1.68,5.68,5.92,5.92,0,0,1-3.38,4l-26.71,11.62a.34.34,0,0,0-.19.28v14.25a.35.35,0,0,0,.37.37h70.69a.35.35,0,0,0,.37-.37v-14.11a.35.35,0,0,0-.22-.29l-26.67-11.61a6.22,6.22,0,0,1-3.38-4,6.09,6.09,0,0,1,1.68-5.7c4.78-4.78,8-13.5,8-21.71C545.89,979.8,539.79,972.37,530.85,972.37Z"/></g><g id="left_hand_pin"><path class="cls-8" d="M331,375.5A64.5,64.5,0,1,1,395.5,311,64.57,64.57,0,0,1,331,375.5Z"/><path class="cls-4" d="M331,248a63,63,0,1,1-63,63,63.07,63.07,0,0,1,63-63m0-3a66,66,0,1,0,66,66,66,66,0,0,0-66-66Z"/><path class="cls-4" d="M352.14,283.79l-6.54,13.37a1.22,1.22,0,0,0,2.2,1.08l6.84-14a1.22,1.22,0,0,0-.06-1.19l-3.24-5.14,2.68-5.25a3.82,3.82,0,0,0,.89.12l.45,0a3.86,3.86,0,0,0-.44-7.69l-.45,0a3.85,3.85,0,0,0-2.53,6.27l-3.09,6.05a1.23,1.23,0,0,0,.05,1.21Zm2.35-16.26a1.41,1.41,0,1,1-1.23,1.56A1.41,1.41,0,0,1,354.49,267.53Z"/><path class="cls-4" d="M305.46,312.86a1.22,1.22,0,0,0-1.94,1.49l10.67,13.89v9.26a1.22,1.22,0,0,0,2.45,0v-9.68a1.23,1.23,0,0,0-.25-.75Z"/><path class="cls-4" d="M335,306.22l4.13,7a1.22,1.22,0,1,0,2.12-1.22l-4.48-7.63a1.22,1.22,0,0,0-1.06-.61H325.55a1.22,1.22,0,0,0,0,2.45Z"/><path class="cls-4" d="M325.18,324.22h11.37a1.22,1.22,0,1,0,0-2.45H325.89l-4.82-8.22a1.22,1.22,0,0,0-2.12,1.22l5.17,8.84A1.22,1.22,0,0,0,325.18,324.22Z"/><path class="cls-4" d="M315,298.42a1.22,1.22,0,0,0,1.15-1.65l-4-10.73a1.22,1.22,0,0,0-2.29.86l4,10.73A1.22,1.22,0,0,0,315,298.42Z"/><path class="cls-4" d="M372.41,314.5a3.86,3.86,0,0,0-3.83-3.41l-.45,0a3.83,3.83,0,0,0-2.86,5.8l-14.8,13.94-9.55,4.32V329.7l3.51-6.08a3.82,3.82,0,0,0,1,.16l.45,0a3.63,3.63,0,0,0,2.86-1.87h4.66a1.22,1.22,0,0,0,.82-.32l4.74-4.3a1.22,1.22,0,0,0-1.65-1.81l-4.39,4H349.3a3.83,3.83,0,0,0-1.14-2.26l1.71-3a1.23,1.23,0,0,0,0-1.22l-8.65-15c1.2-2.53,6.33-13.15,6.72-13.9l0-.08a1.22,1.22,0,0,0-.55-1.64,1.28,1.28,0,0,0-1.66.58l-.08.16c-4,7.93-5.88,11.77-6.64,13.72h-3.95V277.18a1.23,1.23,0,0,0-.66-1.09l-5.2-2.7v-7.56a3.85,3.85,0,0,0-1.22-7.51l-.45,0a3.85,3.85,0,0,0-.78,7.47v8.31a1.23,1.23,0,0,0,.66,1.09l5.2,2.7v18.91h-3.41V280.17a1.22,1.22,0,1,0-2.45,0v16.67H323l-5.76-16.18a1.22,1.22,0,0,0-.9-.78l-5.95-1.26-1.9-5.58a3.82,3.82,0,0,0,.7-.56,3.85,3.85,0,0,0-3.22-6.51h-.08l-.15,0-.37.08a3.84,3.84,0,0,0,.75,7.55l2.18,6.42a1.23,1.23,0,0,0,.91.8l6,1.26,5.57,15.62-7.94,13.75-4.7-5.65.4-3.7a1.22,1.22,0,0,0-.31-1l-8.32-9.13a3.85,3.85,0,0,0-3.45-5.58l-.45,0a3.86,3.86,0,0,0,.44,7.69l.45,0a3.84,3.84,0,0,0,1.26-.39l7.88,8.65-.4,3.66a1.23,1.23,0,0,0,.28.91l6.17,7.41a1.22,1.22,0,0,0,1.72.16,1.2,1.2,0,0,0,.33-.47l8.57-14.85h16.52l8.26,14.31-1.45,2.52a3.81,3.81,0,0,0-.46,0l-.45,0a3.85,3.85,0,0,0-2.63,6.15l-3.26,5.66H321.92a1.22,1.22,0,0,0-1.22,1.22v27.47a1.22,1.22,0,0,0,2.45,0V330.34h6.45v37.43a1.22,1.22,0,1,0,2.45,0V330.34h6.44V347.7a1.22,1.22,0,1,0,2.45,0v-9.85L351.67,333a1.21,1.21,0,0,0,.34-.22l15.13-14.25a3.83,3.83,0,0,0,1.44.28l.45,0a3.86,3.86,0,0,0,3.38-4.28Zm-44.22-50.92a1.41,1.41,0,1,1,1.23-1.56A1.41,1.41,0,0,1,328.19,263.58Zm-21.73,7.62a1.41,1.41,0,1,1,1.23-1.56A1.41,1.41,0,0,1,306.45,271.2Zm-9.94,20.55h-.16a1.41,1.41,0,0,1-.16-2.81h.16a1.41,1.41,0,0,1,.16,2.81Zm48.8,26.77h.16a1.41,1.41,0,0,1,.16,2.81h-.16a1.41,1.41,0,0,1-.16-2.81Zm23.43-2.18h-.16a1.41,1.41,0,0,1-.16-2.81h.16a1.41,1.41,0,0,1,.16,2.81Z"/></g><g id="basestation_pin"><path class="cls-3" d="M548.47,376a3.76,3.76,0,0,1-2.35-.93l-24.67-21.95L496.8,375.05a3.78,3.78,0,0,1-2.37.95,3.43,3.43,0,0,1-2.19-.76,3.73,3.73,0,0,1-1.25-4.53l23.67-62.15a13.8,13.8,0,0,1-3.32-2.59,15.49,15.49,0,0,1,0-21.08,13.8,13.8,0,0,1,20.23,0,15.49,15.49,0,0,1,0,21.08,13.8,13.8,0,0,1-3.32,2.59l23.68,62.17a4,4,0,0,1-1.26,4.51A3.43,3.43,0,0,1,548.47,376Zm-1-5.39-11.57-30.44-11.42,10Zm-52,0,22.82-20.39-11.26-10Zm26-23.14L534.31,336l-9.91-26a18.1,18.1,0,0,1-2.95.28,11.78,11.78,0,0,1-3-.25L508.59,336Zm0-62.71a9.94,9.94,0,0,0-7.26,3.06,11.37,11.37,0,0,0-2.94,7.61,10.62,10.62,0,0,0,2.94,7.61,9.94,9.94,0,0,0,14.52,0,11.37,11.37,0,0,0,2.94-7.61,10.62,10.62,0,0,0-2.94-7.61A9.94,9.94,0,0,0,521.45,284.76Z"/><path class="cls-3" d="M535.28,295.43a14.83,14.83,0,0,0-4-10.25,13.38,13.38,0,0,0-19.62,0,15.07,15.07,0,0,0,0,20.5,13.28,13.28,0,0,0,3.54,2.69l-23.81,62.51a3.3,3.3,0,0,0,1.13,4,3,3,0,0,0,1.93.67,3.31,3.31,0,0,0,2.09-.84l24.93-22.18,24.93,22.18a3.31,3.31,0,0,0,2.09.84,3,3,0,0,0,1.93-.67,3.52,3.52,0,0,0,1.13-4l-23.81-62.51a13.28,13.28,0,0,0,3.54-2.69A14.83,14.83,0,0,0,535.28,295.43Zm-40.86,76.62,12.39-32.6,12.06,10.75Zm29.44-21.84,12.22-10.75,12.39,32.6Zm10.94-14.12L521.45,348,508.1,336.09l10.13-26.55a10.5,10.5,0,0,0,3.22.34,19,19,0,0,0,3.22-.34Zm-20.91-32.77a11,11,0,0,1-3.06-7.9,11.76,11.76,0,0,1,3.06-7.9,10.55,10.55,0,0,1,15.12,0,11,11,0,0,1,3.06,7.9,11.76,11.76,0,0,1-3.06,7.9A10.36,10.36,0,0,1,513.89,303.33Z"/><path class="cls-3" d="M495.89,322.1a38.93,38.93,0,0,1,0-53.34l.3-.32,2.83,3-.28.29a34.75,34.75,0,0,0,0,47.48l.28.29-2.83,3Z"/><path class="cls-3" d="M496.2,269a38.51,38.51,0,0,0,0,52.76l2.25-2.35a35.17,35.17,0,0,1,0-48.06Z"/><path class="cls-3" d="M543.87,319.46l.28-.29a34.75,34.75,0,0,0,0-47.48l-.28-.29,2.83-3,.3.32a38.93,38.93,0,0,1,0,53.34l-.3.32Z"/><path class="cls-3" d="M546.7,321.81a38.51,38.51,0,0,0,0-52.76l-2.25,2.35a35.17,35.17,0,0,1,0,48.06Z"/><path class="cls-3" d="M479.16,339.74c-23.35-24.39-23.35-64.07,0-88.46l.3-.32,2.83,3-.28.29c-21.8,22.77-21.8,59.83,0,82.6l.28.29-2.83,3Z"/><path class="cls-3" d="M481.72,337.1c-21.88-22.85-21.88-60.32,0-83.18l-2.25-2.35c-23.16,24.2-23.16,63.69,0,87.88Z"/><path class="cls-3" d="M560.6,337.1l.28-.29c21.8-22.77,21.8-59.83,0-82.6l-.28-.29,2.83-3,.3.32c23.35,24.39,23.35,64.07,0,88.46l-.3.32Z"/><path class="cls-3" d="M561.18,253.92c21.88,22.85,21.88,60.32,0,83.18l2.25,2.35c23.16-24.2,23.16-63.69,0-87.88Z"/></g><g id="tag_pin"><path class="cls-8" d="M709,375.5A64.5,64.5,0,1,1,773.5,311,64.57,64.57,0,0,1,709,375.5Z"/><path class="cls-4" d="M709,248a63,63,0,1,1-63,63,63.07,63.07,0,0,1,63-63m0-3a66,66,0,1,0,66,66,66,66,0,0,0-66-66Z"/><path class="cls-4" d="M722.41,306a8.5,8.5,0,0,1-6.06-2.49,8.84,8.84,0,0,1,0-12.3,8.73,8.73,0,0,1,6.15-2.49,8.64,8.64,0,1,1-.09,17.28Zm.19-14.14a5.53,5.53,0,0,0-3.91,9.41,5.24,5.24,0,0,0,3.81,1.59,5.4,5.4,0,0,0,3.91-1.59,5.8,5.8,0,0,0,1.69-4,5.35,5.35,0,0,0-1.59-3.85A5.55,5.55,0,0,0,722.6,291.9Z"/><path class="cls-4" d="M695.84,361.07a13.53,13.53,0,0,1-9.66-3.91l-23.44-23.44a14.27,14.27,0,0,1-3.91-9.66,14.88,14.88,0,0,1,4.39-10.42l38.43-38.34a12.63,12.63,0,0,1,8.39-3.63l36.26-.85a2.76,2.76,0,0,1,2,.78,2.35,2.35,0,0,1,.78,2.08l-.85,36.26a12.21,12.21,0,0,1-3.63,8.4l-38.33,38.43A15,15,0,0,1,695.84,361.07Zm14.35-86.16a9.8,9.8,0,0,0-6.34,2.67l-38.39,38.3a11.65,11.65,0,0,0-3.39,8.18,10.72,10.72,0,0,0,3,7.43L688.52,355a10.37,10.37,0,0,0,7.41,3,11.82,11.82,0,0,0,8.2-3.38l38.33-38.42a8.74,8.74,0,0,0,2.64-6.19l.94-35.95Z"/></g><g id="inventory_pin"><path class="cls-8" d="M898,375.5A64.5,64.5,0,1,1,962.5,311,64.57,64.57,0,0,1,898,375.5Z"/><path class="cls-4" d="M898,248a63,63,0,1,1-63,63,63.07,63.07,0,0,1,63-63m0-3a66,66,0,1,0,66,66,66,66,0,0,0-66-66Z"/><path class="cls-4" d="M863.72,353.3a2,2,0,0,1-2-2V275.2a2,2,0,0,1,2-2h14.93a1.42,1.42,0,0,0,1.42-1.42v-2.24a2,2,0,0,1,2-2h4.51a1.42,1.42,0,0,0,1.42-1.42v-2.43a2,2,0,0,1,2-2h16.62a2,2,0,0,1,2,2v2.43a1.42,1.42,0,0,0,1.42,1.42h4.51a2,2,0,0,1,2,2v2.24a1.42,1.42,0,0,0,1.42,1.42H933a2,2,0,0,1,2,2v76.08a2,2,0,0,1-2,2ZM866,276a1.42,1.42,0,0,0-1.42,1.42V349a1.42,1.42,0,0,0,1.42,1.42h64.72a1.42,1.42,0,0,0,1.42-1.42V277.46a1.42,1.42,0,0,0-1.42-1.42H918.06a1.42,1.42,0,0,0-1.42,1.42v5.45a2,2,0,0,1-2,2H882.09a2,2,0,0,1-2-2v-5.45a1.42,1.42,0,0,0-1.42-1.42Zm18.37-5.68a1.42,1.42,0,0,0-1.42,1.42v8.87a1.42,1.42,0,0,0,1.42,1.42h28a1.42,1.42,0,0,0,1.42-1.42v-8.87a1.42,1.42,0,0,0-1.42-1.42h-4.5a2,2,0,0,1-2-2v-2.43a1.42,1.42,0,0,0-1.42-1.42H892.32a1.42,1.42,0,0,0-1.42,1.42v2.42a2,2,0,0,1-2,2Z"/><path class="cls-4" d="M888.32,263.64v2.43a1.72,1.72,0,0,1-1.72,1.72h-4.51a1.72,1.72,0,0,0-1.72,1.72v2.24a1.72,1.72,0,0,1-1.72,1.72H863.72A1.72,1.72,0,0,0,862,275.2v76.08a1.72,1.72,0,0,0,1.72,1.72H933a1.72,1.72,0,0,0,1.72-1.72V275.2a1.72,1.72,0,0,0-1.72-1.72H918.06a1.72,1.72,0,0,1-1.72-1.72v-2.24a1.72,1.72,0,0,0-1.72-1.72h-4.51a1.72,1.72,0,0,1-1.72-1.72v-2.43a1.72,1.72,0,0,0-1.72-1.72H890A1.72,1.72,0,0,0,888.32,263.64Zm44.11,13.81V349a1.72,1.72,0,0,1-1.72,1.72H866a1.72,1.72,0,0,1-1.72-1.72V277.46a1.72,1.72,0,0,1,1.72-1.72h12.65a1.72,1.72,0,0,1,1.72,1.72v5.45a1.72,1.72,0,0,0,1.72,1.72h32.52a1.72,1.72,0,0,0,1.72-1.72v-5.45a1.72,1.72,0,0,1,1.72-1.72h12.65A1.72,1.72,0,0,1,932.44,277.46Zm-18.37-5.68v8.87a1.72,1.72,0,0,1-1.72,1.72h-28a1.72,1.72,0,0,1-1.72-1.72v-8.87a1.72,1.72,0,0,1,1.72-1.72h4.51a1.72,1.72,0,0,0,1.72-1.72v-2.42a1.72,1.72,0,0,1,1.72-1.72h12.07a1.72,1.72,0,0,1,1.72,1.72v2.43a1.72,1.72,0,0,0,1.72,1.72h4.5A1.72,1.72,0,0,1,914.07,271.78Z"/><rect class="cls-4" x="875.33" y="315.77" width="46.04" height="2.87"/><rect class="cls-4" x="875.63" y="316.07" width="45.44" height="2.27"/><rect class="cls-4" x="875.33" y="301" width="30.14" height="2.87"/><rect class="cls-4" x="875.63" y="301.3" width="29.54" height="2.27"/><rect class="cls-4" x="875.33" y="329.4" width="46.04" height="2.87"/><rect class="cls-4" x="875.63" y="329.7" width="45.44" height="2.27"/></g><g id="action_pin"><path class="cls-8" d="M146,1083.5a64.5,64.5,0,1,1,64.5-64.5A64.57,64.57,0,0,1,146,1083.5Z"/><path class="cls-4" d="M146,956a63,63,0,1,1-63,63,63.07,63.07,0,0,1,63-63m0-3a66,66,0,1,0,66,66,66,66,0,0,0-66-66Z"/><path class="cls-4" d="M122.42,1067.3a1.72,1.72,0,0,1-1.72-1.72V977.42a1.72,1.72,0,0,1,3.44,0v1.42a1.12,1.12,0,0,0,1.12,1.12H182.1a1.72,1.72,0,0,1,1.49,2.58L173,1001a1.13,1.13,0,0,0,0,1.12l10.6,18.49a1.72,1.72,0,0,1-1.49,2.58H125.27a1.12,1.12,0,0,0-1.12,1.12v41.23A1.72,1.72,0,0,1,122.42,1067.3Zm2.84-83.89a1.12,1.12,0,0,0-1.12,1.12v34.13a1.12,1.12,0,0,0,1.12,1.12h52a1.12,1.12,0,0,0,1-1.68l-8.91-15.66a1.73,1.73,0,0,1,0-1.7l8.91-15.66a1.12,1.12,0,0,0-1-1.68Z"/><path class="cls-4" d="M123.84,978.84v-1.42a1.42,1.42,0,0,0-1.42-1.42h0a1.42,1.42,0,0,0-1.42,1.42v88.16a1.42,1.42,0,0,0,1.42,1.42h0a1.42,1.42,0,0,0,1.42-1.42v-41.23a1.42,1.42,0,0,1,1.42-1.42H182.1a1.42,1.42,0,0,0,1.23-2.13l-10.6-18.49a1.42,1.42,0,0,1,0-1.41l10.6-18.49a1.42,1.42,0,0,0-1.23-2.13H125.27A1.42,1.42,0,0,1,123.84,978.84Zm53.43,41.23h-52a1.42,1.42,0,0,1-1.42-1.42V984.53a1.42,1.42,0,0,1,1.42-1.42h52a1.42,1.42,0,0,1,1.24,2.13l-8.91,15.66a1.42,1.42,0,0,0,0,1.41l8.91,15.66A1.42,1.42,0,0,1,177.28,1020.08Z"/></g><g id="map_pin"><path class="cls-8" d="M341,1082.5a64.5,64.5,0,1,1,64.5-64.5A64.57,64.57,0,0,1,341,1082.5Z"/><path class="cls-4" d="M341,955a63,63,0,1,1-63,63,63.07,63.07,0,0,1,63-63m0-3a66,66,0,1,0,66,66,66,66,0,0,0-66-66Z"/><path class="cls-4" d="M354.35,1056.39a1.27,1.27,0,0,1-.51-.11l-26.19-11.21-26.19,11.21a1.1,1.1,0,0,1-.45.09,1.37,1.37,0,0,1-1-.42,1.19,1.19,0,0,1-.35-.85v-61a1.27,1.27,0,0,1,.74-1.14l26.73-11.45.12,0a1.56,1.56,0,0,1,.38-.05,1.49,1.49,0,0,1,.46.08l13.28,5.66a13.59,13.59,0,0,1,12.91-9.55h0a13.66,13.66,0,0,1,13,9.55l13.25-5.65a1.11,1.11,0,0,1,.45-.09,1.32,1.32,0,0,1,1.31,1.23v61a1.28,1.28,0,0,1-.75,1.17l-26.7,11.44A1.26,1.26,0,0,1,354.35,1056.39Zm-52.14-3.16,24.19-10.38V984.59l-24.19,10.35Zm53.39,0,24.19-10.35V984.56l-11.94,5.12a14,14,0,0,1,.15,2,17,17,0,0,1-1.06,5.56q-3,6.36-6,12.69-2.65,5.6-5.31,11.2Zm-2.51,0v-32.1l-11.32-23.86a17.22,17.22,0,0,1-1.07-5.58,14.14,14.14,0,0,1,.15-2l-11.94-5.09v58.25Zm1.22-73.08a11.34,11.34,0,0,0-11.11,11.53,15.34,15.34,0,0,0,.91,4.66l10.24,21.57,10.25-21.6a15.29,15.29,0,0,0,.9-4.64A11.37,11.37,0,0,0,354.32,980.12Zm0,16.21a5.07,5.07,0,1,1,5.07-5.07A5.07,5.07,0,0,1,354.35,996.33Zm0-7.63a2.56,2.56,0,1,0,2.56,2.56A2.53,2.53,0,0,0,354.35,988.7Z"/><path class="cls-4" d="M354.32,977.91a13.37,13.37,0,0,0-12.72,9.65L328,981.78a1.19,1.19,0,0,0-.77,0l-26.7,11.44a1,1,0,0,0-.57.86v61a1,1,0,0,0,1.34.89l26.31-11.26L354,1056a1,1,0,0,0,.77,0l26.7-11.44a1,1,0,0,0,.57-.89v-61a1,1,0,0,0-1.34-.86l-13.56,5.78a13.46,13.46,0,0,0-12.78-9.65Zm0,1.91a11.64,11.64,0,0,1,11.47,11.83,15.55,15.55,0,0,1-.92,4.77l-10.52,22.17-10.52-22.17a15.62,15.62,0,0,1-.92-4.77A11.59,11.59,0,0,1,354.32,979.82Zm25.77,4.29V1043l-24.79,10.61V1021q5.69-12,11.35-23.93a16.75,16.75,0,0,0,1-5.45,14.14,14.14,0,0,0-.18-2.15Zm-53.4,0V1043l-24.79,10.64V994.75Zm1.91,0,12.57,5.36a14.22,14.22,0,0,0-.18,2.15,16.84,16.84,0,0,0,1,5.45L353.4,1021v32.63L328.6,1043Zm25.74,2.35a4.77,4.77,0,1,0,4.77,4.77A4.78,4.78,0,0,0,354.35,986.49Zm0,1.91a2.86,2.86,0,1,1-2.86,2.86A2.85,2.85,0,0,1,354.35,988.4Z"/></g><g id="path_pin"><path class="cls-8" d="M144,377.5A64.5,64.5,0,1,1,208.5,313,64.57,64.57,0,0,1,144,377.5Z"/><path class="cls-4" d="M144,250a63,63,0,1,1-63,63,63.07,63.07,0,0,1,63-63m0-3a66,66,0,1,0,66,66,66,66,0,0,0-66-66Z"/><path class="cls-4" d="M155.39,359.3c-2.12-.13-4.15-.27-6-.43a1.8,1.8,0,0,1,.13-3.59h.19c1.84.15,3.84.3,5.92.42a1.8,1.8,0,0,1-.11,3.6Zm-12-1c-2.08-.12-4.11-.27-6-.43a1.8,1.8,0,0,1,.13-3.59h.19c1.84.15,3.83.3,5.92.42a1.8,1.8,0,0,1-.11,3.6Zm-11.86-1h-.22c-2.11-.24-4.13-.52-6-.81a1.8,1.8,0,0,1-1.5-2.06,1.81,1.81,0,0,1,1.77-1.52l.29,0c1.83.29,3.81.56,5.86.79a1.8,1.8,0,0,1-.2,3.59Zm-11.83-1.91a1.81,1.81,0,0,1-.39,0,54.51,54.51,0,0,1-6-1.66,1.8,1.8,0,1,1,1.19-3.4,51,51,0,0,0,5.57,1.55,1.8,1.8,0,0,1-.39,3.56Zm-11.14-4.23a1.78,1.78,0,0,1-1.07-.35c-2.09-1.54-3.15-3.32-3.15-5.28a5.53,5.53,0,0,1,.33-1.85,1.81,1.81,0,0,1,1.7-1.2,1.77,1.77,0,0,1,.6.1,1.8,1.8,0,0,1,1.09,2.3,1.94,1.94,0,0,0-.12.64c0,.76.57,1.56,1.68,2.38a1.8,1.8,0,0,1-1.07,3.25Zm1.88-9.34a1.8,1.8,0,0,1-1-3.32,29.46,29.46,0,0,1,5.78-2.72,1.8,1.8,0,0,1,1.2,3.4,25.69,25.69,0,0,0-5.06,2.37A1.77,1.77,0,0,1,110.44,341.8Zm11.23-4.06a1.8,1.8,0,0,1-.3-3.57,32,32,0,0,1,5.42-.49l.93,0a1.8,1.8,0,0,1,0,3.6h-.84a28.74,28.74,0,0,0-4.87.44Zm12-.44a1.76,1.76,0,0,1-1.29-3,1.81,1.81,0,0,1,1.25-.54,55.09,55.09,0,0,0,5.79-.41h.23a1.81,1.81,0,0,1,1.79,1.57,1.73,1.73,0,0,1-.34,1.29,1.81,1.81,0,0,1-1.21.69,47.68,47.68,0,0,1-6.19.41Zm11.84-1.57a1.8,1.8,0,0,1-.51-3.52A21.86,21.86,0,0,0,150,330a1.81,1.81,0,0,1,.93-.26,1.8,1.8,0,0,1,.94,3.34,25.34,25.34,0,0,1-5.91,2.56A1.82,1.82,0,0,1,145.49,335.73Zm9.92-6.35a1.8,1.8,0,0,1-1.45-2.86,11.56,11.56,0,0,0,2-4.73,1.8,1.8,0,0,1,1.77-1.46,1.77,1.77,0,0,1,.33,0,1.81,1.81,0,0,1,1.44,2.1,15.14,15.14,0,0,1-2.67,6.19A1.81,1.81,0,0,1,155.41,329.39ZM157.76,318a1.79,1.79,0,0,1-1.77-1.5,20.74,20.74,0,0,0-1.65-5.26,1.8,1.8,0,0,1,3.27-1.51,24.4,24.4,0,0,1,1.93,6.17,1.8,1.8,0,0,1-1.48,2.07Zm-40.11-2.8a10.89,10.89,0,0,1-3.9-.67,1.8,1.8,0,0,1,.64-3.48,1.78,1.78,0,0,1,.64.12,7.33,7.33,0,0,0,2.62.44,12.75,12.75,0,0,0,2.33-.23,1.8,1.8,0,0,1,2.1,1.44,1.8,1.8,0,0,1-1.44,2.1,16.43,16.43,0,0,1-3,.3ZM183,314.8a1.85,1.85,0,0,1-.45-.06,1.81,1.81,0,0,1-1.3-2.2q.45-1.72.83-3.31a1.8,1.8,0,1,1,3.5.83q-.39,1.64-.85,3.39A1.8,1.8,0,0,1,183,314.8ZM126,313.09a1.8,1.8,0,0,1-.69-3.46c1.53-.64,3.22-1.43,5.3-2.5a1.8,1.8,0,1,1,1.64,3.2c-2.18,1.12-3.95,2-5.56,2.62A1.79,1.79,0,0,1,126,313.09Zm-15.95-2.47a1.79,1.79,0,0,1-1.54-.87,25.45,25.45,0,0,1-2.6-5.89,1.8,1.8,0,0,1,3.45-1,21.87,21.87,0,0,0,2.23,5.06,1.8,1.8,0,0,1-1.54,2.73Zm26.69-2.89a1.8,1.8,0,0,1-.84-3.39c1.81-1,3.73-1.94,5.53-2.7a1.8,1.8,0,0,1,1.41,3.32c-1.69.72-3.53,1.66-5.26,2.57A1.8,1.8,0,0,1,136.77,307.73Zm16-.55a1.8,1.8,0,0,1-1.37-.63,7.71,7.71,0,0,0-3.74-2.76,1.8,1.8,0,0,1,.28-3.58l.28,0c1.89.3,4,1.71,5.92,4a1.8,1.8,0,0,1-1.37,3Zm32.26-1.6-.32,0a1.81,1.81,0,0,1-1.46-2.09c.38-2.06.66-4,.83-5.79A1.79,1.79,0,0,1,185.9,296h.19a1.8,1.8,0,0,1,1.61,2c-.18,1.87-.48,3.91-.87,6.08A1.8,1.8,0,0,1,185.05,305.58Zm-78.46-6.32a1.81,1.81,0,0,1-1.79-1.67c-.06-.81-.09-1.65-.09-2.49a36.05,36.05,0,0,1,.21-3.83,1.8,1.8,0,0,1,1.8-1.61h.18a1.81,1.81,0,0,1,1.6,2,32.56,32.56,0,0,0-.19,3.45c0,.75,0,1.5.08,2.22a1.8,1.8,0,0,1-1.66,1.93h-.14Zm79.5-6a1.66,1.66,0,0,1-1.8-1.54,16.82,16.82,0,0,0-1-5.22,1.75,1.75,0,0,1,1-2.28,1.78,1.78,0,0,1,.63-.12,1.83,1.83,0,0,1,1.7,1.18,19.72,19.72,0,0,1,1.21,6.26,1.59,1.59,0,0,1-.43,1.19,1.79,1.79,0,0,1-1.32.53Zm-78.27-5.93a1.8,1.8,0,0,1-1.74-2.28,40.61,40.61,0,0,1,2.12-5.91,1.8,1.8,0,1,1,3.28,1.48,37,37,0,0,0-1.93,5.38A1.81,1.81,0,0,1,107.83,287.37Zm47.26-3.48c-.74,0-1.44,0-2.09-.1s-1-.12-1.51-.2a1.8,1.8,0,0,1,.29-3.58l.29,0c.42.07.84.13,1.28.17s1.12.08,1.74.08c.77,0,1.59,0,2.51-.12h.14a1.82,1.82,0,0,1,1.81,1.64,1.8,1.8,0,0,1-1.64,2C156.89,283.85,156,283.89,155.09,283.89Zm26.26-.71a1.81,1.81,0,0,1-.93-.26,10.17,10.17,0,0,0-4.88-1.27,1.8,1.8,0,0,1-1.71-1.88,1.82,1.82,0,0,1,1.81-1.71,13.77,13.77,0,0,1,6.66,1.79,1.8,1.8,0,0,1-.94,3.34Zm-17.64-.24a1.8,1.8,0,0,1-.3-3.58l1-.17c1.64-.28,3.34-.56,5-.78l.24,0a1.8,1.8,0,0,1,.23,3.58c-1.6.21-3.32.5-4.84.76l-1,.17Zm-17.6-1.16a1.79,1.79,0,0,1-.8-.19A25.51,25.51,0,0,1,140,278a1.8,1.8,0,0,1,2.37-2.71,21.83,21.83,0,0,0,4.56,3.13,1.8,1.8,0,0,1-.81,3.41Zm-33.35-5.3a1.8,1.8,0,0,1-1.49-2.81,29.27,29.27,0,0,1,4.1-4.89,1.8,1.8,0,0,1,2.47,2.61,25.81,25.81,0,0,0-3.59,4.29A1.8,1.8,0,0,1,112.76,276.48Zm24.18-2.33a1.81,1.81,0,0,1-1.33-.58l-.34-.37a42.43,42.43,0,0,0-3.71-3.74,1.8,1.8,0,0,1,2.31-2.76,45.05,45.05,0,0,1,4,4.06l.34.36a1.8,1.8,0,0,1-1.32,3Zm-15.42-5.65a1.8,1.8,0,0,1-.74-3.44,13.43,13.43,0,0,1,5.52-1.24l.5,0c.26,0,.5,0,.73,0a1.8,1.8,0,0,1,1.61,2,1.73,1.73,0,0,1-1.77,1.56h-.22l-.36,0a3.23,3.23,0,0,0-.49-.05,10,10,0,0,0-4.05,1A1.67,1.67,0,0,1,121.52,268.5Z"/><path class="cls-4" d="M183,330.48a2.31,2.31,0,0,1-2.07-1.3l-2.26-4.69L174,326.74a2.27,2.27,0,0,1-1,.23,2.3,2.3,0,0,1-1-4.37l4.69-2.26-2.26-4.69a2.3,2.3,0,0,1,4.15-2l2.26,4.69,4.69-2.26a2.29,2.29,0,0,1,1-.23,2.3,2.3,0,0,1,1,4.37l-4.69,2.26,2.26,4.69a2.3,2.3,0,0,1-2.07,3.3Z"/></g><g id="robot_pin"><path class="cls-8" d="M141,557.5A64.5,64.5,0,1,1,205.5,493,64.57,64.57,0,0,1,141,557.5Z"/><path class="cls-4" d="M141,430a63,63,0,1,1-63,63,63.07,63.07,0,0,1,63-63m0-3a66,66,0,1,0,66,66,66,66,0,0,0-66-66Z"/><path class="cls-4" d="M143.27,441.5l32.41,91.35A1,1,0,0,1,174,534L142.33,506.6a1,1,0,0,0-1.36,0l-31.85,27.19a1,1,0,0,1-1.66-1.15l33-91.15A1.51,1.51,0,0,1,143.27,441.5ZM115,524.41l25.9-22.12a1.14,1.14,0,0,1,1.48,0l25.77,22.27A.53.53,0,0,0,169,524l-26.7-75.25a.53.53,0,0,0-1,0l-27.16,75.09A.53.53,0,0,0,115,524.41Z"/><path class="cls-4" d="M141.66,504.85,175,533.7l-32.48-91.54a.76.76,0,0,0-1.43,0l-33,91.34Zm.18-60.14,29.82,84-30-25.92-30.15,25.74Z"/></g><g id="pictures"><circle class="cls-9" cx="898" cy="502" r="66"/><path d="M930.7,473.43H917.28l-4.11-8.22a5.52,5.52,0,0,0-4.93-3H887.77a5.52,5.52,0,0,0-4.93,3l-4.11,8.22H865.31A10.62,10.62,0,0,0,854.62,484v41.28A10.7,10.7,0,0,0,865.31,536h65.49a10.7,10.7,0,0,0,10.69-10.69V484A10.76,10.76,0,0,0,930.7,473.43ZM898,524a20.78,20.78,0,1,1,20.82-20.73A20.82,20.82,0,0,1,898,524Z"/><path d="M898,489.05a14.16,14.16,0,1,0,14.16,14.16A14.23,14.23,0,0,0,898,489.05Z"/></g><g id="camera_white"><circle class="cls-4" cx="1105" cy="503" r="66"/><path d="M1137.7,475.43h-13.43l-4.11-8.22a5.52,5.52,0,0,0-4.93-3h-20.46a5.52,5.52,0,0,0-4.93,3l-4.11,8.22h-13.43a10.62,10.62,0,0,0-10.69,10.6v41.28A10.7,10.7,0,0,0,1072.31,538h65.49a10.7,10.7,0,0,0,10.69-10.69V486A10.76,10.76,0,0,0,1137.7,475.43ZM1105,526a20.78,20.78,0,1,1,20.82-20.73A20.82,20.82,0,0,1,1105,526Z"/><path d="M1105,491.05a14.16,14.16,0,1,0,14.16,14.16A14.23,14.23,0,0,0,1105,491.05Z"/></g><g id="user_location_pin"><circle class="cls-10" cx="330.5" cy="501.5" r="29.5"/></g><g id="robot_pin-2" data-name="robot_pin"><path class="cls-11" d="M543,501.5a29.5,29.5,0,0,1-59,0c0-13.07,20-35.75,27.33-44.2a3.73,3.73,0,0,1,5.62,0C524.33,465.75,543,488.43,543,501.5Z"/></g><g id="engine"><path class="cls-2" d="M1531.53,845.65h-10v11.57h-7.34l-15-26h-22.59V822h16.22v-7.71h-42.31V822h16.38v9.16h-20l-10.62,12.05h-6.67v14h-5.46V840.35h-6.82v44.82h6.82V869.74h5.46v9.63h6.82l20,23.62h58.91V890h6.15v13h10s5.46-1.44,5.46-28.67C1537,874.33,1537.44,845.65,1531.53,845.65Z"/></g><g id="motorcycle"><path class="cls-4" d="M1259.33,290.69l-.59-1-.69-1.21L1241.88,295l.85,1.14.73,1,.85,1.14,15.7-6.34Z"/><path class="cls-4" d="M1232.73,272.81l47.09-18.9a1.25,1.25,0,0,0,.7-1.64,1.28,1.28,0,0,0-1.66-.69l-47.09,18.9a1.25,1.25,0,0,0-.7,1.64,1.28,1.28,0,0,0,1.66.69Z"/><path class="cls-4" d="M1285.3,265c1.46-.67,1.37-1.54.72-2.94-.35-.76-1.9-4.67-2.28-5.61a2.28,2.28,0,0,0-2.85-1.12c-1.33.37-44.2,17.84-46.29,18.58s-2.73,2.31-2.25,3.27c.27.53,1.73,4.14,2.68,6s2.66,1.12,4.18.56C1239.21,283.73,1281.61,266.67,1285.3,265Z"/><path class="cls-4" d="M1298.15,310.82l-9.28,3.8,1.18,2.71,8.83-3.61c.23-.43-.62-2.21-.69-2.73C1298.17,311,1298.16,310.89,1298.15,310.82Z"/><path class="cls-4" d="M1303.75,297.3l-.34,1.14-.4,1.33,10.28,4.21.5-1.29.43-1.1.5-1.29L1304.15,296Z"/><path class="cls-4" d="M1302.27,302.23l-.34,1.14-.39,1.33,9.88,4,.5-1.29.43-1.1.5-1.29-10.19-4.17Z"/><path class="cls-4" d="M1296,303.37l-.34-1.14-.4-1.33-10.19,4.17.5,1.29.43,1.1.5,1.29,9.88-4Z"/><path class="cls-4" d="M1300.81,307.18l-.33,1.14c-.14.51-.27,1-.37,1.34l9.43,3.86.5-1.29.43-1.1.5-1.29-9.78-4Z"/><path class="cls-4" d="M1294.57,298.44l-.34-1.14-.4-1.33-10.58,4.33.5,1.29.43,1.1.5,1.29,10.28-4.21Z"/><path class="cls-4" d="M1297.49,308.32l-.33-1.14-.39-1.33-9.78,4,.5,1.29.43,1.1.5,1.29,9.43-3.86C1297.76,309.28,1297.63,308.83,1297.49,308.32Z"/><path class="cls-4" d="M1261.89,295.18l-.59-1-.69-1.21-15.56,6.28.86,1.14.73,1,.86,1.14,15.07-6.09Z"/><path class="cls-4" d="M1299.8,311c-.07.51-.92,2.3-.69,2.73l8.83,3.61,1.18-2.71-9.28-3.8C1299.81,310.89,1299.8,311,1299.8,311Z"/><path class="cls-4" d="M1334.12,298.64l-.59,1-.69,1.21,13.25,5.58.86-1.14.74-1,.86-1.14-13.74-5.78Z"/><path class="cls-4" d="M1336.68,294.15l-.59,1-.69,1.21,15.07,6.09.86-1.14.73-1,.86-1.14-15.56-6.28Z"/><path class="cls-4" d="M1264.45,299.68l-.59-1-.69-1.21-13.74,5.78.86,1.14.74,1,.86,1.14,13.25-5.58Z"/><path class="cls-4" d="M1330.26,308.14l-.62,1-.72,1.2,9.51,3.89.86-1.14.74-1,.86-1.14-9.91-4.06Z"/><path class="cls-4" d="M1332.94,303.7l-.62,1-.72,1.2,11.29,4.78.86-1.14.74-1,.86-1.14-11.7-4.94Z"/><path class="cls-4" d="M1366.2,270.47l-47.09-18.9a1.28,1.28,0,0,0-1.66.69,1.25,1.25,0,0,0,.7,1.64l47.09,18.9a1.29,1.29,0,0,0,.48.09,1.28,1.28,0,0,0,1.18-.79A1.25,1.25,0,0,0,1366.2,270.47Z"/><path class="cls-4" d="M1327.58,312.59l-.62,1-.72,1.2,9,3.67.87-1.14.74-1,.86-1.14-9.39-3.84Z"/><path class="cls-4" d="M1363.37,273.89c-2.09-.75-45-18.21-46.29-18.58a2.28,2.28,0,0,0-2.85,1.12c-.38.93-1.93,4.85-2.28,5.61-.65,1.4-.74,2.26.72,2.94,3.7,1.7,46.09,18.75,46.09,18.75,1.52.56,3.23,1.31,4.18-.56s2.41-5.48,2.68-6C1366.11,276.19,1365.46,274.63,1363.37,273.89Z"/><path class="cls-4" d="M1322.42,271.06c-5-4.09-13.64-6.79-23.4-6.79S1280.7,267,1275.65,271l-36.94,15c0,.37,0,2.71.06,3.18l.08.19,32.76-13.34a9.15,9.15,0,0,0-.49,1.48l-32,13,.53,1.27.7,1,.84,1.15,30.05-12.23a9.72,9.72,0,0,0,.95,2.25l-2.89,1.09,5.24,15.23-.43.2,1.13,3.31-1.75-3-.79.33L1265,287l-4.44,1.91,7.55,14.17-.79.33,2.88,5.19.6-.27,9.9,17.12-1.16.44,1.8,4.3q-.65.46-1.28,1l-2.48-6.81-6.89,2.94c1.77,3.68.19,6.34-.37,9.56a3.93,3.93,0,0,0,1.5,4.21,29.72,29.72,0,0,0-3.36,13.76,30.54,30.54,0,0,0,61.08,0,29.72,29.72,0,0,0-3.37-13.78,3.94,3.94,0,0,0,1.46-4.19c-.56-3.22-2.14-5.88-.37-9.56l-6.89-2.94-2.47,6.78q-.63-.49-1.28-.95l1.79-4.28-1.16-.44,9.9-17.12.6.27,2.88-5.19-.79-.33,7.55-14.17L1333,287l-7.64,14.17-.79-.33-1.75,3,1.13-3.31-.43-.2,5.24-15.23-2.85-1.07a9.73,9.73,0,0,0,1-2.25l30,12.21.84-1.15.7-1,.53-1.27-32-13a9.12,9.12,0,0,0-.48-1.47l32.71,13.31.08-.19c0-.47.11-2.81.06-3.18Zm-23.4,3.16a5.28,5.28,0,1,1-5.35,5.28A5.31,5.31,0,0,1,1299,274.22Zm-23.59,32,.51-.23h0l.45-.19,1.89,5.25ZM1299,367a12.23,12.23,0,1,1,12.38-12.23A12.32,12.32,0,0,1,1299,367Zm18.87-69.25-2,5.58,1.07.46-7,18.81-2-.76-1.51,3.68c-.43-.11-.87-.21-1.31-.29l2.39-6.17-7.36-3-1.19,4.13L1297.8,316l-7.36,3,2.4,6.18c-.44.09-.87.19-1.31.3l-1.52-3.69-2,.76-7-18.81,1.07-.46-2-5.58-1.13.52-3.73-10.67a20.81,20.81,0,0,0,2.42,1.77l.24.73.58-.24q.65.38,1.35.73l-1.56.63.43,1.32.37,1.13.43,1.32,5.62-2.28q.91.28,1.85.52l-5.59,2.27.5,1.29.43,1.1.5,1.29,11.55-4.68c1.51.14,3.07.21,4.65.21s3.11-.07,4.61-.2l11.54,4.68.5-1.29.43-1.1.5-1.29-5.57-2.26q.95-.24,1.85-.52l5.6,2.28.43-1.32.37-1.13.43-1.32-1.53-.62q.7-.35,1.35-.73l.55.23.23-.69a21,21,0,0,0,2.41-1.75L1319,298.29Zm1.82,13.28,1.89-5.25.45.19h0l.51.23Z"/><path class="cls-4" d="M1339.24,289.65l-.59,1-.69,1.21,15.7,6.34.85-1.14.73-1,.85-1.14-16.17-6.53Z"/><path class="cls-4" d="M1271,313.62l-.62-1-.72-1.2-9.39,3.84.86,1.14.74,1,.87,1.14,9-3.67Z"/><path class="cls-4" d="M1273.69,318.06l-.62-1-.72-1.2-8.85,3.62.87,1.14.74,1,.87,1.14,8.44-3.45Z"/><path class="cls-4" d="M1268.33,309.17l-.62-1-.72-1.2-9.91,4.06.86,1.14.74,1,.86,1.14,9.51-3.89Z"/><path class="cls-4" d="M1265.66,304.72l-.62-1-.72-1.2-11.7,4.94.86,1.14.74,1,.86,1.14,11.29-4.78Z"/><path class="cls-4" d="M1275,320.29l-8.31,3.4c.44.58,1.41,2.39,1.54,2.56l8.16-3.34Z"/><path class="cls-4" d="M1299,344.22a10.57,10.57,0,1,0,10.71,10.57A10.65,10.65,0,0,0,1299,344.22Z"/><path class="cls-4" d="M1321.56,322.91l8.16,3.34c.13-.17,1.1-2,1.54-2.56l-8.31-3.4Z"/><path class="cls-4" d="M1324.91,317l-.62,1-.72,1.2,8.44,3.45.87-1.14.74-1,.87-1.14-8.85-3.62Z"/></g><g id="battery"><path class="cls-4" d="M1129,254.87c2.75,0,3.72,1.85,2.15,4.11l-25.42,36.61c-1.57,2.26-.6,4.11,2.15,4.11h24.83c2.75,0,3.48,1.66,1.61,3.68l-66.66,72.34c-1.87,2-2.54,1.6-1.5-1l18.63-45.53c1-2.55-.36-4.63-3.11-4.63h-19c-2.75,0-4.14-2.08-3.08-4.62l25.17-60.5a8.14,8.14,0,0,1,6.93-4.62Z"/></g><g id="fuel"><rect class="cls-4" x="1453.12" y="314.99" width="26.58" height="30.05" transform="translate(-0.68 3.04) rotate(-0.12)"/><polygon class="cls-4" points="1420.38 263.42 1405.7 277.06 1414.37 285.1 1429.43 271.62 1420.38 263.42"/><path class="cls-4" d="M1516.75,267.06l-13-14.76-43.57.09L1446,267.45l-8,0-13,12.2-7.46,7-.29,84.25,12.89,11.77,76.41-.17L1517,369.81Zm-54.63-9.25,37.86-.18-11.57,14.74-30.12.07-10.28.2Zm41.06,110.12-21.59-20.41-29.49.06-20.15,20.5-3-2.41,21.5-20.93-.07-30-21.6-19.21,2.65-2.93,22.28,19.9,27.76-.06,22-20,1.63,2.89-22.76,21,.07,28.35,22.86,20.62Z"/></g><g id="clock"><path class="cls-4" d="M146,72a66,66,0,1,0,66,66A66,66,0,0,0,146,72Zm0,120.8A54.8,54.8,0,1,1,200.8,138,54.81,54.81,0,0,1,146,192.8Z"/><path class="cls-4" d="M169.79,155.24l-19.42-14V107.5a1.09,1.09,0,0,0-1.09-1.09h-6.55a1.09,1.09,0,0,0-1.09,1.09V145a1.08,1.08,0,0,0,.45.89l22.52,16.42a1.1,1.1,0,0,0,1.53-.23l3.89-5.31a1.09,1.09,0,0,0-.25-1.53Z"/></g><g id="user-2" data-name="user"><path class="cls-4" d="M381.62,175.94a62,62,0,0,0-14.15-19.82,66.27,66.27,0,0,0-21-13.37l-.21-.08a40.39,40.39,0,0,0,18-33.33c0-22.72-19.48-41.13-43.53-41.13s-43.53,18.41-43.53,41.13c0,13.71,7.11,25.87,18,33.35l-.21.08a65.7,65.7,0,0,0-21,13.37A62.22,62.22,0,0,0,260,176a58.75,58.75,0,0,0-5.18,22.9,1.36,1.36,0,0,0,1.37,1.36h10.57a1.37,1.37,0,0,0,1.4-1.29A48.16,48.16,0,0,1,283.55,165a54.88,54.88,0,0,1,74.5,0,48.16,48.16,0,0,1,15.41,33.88,1.36,1.36,0,0,0,1.4,1.29h10.53a1.37,1.37,0,0,0,1.4-1.33v0A58.9,58.9,0,0,0,381.62,175.94Zm-60.82-38.07a30.91,30.91,0,0,1-21.34-8.36,27.4,27.4,0,0,1,0-40.33,31.43,31.43,0,0,1,42.69,0,27.4,27.4,0,0,1,0,40.33A30.91,30.91,0,0,1,320.79,137.86Z"/></g><g id="sad_robot"><path class="cls-4" d="M486.41,107.39c0,4.88,4.26,8.84,9.51,8.84s9.51-4,9.51-8.84-4.26-8.84-9.51-8.84S486.41,102.51,486.41,107.39ZM573.93,68.5H466.12A4.9,4.9,0,0,0,461,73.21v97.23a4.9,4.9,0,0,0,5.07,4.71H573.93a4.9,4.9,0,0,0,5.07-4.71V73.21A4.9,4.9,0,0,0,573.93,68.5Zm-5.07,97.23H471.19V77.93h97.66Zm-34.25-58.34c0,4.88,4.26,8.84,9.51,8.84s9.51-4,9.51-8.84-4.26-8.84-9.51-8.84S534.61,102.51,534.61,107.39Zm39.67,81.91H465.77A4.71,4.71,0,0,0,461,194v5.3a1.18,1.18,0,0,0,1.17,1.18H577.81a1.18,1.18,0,0,0,1.17-1.18V194A4.69,4.69,0,0,0,574.28,189.3Zm-30.15-55.39h-48.2a1.23,1.23,0,0,0-1.27,1.18v8.84a1.23,1.23,0,0,0,1.27,1.18h48.2a1.23,1.23,0,0,0,1.27-1.18v-8.84A1.23,1.23,0,0,0,544.12,133.91Z"/><path class="cls-4" d="M484.91,107.39c.77,13.31,22.08,13.5,22,0s-21.25-13.32-22,0c-.11,1.93,2.89,1.92,3,0,.55-9.5,16-9.59,16,0s-15.47,9.51-16,0C487.8,105.47,484.8,105.46,484.91,107.39Z"/><path class="cls-4" d="M573.93,67H477.08c-3.59,0-7.38-.35-11,0-6.84.66-6.57,6.25-6.57,11.43v82.35c0,3.54-1.08,9.55.9,12.81,2.46,4,8.32,3.08,12.33,3.08h84.31c5.35,0,10.74.22,16.08,0,5.19-.21,7.34-3.46,7.34-8.23v-80c0-4.94.39-10.05,0-15-.31-3.92-2.78-6-6.57-6.43-1.91-.24-1.89,2.76,0,3,5.46.68,3.57,10.63,3.57,13.84v78.45c0,4.12,1.48,9.79-3.82,11.37-3.45,1-8.78,0-12.34,0H480.78c-4.23,0-9.84,1-14,0-5.3-1.26-4.25-5.38-4.25-9.43V85.87c0-3.75-.93-8.87,0-12.54,1.21-4.77,8.28-3.34,11.56-3.34h99.82A1.5,1.5,0,0,0,573.93,67Z"/><path class="cls-4" d="M568.85,164.23H471.19l1.5,1.5V77.93l-1.5,1.5h97.66l-1.5-1.5v87.8a1.5,1.5,0,0,0,3,0V77.93a1.52,1.52,0,0,0-1.5-1.5H471.19a1.52,1.52,0,0,0-1.5,1.5v87.8a1.52,1.52,0,0,0,1.5,1.5h97.66A1.5,1.5,0,0,0,568.85,164.23Z"/><path class="cls-4" d="M533.11,107.39c.77,13.31,22.08,13.5,22,0s-21.25-13.32-22,0c-.11,1.93,2.89,1.92,3,0,.55-9.5,16-9.59,16,0s-15.47,9.51-16,0C536,105.47,533,105.46,533.11,107.39Z"/><path class="cls-4" d="M574.28,187.8H524.51c-19.19,0-38.5-.62-57.68,0-3.15.1-6.09,1.2-7.07,4.56-.84,2.89-1.26,8.9,2.46,9.64,4.55.9,10.19,0,14.81,0h98.18c1.78,0,3.83.33,4.87-1.45s.67-5.78.23-7.79c-.68-3.11-3.07-4.56-6-5-1.91-.25-1.89,2.75,0,3,4.2.56,3,2.83,3.21,4.89,0,.28.1,3.4.16,3.35s-.53-.13-.83,0c-1.79.49-4.38,0-6.23,0H480.65c-5.4,0-12,1-17.34,0-.22,0-.9.15-1.07,0,.49.43.27-1.53.3-1.84.22-2.75-.54-2.6,1.61-4.75,1.94-1.94,2.17-1.61,4.73-1.61H574.28A1.5,1.5,0,0,0,574.28,187.8Z"/><path class="cls-4" d="M544.12,132.41H500c-2.42,0-5.87-.69-6.76,2.28-.57,1.91-.05,4.7-.05,6.66,0,1.58-.33,3.61,1.12,4.7,1.86,1.41,6.22.55,8.28.55h35.64c2.58,0,7.21,1,8.49-1.92.83-1.89.2-5,.2-7,0-2.44.21-4.21-2.37-5.2-1.8-.7-2.58,2.2-.8,2.89.46.18.17,4.18.17,5.09,0,1.48.18,3-.19,3.16-1.86,1-6.8,0-8.85,0H504c-1.37,0-6.81.88-7.92,0,0,0-.1-8.17-.07-8.2,1.06-.85,6.31,0,7.61,0h40.48A1.5,1.5,0,0,0,544.12,132.41Z"/></g><g id="poweroff"><path class="cls-4" d="M738.56,78.86a1.22,1.22,0,0,0-1.77,1.1v9.81a2.5,2.5,0,0,0,1.15,2.08,53.81,53.81,0,0,1,9.5,7.61,54.4,54.4,0,1,1-76.91,0,55.23,55.23,0,0,1,9.5-7.61,2.44,2.44,0,0,0,1.15-2.08V79.94a1.23,1.23,0,0,0-1.77-1.1A66.1,66.1,0,0,0,643,137.13c-.43,36.48,29.41,66.79,65.88,66.87a66.09,66.09,0,0,0,29.7-125.14ZM704.1,145.33h9.78a1.23,1.23,0,0,0,1.22-1.22V73.22A1.23,1.23,0,0,0,713.88,72H704.1a1.23,1.23,0,0,0-1.22,1.22v70.89A1.23,1.23,0,0,0,704.1,145.33Z"/></g><g id="curved_path"><polygon class="cls-12" points="1045.66 114.21 1054.73 105.04 1063.8 114.21 1067.7 110.27 1058.63 101.1 1067.7 91.94 1063.8 88 1054.73 97.17 1045.66 88 1041.76 91.94 1050.83 101.1 1041.76 110.27 1045.66 114.21"/><polygon class="cls-12" points="1146.47 197.73 1155.54 206.9 1146.47 216.06 1150.36 220 1159.44 210.83 1168.51 220 1172.41 216.06 1163.33 206.9 1172.41 197.73 1168.51 193.79 1159.44 202.96 1150.36 193.79 1146.47 197.73"/><rect class="cls-12" x="1089.77" y="98.32" width="8.27" height="5.57"/><rect class="cls-12" x="1090.55" y="204.11" width="8.27" height="5.57"/><rect class="cls-12" x="1107.48" y="151.22" width="8.27" height="5.57"/><rect class="cls-12" x="1090.94" y="151.22" width="8.27" height="5.57"/><rect class="cls-12" x="1074.41" y="151.22" width="8.27" height="5.57"/><rect class="cls-12" x="1073.23" y="98.32" width="8.27" height="5.57"/><rect class="cls-12" x="1107.08" y="204.11" width="8.27" height="5.57"/><rect class="cls-12" x="1074.02" y="204.11" width="8.27" height="5.57"/><path class="cls-12" d="M1155.27,148.45l2.59,4.92a29,29,0,0,0,7.26-5.54l-4-3.86A23.53,23.53,0,0,1,1155.27,148.45Z"/><rect class="cls-12" x="1123.62" y="204.11" width="8.27" height="5.57"/><path class="cls-12" d="M1154.33,106.17a23.37,23.37,0,0,1,6.07,4.21l3.79-4a28.8,28.8,0,0,0-7.49-5.2Z"/><rect class="cls-12" x="1122.83" y="98.32" width="8.27" height="5.57"/><path class="cls-12" d="M1170.33,140.3a29.09,29.09,0,0,0,2.63-8.81l-5.46-.74a23.55,23.55,0,0,1-2.12,7.12Z"/><path class="cls-12" d="M1065.77,151.51a28.48,28.48,0,0,0-8.69,2.72l2.44,5a23.1,23.1,0,0,1,7-2.2Z"/><path class="cls-12" d="M1044,193.58a29.15,29.15,0,0,0,5.32,7.46l3.91-3.92a23.6,23.6,0,0,1-4.31-6Z"/><path class="cls-12" d="M1041,180.45a30.73,30.73,0,0,0,.32,4.37l5.45-.82a25,25,0,0,1-.26-3.55,24,24,0,0,1,.32-3.89l-5.44-.92A29.76,29.76,0,0,0,1041,180.45Z"/><rect class="cls-12" x="1124.01" y="151.22" width="8.27" height="5.57"/><path class="cls-12" d="M1164.89,116.29a23.5,23.5,0,0,1,2.44,7l5.43-1a29.14,29.14,0,0,0-3-8.68Z"/><path class="cls-12" d="M1056.69,206.47a28.55,28.55,0,0,0,8.65,2.85l.86-5.5a23,23,0,0,1-7-2.31Z"/><rect class="cls-12" x="1106.3" y="98.32" width="8.27" height="5.57"/><path class="cls-12" d="M1049.66,159.55a29.19,29.19,0,0,0-5.43,7.37l4.89,2.58a23.55,23.55,0,0,1,4.39-6Z"/><path class="cls-12" d="M1139.36,98.32v5.57h4.92a23.74,23.74,0,0,1,3,.19l.69-5.52a29.46,29.46,0,0,0-3.69-.24Z"/><rect class="cls-12" x="1140.15" y="204.11" width="8.27" height="5.57"/><path class="cls-12" d="M1144.28,151.22h-3.74v5.57h3.74a28.83,28.83,0,0,0,5-.43l-.94-5.49A23.22,23.22,0,0,1,1144.28,151.22Z"/></g><g id="triangle_basestation"><path class="cls-4" d="M1243.64,94.49l61.28,97.35a4.93,4.93,0,0,0,8.16,0l61.28-97.35c1.81-2.89-.46-6.49-4.08-6.49H1247.72C1244.09,88,1241.83,91.6,1243.64,94.49Zm116.44,3.23L1309,178.87l-51.07-81.14h102.15Zm-47,64.1,33.59-53.27c1.81-2.88-.46-6.49-4.08-6.49h-67.15c-3.64,0-5.91,3.61-4.08,6.49l33.56,53.27a4.93,4.93,0,0,0,8.16,0Zm-31.53-52.19h54.89L1309,153.17Zm31.53,26.24,8.4-13.3c1.81-2.87-.46-6.45-4.08-6.45H1300.6c-3.62,0-5.88,3.58-4.08,6.45l8.4,13.3a4.95,4.95,0,0,0,8.16,0Zm-8.41-13.3h8.65l-4.33,6.85Z"/></g><g id="grass"><path class="cls-4" d="M1517.06,176.24c6.6-18.6,14.54-44.48,15.91-65.51l-23.91,57.12c6.58-33.22,13.51-67.55,21-80.44-14.16,9.24-23.89,39.54-30,66.39,1-34.74,1.33-77.69-3.13-85.8-3.69,10.52-7.43,53.11-9.93,87.11.38-20.28.41-43.05-.72-58.25-2.21,6.49-5.95,35.35-9,60.89-.39-25.29-1.53-54.48-4.6-64.92-4.35,8.14-7,41.08-6.83,69.07-2.24-19.24-5.84-40.18-11.37-48.2.36,18.76,1.89,40.52,2.17,58.64-4.21-26.11-10-65-11.52-90.73-5.48,24.17-5,51.35-2.77,74.85-6.55-25.6-17.2-54.92-33.25-65.4,7.82,13.47,17.44,48.16,25.33,81.77L1408,110.73c.59,25.65,11.62,58.42,18.37,76.48L1403,140.43c6.69,42.78,17.2,59.57,17.2,59.57h98.46s9.65-16.79,16.34-59.57Z"/></g><g id="exclamation"><path class="cls-4" d="M711,430a71,71,0,1,0,71,71A71,71,0,0,0,711,430Zm0,130a59,59,0,1,1,59-59A59,59,0,0,1,711,560Z"/><path class="cls-4" d="M703.39,528.89a7.61,7.61,0,1,0,7.61-7.61A7.61,7.61,0,0,0,703.39,528.89Zm3.8-17.75h7.61a1.27,1.27,0,0,0,1.27-1.27V466.77a1.27,1.27,0,0,0-1.27-1.27H707.2a1.27,1.27,0,0,0-1.27,1.27v43.11A1.27,1.27,0,0,0,707.2,511.14Z"/></g><g id="pause-2" data-name="pause"><path class="cls-4" d="M895,75a66,66,0,1,0,66,66A66,66,0,0,0,895,75Zm0,120.8A54.8,54.8,0,1,1,949.8,141,54.81,54.81,0,0,1,895,195.8Zm-13-78.38H875a1.18,1.18,0,0,0-1.18,1.18v44.79a1.18,1.18,0,0,0,1.18,1.18H882a1.18,1.18,0,0,0,1.18-1.18V118.61A1.18,1.18,0,0,0,882,117.43Zm33,0H908a1.18,1.18,0,0,0-1.18,1.18v44.79a1.18,1.18,0,0,0,1.18,1.18H915a1.18,1.18,0,0,0,1.18-1.18V118.61A1.18,1.18,0,0,0,915,117.43Z"/></g></svg>