<?xml version="1.0" encoding="iso-8859-1"?>
<!-- Generator: Adobe Illustrator 21.0.0, SVG Export Plug-In . SVG Version: 6.00 Build 0)  -->
<svg version="1.1" xmlns="http://www.w3.org/2000/svg" xmlns:xlink="http://www.w3.org/1999/xlink" x="0px" y="0px"
	 viewBox="0 0 132 132" style="enable-background:new 0 0 132 132;" xml:space="preserve">
<g id="grass">
	<path style="fill:#FFFFFF;" d="M114.056,108.24c6.603-18.597,14.542-44.485,15.91-65.514l-23.908,57.121
		c6.578-33.222,13.511-67.553,20.988-80.435c-14.158,9.237-23.889,39.541-29.958,66.386C98.125,51.058,98.417,8.105,93.958,0
		c-3.686,10.521-7.43,53.113-9.931,87.107c0.375-20.285,0.412-43.053-0.719-58.251c-2.206,6.49-5.946,35.346-8.958,60.893
		c-0.392-25.285-1.528-54.478-4.595-64.922c-4.349,8.143-6.978,41.083-6.826,69.068c-2.235-19.244-5.836-40.18-11.365-48.199
		c0.362,18.759,1.891,40.525,2.166,58.641c-4.209-26.109-9.975-64.983-11.516-90.735c-5.481,24.168-5.025,51.354-2.766,74.854
		C32.9,62.861,22.251,33.534,6.198,23.06c7.82,13.474,17.443,48.157,25.331,81.774L4.953,42.726
		c0.588,25.651,11.62,58.416,18.37,76.479L0,72.432C6.692,115.209,17.201,132,17.201,132h98.458c0,0,9.648-16.791,16.341-59.568
		L114.056,108.24z"/>
</g>
<g id="Layer_1">
</g>
</svg>
