<?xml version="1.0" encoding="iso-8859-1"?>
<!-- Generator: Adobe Illustrator 21.0.0, SVG Export Plug-In . SVG Version: 6.00 Build 0)  -->
<svg version="1.1" xmlns="http://www.w3.org/2000/svg" xmlns:xlink="http://www.w3.org/1999/xlink" x="0px" y="0px"
	 viewBox="0 0 134.122 134.843" style="enable-background:new 0 0 134.122 134.843;" xml:space="preserve">
<g id="curved_x5F_path">
	<g>
		<polygon style="fill:#FFFFFF;stroke:#FFFFFF;stroke-width:2;stroke-miterlimit:10;" points="-610.296,528.787 -601.223,519.619 
			-592.149,528.787 -588.253,524.85 -597.327,515.683 -588.253,506.515 -592.149,502.578 -601.223,511.746 -610.296,502.578 
			-614.193,506.515 -605.119,515.683 -614.193,524.85 		"/>
		<polygon style="fill:#FFFFFF;stroke:#FFFFFF;stroke-width:2;stroke-miterlimit:10;" points="-509.485,612.307 -500.412,621.474 
			-509.485,630.642 -505.589,634.578 -496.516,625.411 -487.442,634.578 -483.546,630.642 -492.619,621.474 -483.546,612.307 
			-487.442,608.37 -496.516,617.538 -505.589,608.37 		"/>
		
			<rect x="-566.187" y="512.899" style="fill:#FFFFFF;stroke:#FFFFFF;stroke-width:2;stroke-miterlimit:10;" width="8.266" height="5.568"/>
		
			<rect x="-565.402" y="618.69" style="fill:#FFFFFF;stroke:#FFFFFF;stroke-width:2;stroke-miterlimit:10;" width="8.266" height="5.568"/>
		
			<rect x="-548.475" y="565.794" style="fill:#FFFFFF;stroke:#FFFFFF;stroke-width:2;stroke-miterlimit:10;" width="8.266" height="5.568"/>
		
			<rect x="-565.008" y="565.794" style="fill:#FFFFFF;stroke:#FFFFFF;stroke-width:2;stroke-miterlimit:10;" width="8.266" height="5.568"/>
		
			<rect x="-581.541" y="565.794" style="fill:#FFFFFF;stroke:#FFFFFF;stroke-width:2;stroke-miterlimit:10;" width="8.266" height="5.568"/>
		
			<rect x="-582.72" y="512.899" style="fill:#FFFFFF;stroke:#FFFFFF;stroke-width:2;stroke-miterlimit:10;" width="8.266" height="5.568"/>
		
			<rect x="-548.869" y="618.69" style="fill:#FFFFFF;stroke:#FFFFFF;stroke-width:2;stroke-miterlimit:10;" width="8.266" height="5.568"/>
		
			<rect x="-581.935" y="618.69" style="fill:#FFFFFF;stroke:#FFFFFF;stroke-width:2;stroke-miterlimit:10;" width="8.266" height="5.568"/>
		<path style="fill:#FFFFFF;stroke:#FFFFFF;stroke-width:2;stroke-miterlimit:10;" d="M-500.679,563.033l2.587,4.917
			c2.695-1.451,5.136-3.313,7.258-5.54l-3.971-3.861C-496.521,560.349-498.499,561.858-500.679,563.033z"/>
		
			<rect x="-532.336" y="618.69" style="fill:#FFFFFF;stroke:#FFFFFF;stroke-width:2;stroke-miterlimit:10;" width="8.266" height="5.568"/>
		<path style="fill:#FFFFFF;stroke:#FFFFFF;stroke-width:2;stroke-miterlimit:10;" d="M-501.619,520.747
			c2.232,1.072,4.271,2.492,6.068,4.215l3.794-4.037c-2.218-2.13-4.739-3.881-7.495-5.203L-501.619,520.747z"/>
		
			<rect x="-533.122" y="512.899" style="fill:#FFFFFF;stroke:#FFFFFF;stroke-width:2;stroke-miterlimit:10;" width="8.266" height="5.568"/>
		<path style="fill:#FFFFFF;stroke:#FFFFFF;stroke-width:2;stroke-miterlimit:10;" d="M-485.626,554.876
			c1.336-2.781,2.221-5.741,2.626-8.806l-5.461-0.741c-0.328,2.475-1.042,4.866-2.122,7.116L-485.626,554.876z"/>
		<path style="fill:#FFFFFF;stroke:#FFFFFF;stroke-width:2;stroke-miterlimit:10;" d="M-590.184,566.087
			c-3.031,0.437-5.955,1.35-8.693,2.72l2.444,4.992c2.215-1.105,4.577-1.846,7.026-2.199L-590.184,566.087z"/>
		<path style="fill:#FFFFFF;stroke:#FFFFFF;stroke-width:2;stroke-miterlimit:10;" d="M-611.922,608.161
			c1.37,2.751,3.158,5.262,5.318,7.458l3.913-3.923c-1.75-1.779-3.199-3.811-4.307-6.036L-611.922,608.161z"/>
		<path style="fill:#FFFFFF;stroke:#FFFFFF;stroke-width:2;stroke-miterlimit:10;" d="M-615,595.032
			c0.003,1.464,0.113,2.934,0.322,4.368l5.45-0.821c-0.171-1.166-0.259-2.364-0.262-3.552c0-1.311,0.107-2.62,0.317-3.892
			l-5.436-0.919C-614.868,591.791-615,593.409-615,595.032z"/>
		
			<rect x="-531.942" y="565.794" style="fill:#FFFFFF;stroke:#FFFFFF;stroke-width:2;stroke-miterlimit:10;" width="8.266" height="5.568"/>
		<path style="fill:#FFFFFF;stroke:#FFFFFF;stroke-width:2;stroke-miterlimit:10;" d="M-491.065,530.869
			c1.179,2.194,2.003,4.555,2.441,7.013l5.426-0.991c-0.546-3.043-1.562-5.963-3.023-8.678L-491.065,530.869z"/>
		<path style="fill:#FFFFFF;stroke:#FFFFFF;stroke-width:2;stroke-miterlimit:10;" d="M-599.264,621.045
			c2.722,1.411,5.635,2.372,8.652,2.854l0.86-5.501c-2.441-0.39-4.794-1.164-6.999-2.308L-599.264,621.045z"/>
		
			<rect x="-549.654" y="512.899" style="fill:#FFFFFF;stroke:#FFFFFF;stroke-width:2;stroke-miterlimit:10;" width="8.266" height="5.568"/>
		<path style="fill:#FFFFFF;stroke:#FFFFFF;stroke-width:2;stroke-miterlimit:10;" d="M-606.296,574.124
			c-2.188,2.16-4.015,4.641-5.428,7.375l4.885,2.578c1.141-2.211,2.62-4.218,4.395-5.969L-606.296,574.124z"/>
		<path style="fill:#FFFFFF;stroke:#FFFFFF;stroke-width:2;stroke-miterlimit:10;" d="M-516.589,512.899v5.568h4.916
			c1.006,0.003,2.014,0.064,2.995,0.192l0.694-5.523c-1.21-0.156-2.45-0.234-3.687-0.237H-516.589z"/>
		
			<rect x="-515.804" y="618.69" style="fill:#FFFFFF;stroke:#FFFFFF;stroke-width:2;stroke-miterlimit:10;" width="8.266" height="5.568"/>
		<path style="fill:#FFFFFF;stroke:#FFFFFF;stroke-width:2;stroke-miterlimit:10;" d="M-511.671,565.794h-3.739v5.568h3.739
			c1.67,0,3.345-0.145,4.976-0.432l-0.942-5.487C-508.959,565.678-510.315,565.794-511.671,565.794z"/>
	</g>
</g>
<g id="Layer_1">
</g>
</svg>
