<svg id="Layer_1" data-name="Layer 1" xmlns="http://www.w3.org/2000/svg" viewBox="0 0 60.66 83.37"><defs><style>.cls-1{fill:#5d6771;}</style></defs><title>hand</title><path class="cls-1" d="M51,32.57a1.7,1.7,0,0,1-1.53-2.45l4.63-9.48-2.16-3.43a1.72,1.72,0,0,1-.08-1.68l2.07-4A3.65,3.65,0,0,1,56.63,6l.42,0a3.65,3.65,0,0,1,.42,7.27l-.42,0h-.21l-1.51,3,2.15,3.42a1.72,1.72,0,0,1,.09,1.66L52.52,31.62A1.69,1.69,0,0,1,51,32.57Zm5.85-23.2a.24.24,0,0,0-.16.09.23.23,0,0,0,0,.18.24.24,0,0,0,.24.21A.26.26,0,0,0,57,9.76a.23.23,0,0,0,0-.18.24.24,0,0,0-.24-.21Z" transform="translate(-10.14 -0.98)"/><path class="cls-1" d="M55,20.59l-4.83,9.88a.9.9,0,0,0,1.63.8l5.05-10.33a.9.9,0,0,0,0-.88l-2.4-3.8,2-3.88a2.83,2.83,0,0,0,.66.09l.33,0a2.85,2.85,0,0,0-.33-5.68l-.33,0a2.84,2.84,0,0,0-1.87,4.63l-2.29,4.47a.91.91,0,0,0,0,.89Zm1.73-12a1,1,0,1,1-.91,1.15A1,1,0,0,1,56.74,8.58Z" transform="translate(-10.14 -0.98)"/><path class="cls-1" d="M27.86,62a1.71,1.71,0,0,1-1.7-1.7V53.71l-7.71-10a1.7,1.7,0,1,1,2.7-2.08l8.07,10.5a1.72,1.72,0,0,1,.35,1v7.15A1.71,1.71,0,0,1,27.86,62Z" transform="translate(-10.14 -0.98)"/><path class="cls-1" d="M20.51,42.07a.9.9,0,0,0-1.43,1.1L27,53.44v6.84a.9.9,0,0,0,1.81,0V53.13a.91.91,0,0,0-.19-.55Z" transform="translate(-10.14 -0.98)"/><path class="cls-1" d="M46.19,43.6a1.71,1.71,0,0,1-1.48-.85L41.9,38H35.36a1.7,1.7,0,1,1,0-3.41h7.52a1.71,1.71,0,0,1,1.48.85L47.66,41a1.7,1.7,0,0,1-1.47,2.56Z" transform="translate(-10.14 -0.98)"/><path class="cls-1" d="M42.36,37.16l3,5.19a.9.9,0,1,0,1.57-.9l-3.31-5.64a.9.9,0,0,0-.78-.45H35.36a.9.9,0,0,0,0,1.81Z" transform="translate(-10.14 -0.98)"/><path class="cls-1" d="M35.08,51.26a1.71,1.71,0,0,1-1.48-.85l-3.82-6.52a1.7,1.7,0,1,1,3-1.71l3.32,5.68h7.42a1.7,1.7,0,0,1,0,3.41Z" transform="translate(-10.14 -0.98)"/><path class="cls-1" d="M35.08,50.46h8.4a.9.9,0,1,0,0-1.81H35.61L32,42.58a.9.9,0,0,0-1.57.9L34.3,50A.9.9,0,0,0,35.08,50.46Z" transform="translate(-10.14 -0.98)"/><path class="cls-1" d="M27.58,32.2a1.71,1.71,0,0,1-1.6-1.1l-3-7.93A1.7,1.7,0,0,1,26.2,22l3,7.93a1.71,1.71,0,0,1-1.6,2.3Z" transform="translate(-10.14 -0.98)"/><path class="cls-1" d="M27.58,31.4a.9.9,0,0,0,.85-1.22l-3-7.93a.9.9,0,0,0-1.69.64l3,7.93A.9.9,0,0,0,27.58,31.4Z" transform="translate(-10.14 -0.98)"/><path class="cls-1" d="M39.24,84.35a1.71,1.71,0,0,1-1.7-1.71V55.79H34.38V74.38a1.7,1.7,0,1,1-3.41,0V54.08a1.71,1.71,0,0,1,1.7-1.7H44.94L46.88,49a3.64,3.64,0,0,1,2.78-5.36l.32,0,.59-1-5.64-9.77H33.65l-6.1,10.57a1.49,1.49,0,0,1-.43.56,1.7,1.7,0,0,1-2.4-.22l-4.55-5.48A1.71,1.71,0,0,1,19.78,37L20,34.65l-5.21-5.71a3.42,3.42,0,0,1-.62.13l-.42,0a3.65,3.65,0,0,1-.42-7.27l.42,0a3.65,3.65,0,0,1,3.48,4.75l5.81,6.37a1.71,1.71,0,0,1,.44,1.33l-.26,2.4,2.52,3,5.11-8.85L27,20.05l-4-.84a1.72,1.72,0,0,1-1.26-1.12l-1.45-4.28a3.63,3.63,0,0,1-.15-7.08l.33-.07.17,0,.5,0a3.64,3.64,0,0,1,2.88,5.86,3.7,3.7,0,0,1-.27.32l-.15.15,1.07,3.15,4,.84A1.72,1.72,0,0,1,29.93,18L34,29.43h1.48V17.92a1.7,1.7,0,0,1,3.41,0V29.43h.92V16.75L36.4,15a1.7,1.7,0,0,1-.92-1.51V7.84A3.64,3.64,0,0,1,36.76,1l.42,0a3.65,3.65,0,0,1,1.7,6.87v4.58L42.3,14.2a1.7,1.7,0,0,1,.92,1.51V29.43H44.8c.67-1.58,2-4.32,4.71-9.66l.13-.24a1.74,1.74,0,0,1,1.52-.87,1.64,1.64,0,0,1,.74.17,1.7,1.7,0,0,1,.76,2.29l-.05.1c-.24.46-3.59,7.4-4.75,9.84L54,41.76a1.71,1.71,0,0,1,0,1.7l-1,1.7a3.58,3.58,0,0,1,.5,1h1.77l3-2.74a1.71,1.71,0,0,1,2.29,2.53l-3.51,3.18a1.7,1.7,0,0,1-1.14.44H53v0a3.63,3.63,0,0,1-2.44,1.36l-.42,0-.36,0-2.2,3.81v2.58l5.81-2.62,10.41-9.8a3.55,3.55,0,0,1-.21-.85,3.65,3.65,0,0,1,3.2-4l.42,0a3.65,3.65,0,0,1,.42,7.27l-.42,0a3.6,3.6,0,0,1-.86-.1L55.46,57.36a1.68,1.68,0,0,1-.47.31L47.52,61v6.76a1.7,1.7,0,0,1-3.41,0v-12H40.95V82.64A1.71,1.71,0,0,1,39.24,84.35ZM50.06,47a.24.24,0,0,0-.16.09.23.23,0,0,0,0,.18.24.24,0,0,0,.24.21.26.26,0,0,0,.19-.09.24.24,0,0,0-.19-.39Zm17.07-3.68a.24.24,0,0,0,0,.48.26.26,0,0,0,.19-.09.23.23,0,0,0,0-.18.24.24,0,0,0-.24-.21ZM13.76,25.2a.24.24,0,0,0,0,.48.25.25,0,0,0,.24-.27.24.24,0,0,0-.24-.21ZM21.1,10a.24.24,0,0,0,0,.48.25.25,0,0,0,.24-.27.24.24,0,0,0-.24-.21ZM37.16,4.39a.24.24,0,0,0-.16.09.24.24,0,0,0,0,.18.24.24,0,0,0,.24.21.25.25,0,0,0,.24-.27.24.24,0,0,0-.24-.21Z" transform="translate(-10.14 -0.98)"/><path class="cls-1" d="M70,43.28a2.85,2.85,0,0,0-2.83-2.52l-.33,0a2.83,2.83,0,0,0-2.11,4.28L53.78,55.36l-7.06,3.19v-4L49.31,50a2.82,2.82,0,0,0,.77.12l.33,0a2.68,2.68,0,0,0,2.11-1.38H56a.9.9,0,0,0,.61-.23l3.51-3.18A.9.9,0,0,0,58.86,44l-3.25,2.94H52.91a2.83,2.83,0,0,0-.84-1.67l1.26-2.19a.91.91,0,0,0,0-.9L46.94,31.09c.89-1.87,4.67-9.72,5-10.27l0-.06a.9.9,0,0,0-.41-1.21A.94.94,0,0,0,50.3,20l-.06.12c-2.93,5.86-4.35,8.69-4.9,10.14H42.42V15.71a.91.91,0,0,0-.49-.8l-3.84-2V7.32a2.85,2.85,0,0,0-.9-5.55l-.33,0a2.84,2.84,0,0,0-.58,5.52v6.14a.91.91,0,0,0,.49.8l3.84,2v14H38.09V17.92a.9.9,0,1,0-1.81,0V30.23H33.44l-4.26-12a.9.9,0,0,0-.66-.58l-4.4-.93-1.4-4.13a2.82,2.82,0,0,0,.52-.41l.22-.25a2.84,2.84,0,0,0-2.6-4.56H20.8l-.11,0-.28.06A2.84,2.84,0,0,0,21,13.09l1.61,4.75a.91.91,0,0,0,.67.59l4.41.93,4.11,11.54L25.89,41.07,22.42,36.9l.3-2.73a.9.9,0,0,0-.23-.71l-6.15-6.74a2.85,2.85,0,0,0-2.55-4.12l-.33,0a2.85,2.85,0,0,0,.33,5.68l.33,0A2.84,2.84,0,0,0,15,28l5.83,6.39-.29,2.71a.91.91,0,0,0,.2.68l4.56,5.48a.9.9,0,0,0,1.27.12.88.88,0,0,0,.24-.35l6.33-11H45.4l6.1,10.57-1.07,1.86a2.82,2.82,0,0,0-.34,0l-.33,0A2.84,2.84,0,0,0,47.81,49L45.4,53.18H32.67a.9.9,0,0,0-.9.9v20.3a.9.9,0,0,0,1.81,0V55h4.76V82.64a.9.9,0,1,0,1.81,0V55h4.76V67.81a.9.9,0,1,0,1.81,0V60.53l7.94-3.59a.89.89,0,0,0,.25-.17L66.09,46.25a2.83,2.83,0,0,0,1.06.21l.33,0A2.85,2.85,0,0,0,70,43.28ZM37.31,5.66a1,1,0,1,1,.91-1.15A1,1,0,0,1,37.31,5.66ZM21.25,11.29a1,1,0,1,1,.91-1.15A1,1,0,0,1,21.25,11.29ZM13.91,26.48h-.12a1,1,0,0,1-.12-2.07h.12a1,1,0,0,1,.12,2.07ZM50,46.25h.12a1,1,0,0,1,.12,2.07h-.12A1,1,0,0,1,50,46.25Zm17.31-1.61h-.12A1,1,0,0,1,67,42.58h.12a1,1,0,0,1,.12,2.07Z" transform="translate(-10.14 -0.98)"/></svg>