<svg id="Layer_1" data-name="Layer 1" xmlns="http://www.w3.org/2000/svg" viewBox="0 0 59.06 81.77"><defs><style>.cls-1{fill:#5d6771;}</style></defs><title>hand</title><path class="cls-1" d="M55,19.59l-4.83,9.88a.9.9,0,0,0,1.63.8l5.05-10.33a.9.9,0,0,0,0-.88l-2.4-3.8,2-3.88a2.83,2.83,0,0,0,.66.09l.33,0a2.85,2.85,0,0,0-.33-5.68l-.33,0a2.84,2.84,0,0,0-1.87,4.63l-2.29,4.47a.91.91,0,0,0,0,.89Zm1.73-12a1,1,0,1,1-.91,1.15A1,1,0,0,1,56.74,7.58Z" transform="translate(-10.94 -0.77)"/><path class="cls-1" d="M20.51,41.07a.9.9,0,0,0-1.43,1.1L27,52.44v6.84a.9.9,0,0,0,1.81,0V52.13a.91.91,0,0,0-.19-.55Z" transform="translate(-10.94 -0.77)"/><path class="cls-1" d="M42.36,36.16l3,5.19a.9.9,0,1,0,1.57-.9l-3.31-5.64a.9.9,0,0,0-.78-.45H35.36a.9.9,0,0,0,0,1.81Z" transform="translate(-10.94 -0.77)"/><path class="cls-1" d="M35.08,49.46h8.4a.9.9,0,1,0,0-1.81H35.61L32,41.58a.9.9,0,0,0-1.57.9L34.3,49A.9.9,0,0,0,35.08,49.46Z" transform="translate(-10.94 -0.77)"/><path class="cls-1" d="M27.58,30.4a.9.9,0,0,0,.85-1.22l-3-7.93a.9.9,0,0,0-1.69.64l3,7.93A.9.9,0,0,0,27.58,30.4Z" transform="translate(-10.94 -0.77)"/><path class="cls-1" d="M70,42.28a2.85,2.85,0,0,0-2.83-2.52l-.33,0a2.83,2.83,0,0,0-2.11,4.28L53.78,54.36l-7.06,3.19v-4L49.31,49a2.82,2.82,0,0,0,.77.12l.33,0a2.68,2.68,0,0,0,2.11-1.38H56a.9.9,0,0,0,.61-.23l3.51-3.18A.9.9,0,0,0,58.86,43l-3.25,2.94H52.91a2.83,2.83,0,0,0-.84-1.67l1.26-2.19a.91.91,0,0,0,0-.9L46.94,30.09c.89-1.87,4.67-9.72,5-10.27l0-.06a.9.9,0,0,0-.41-1.21A.94.94,0,0,0,50.3,19l-.06.12c-2.93,5.86-4.35,8.69-4.9,10.14H42.42V14.71a.91.91,0,0,0-.49-.8l-3.84-2V6.32a2.85,2.85,0,0,0-.9-5.55l-.33,0a2.84,2.84,0,0,0-.58,5.52v6.14a.91.91,0,0,0,.49.8l3.84,2v14H38.09V16.92a.9.9,0,1,0-1.81,0V29.23H33.44l-4.26-12a.9.9,0,0,0-.66-.58l-4.4-.93-1.4-4.13a2.82,2.82,0,0,0,.52-.41l.22-.25a2.84,2.84,0,0,0-2.6-4.56H20.8l-.11,0-.28.06A2.84,2.84,0,0,0,21,12.09l1.61,4.75a.91.91,0,0,0,.67.59l4.41.93,4.11,11.54L25.89,40.07,22.42,35.9l.3-2.73a.9.9,0,0,0-.23-.71l-6.15-6.74a2.85,2.85,0,0,0-2.55-4.12l-.33,0a2.85,2.85,0,0,0,.33,5.68l.33,0A2.84,2.84,0,0,0,15,27l5.83,6.39-.29,2.71a.91.91,0,0,0,.2.68l4.56,5.48a.9.9,0,0,0,1.27.12.88.88,0,0,0,.24-.35l6.33-11H45.4l6.1,10.57-1.07,1.86a2.82,2.82,0,0,0-.34,0l-.33,0A2.84,2.84,0,0,0,47.81,48L45.4,52.18H32.67a.9.9,0,0,0-.9.9v20.3a.9.9,0,0,0,1.81,0V54h4.76V81.64a.9.9,0,1,0,1.81,0V54h4.76V66.81a.9.9,0,1,0,1.81,0V59.53l7.94-3.59a.89.89,0,0,0,.25-.17L66.09,45.25a2.83,2.83,0,0,0,1.06.21l.33,0A2.85,2.85,0,0,0,70,42.28ZM37.31,4.66a1,1,0,1,1,.91-1.15A1,1,0,0,1,37.31,4.66ZM21.25,10.29a1,1,0,1,1,.91-1.15A1,1,0,0,1,21.25,10.29ZM13.91,25.48h-.12a1,1,0,0,1-.12-2.07h.12a1,1,0,0,1,.12,2.07ZM50,45.25h.12a1,1,0,0,1,.12,2.07h-.12A1,1,0,0,1,50,45.25Zm17.31-1.61h-.12A1,1,0,0,1,67,41.58h.12a1,1,0,0,1,.12,2.07Z" transform="translate(-10.94 -0.77)"/></svg>