<?xml version="1.0" encoding="iso-8859-1"?>
<!-- Generator: Adobe Illustrator 21.1.0, SVG Export Plug-In . SVG Version: 6.00 Build 0)  -->
<svg version="1.1" xmlns="http://www.w3.org/2000/svg" xmlns:xlink="http://www.w3.org/1999/xlink" x="0px" y="0px"
	 viewBox="0 0 132 132" width="132" height="132" style="enable-background:new 0 0 132 132;" xml:space="preserve">
<g id="inventory_x5F_pin">
	<g>
		<g>
			<path style="fill:#5D6771;" d="M66,130.5c-35.565,0-64.5-28.935-64.5-64.5S30.435,1.5,66,1.5s64.5,28.935,64.5,64.5
				S101.565,130.5,66,130.5z"/>
			<path style="fill:#FFFFFF;" d="M66,3c34.738,0,63,28.262,63,63s-28.262,63-63,63S3,100.738,3,66S31.262,3,66,3 M66,0
				C29.549,0,0,29.549,0,66s29.549,66,66,66s66-29.549,66-66S102.451,0,66,0L66,0z"/>
		</g>
	</g>
	<g>
		<path style="fill:#FFFFFF;" d="M31.722,108.3c-1.115,0-2.021-0.906-2.021-2.021V30.196c0-1.115,0.906-2.022,2.021-2.022h14.927
			c0.784,0,1.422-0.638,1.422-1.422v-2.236c0-1.115,0.907-2.022,2.022-2.022h4.508c0.784,0,1.423-0.638,1.423-1.422v-2.429
			c0-1.115,0.906-2.022,2.021-2.022h16.619c1.115,0,2.022,0.907,2.022,2.022v2.429c0,0.784,0.638,1.422,1.422,1.422h4.509
			c1.115,0,2.021,0.907,2.021,2.022v2.236c0,0.784,0.639,1.422,1.423,1.422h14.926c1.115,0,2.022,0.907,2.022,2.022v76.082
			c0,1.115-0.907,2.021-2.022,2.021H31.722z M33.994,31.035c-0.784,0-1.422,0.638-1.422,1.422v71.537
			c0,0.784,0.638,1.423,1.422,1.423h64.721c0.784,0,1.423-0.639,1.423-1.423V32.457c0-0.784-0.639-1.422-1.423-1.422H86.062
			c-0.784,0-1.423,0.638-1.423,1.422v5.451c0,1.115-0.906,2.022-2.021,2.022H50.093c-1.115,0-2.022-0.907-2.022-2.022v-5.451
			c0-0.784-0.638-1.422-1.422-1.422H33.994z M52.365,25.354c-0.784,0-1.423,0.638-1.423,1.422v8.871
			c0,0.784,0.639,1.422,1.423,1.422h27.979c0.784,0,1.422-0.638,1.422-1.422v-8.869c0-0.784-0.639-1.422-1.423-1.422l-4.505,0.007
			c-1.116,0-2.024-0.907-2.024-2.022v-2.427c0-0.784-0.639-1.422-1.423-1.422H60.317c-0.784,0-1.422,0.638-1.422,1.422v2.417
			c0,1.115-0.907,2.022-2.022,2.022H52.365z"/>
		<path style="fill:#FFFFFF;" d="M56.323,18.642v2.429c0,0.951-0.771,1.722-1.722,1.722h-4.508c-0.951,0-1.722,0.771-1.722,1.722
			v2.236c0,0.951-0.771,1.722-1.722,1.722H31.722c-0.951,0-1.722,0.771-1.722,1.722v76.082c0,0.951,0.771,1.722,1.722,1.722h69.265
			c0.951,0,1.722-0.771,1.722-1.722V30.196c0-0.951-0.771-1.722-1.722-1.722H86.061c-0.951,0-1.722-0.771-1.722-1.722v-2.236
			c0-0.951-0.771-1.722-1.722-1.722h-4.508c-0.951,0-1.722-0.771-1.722-1.722v-2.429c0-0.951-0.771-1.722-1.722-1.722H58.045
			C57.094,16.92,56.323,17.691,56.323,18.642z M100.437,32.457v71.537c0,0.951-0.771,1.722-1.722,1.722H33.994
			c-0.951,0-1.722-0.771-1.722-1.722V32.457c0-0.951,0.771-1.722,1.722-1.722h12.654c0.951,0,1.722,0.771,1.722,1.722v5.451
			c0,0.951,0.771,1.722,1.722,1.722h32.524c0.951,0,1.722-0.771,1.722-1.722v-5.451c0-0.951,0.771-1.722,1.722-1.722h12.654
			C99.666,30.735,100.437,31.506,100.437,32.457z M82.067,26.779v8.868c0,0.951-0.771,1.722-1.722,1.722h-27.98
			c-0.951,0-1.722-0.771-1.722-1.722v-8.871c0-0.951,0.771-1.722,1.722-1.722h4.508c0.951,0,1.722-0.771,1.722-1.722v-2.418
			c0-0.951,0.771-1.722,1.722-1.722h12.075c0.951,0,1.722,0.771,1.722,1.722v2.427c0,0.952,0.773,1.724,1.725,1.722l4.503-0.006
			C81.294,25.055,82.067,25.827,82.067,26.779z"/>
		<rect x="43.333" y="70.766" style="fill:#FFFFFF;" width="46.043" height="2.872"/>
		<rect x="43.633" y="71.066" style="fill:#FFFFFF;" width="45.443" height="2.272"/>
		<rect x="43.333" y="55.997" style="fill:#FFFFFF;" width="30.138" height="2.872"/>
		<rect x="43.633" y="56.297" style="fill:#FFFFFF;" width="29.538" height="2.272"/>
		<rect x="43.333" y="84.399" style="fill:#FFFFFF;" width="46.043" height="2.871"/>
		<rect x="43.633" y="84.699" style="fill:#FFFFFF;" width="45.443" height="2.272"/>
	</g>
</g>
<g id="Layer_1">
</g>
</svg>
