<?xml version="1.0" encoding="iso-8859-1"?>
<!-- Generator: Adobe Illustrator 21.1.0, SVG Export Plug-In . SVG Version: 6.00 Build 0)  -->
<svg version="1.1" xmlns="http://www.w3.org/2000/svg" xmlns:xlink="http://www.w3.org/1999/xlink" x="0px" y="0px"
	 viewBox="0 0 132 132" style="enable-background:new 0 0 132 132;" xml:space="preserve">
<g id="left_x5F_hand_x5F_pin">
	<g>
		<g>
			<path style="fill:#5D6771;" d="M66,130.5c-35.565,0-64.5-28.935-64.5-64.5S30.435,1.5,66,1.5s64.5,28.935,64.5,64.5
				S101.565,130.5,66,130.5z"/>
			<path style="fill:#FFFFFF;" d="M66,3c34.738,0,63,28.262,63,63s-28.262,63-63,63S3,100.738,3,66S31.262,3,66,3 M66,0
				C29.549,0,0,29.549,0,66s29.549,66,66,66s66-29.549,66-66S102.451,0,66,0L66,0z"/>
		</g>
	</g>
	<g>
		<path style="fill:#FFFFFF;" d="M87.144,38.792l-6.539,13.37c-0.297,0.607-0.045,1.341,0.563,1.638
			c0.172,0.084,0.355,0.124,0.536,0.124c0.454,0,0.889-0.252,1.102-0.686l6.839-13.983c0.186-0.381,0.163-0.832-0.064-1.191
			l-3.242-5.145l2.683-5.251c0.287,0.068,0.581,0.115,0.887,0.115c0.148,0,0.297-0.008,0.448-0.026
			c1.023-0.119,1.938-0.63,2.578-1.437c0.639-0.808,0.925-1.816,0.806-2.839c-0.227-1.944-1.873-3.409-3.828-3.409
			c-0.148,0-0.298,0.009-0.448,0.026c-1.023,0.119-1.938,0.63-2.577,1.437c-0.64,0.808-0.926,1.816-0.807,2.839
			c0.089,0.759,0.399,1.441,0.854,1.996l-3.094,6.055c-0.196,0.385-0.175,0.844,0.054,1.21L87.144,38.792z M89.489,22.53
			c0.772-0.09,1.471,0.463,1.561,1.235c0.09,0.772-0.463,1.471-1.235,1.561s-1.471-0.463-1.561-1.235
			C88.165,23.319,88.717,22.62,89.489,22.53z"/>
		<path style="fill:#FFFFFF;" d="M40.458,67.865c-0.41-0.535-1.178-0.638-1.717-0.225c-0.536,0.412-0.636,1.18-0.225,1.717
			l10.666,13.888v9.261c0,0.676,0.548,1.224,1.224,1.224c0.676,0,1.224-0.548,1.224-1.224v-9.677c0-0.269-0.089-0.532-0.253-0.746
			L40.458,67.865z"/>
		<path style="fill:#FFFFFF;" d="M70.027,61.218l4.127,7.02c0.226,0.393,0.638,0.612,1.062,0.612c0.207,0,0.418-0.053,0.611-0.164
			c0.585-0.338,0.786-1.086,0.448-1.672l-4.481-7.632c-0.218-0.379-0.623-0.612-1.06-0.612H60.551c-0.676,0-1.224,0.548-1.224,1.224
			s0.548,1.224,1.224,1.224H70.027z"/>
		<path style="fill:#FFFFFF;" d="M60.182,79.218h11.369c0.676,0,1.224-0.548,1.224-1.224s-0.548-1.224-1.224-1.224H60.889
			l-4.817-8.224c-0.336-0.585-1.084-0.789-1.672-0.448c-0.585,0.338-0.786,1.086-0.448,1.672l5.171,8.836
			C59.341,78.984,59.746,79.218,60.182,79.218z"/>
		<path style="fill:#FFFFFF;" d="M50.026,53.419c0.143,0,0.289-0.025,0.43-0.078c0.633-0.238,0.953-0.944,0.716-1.577l-4.03-10.733
			c-0.239-0.633-0.944-0.955-1.577-0.716c-0.633,0.238-0.953,0.944-0.716,1.577l4.03,10.733
			C49.065,53.116,49.53,53.419,50.026,53.419z"/>
		<path style="fill:#FFFFFF;" d="M107.411,69.498c-0.227-1.944-1.873-3.409-3.828-3.409c-0.148,0-0.298,0.009-0.448,0.026
			c-1.023,0.119-1.938,0.63-2.578,1.437c-0.639,0.808-0.925,1.816-0.806,2.839c0.065,0.556,0.256,1.065,0.527,1.519L85.48,85.846
			l-9.552,4.315v-5.462l3.511-6.082c0.333,0.094,0.678,0.159,1.04,0.159c0.148,0,0.298-0.008,0.448-0.026
			c1.023-0.119,1.938-0.63,2.578-1.437c0.109-0.137,0.192-0.287,0.28-0.435h4.658c0.304,0,0.598-0.113,0.823-0.317l4.744-4.301
			c0.501-0.454,0.539-1.228,0.084-1.73c-0.454-0.501-1.229-0.539-1.73-0.085l-4.393,3.984h-3.67
			c-0.115-0.892-0.533-1.674-1.138-2.263l1.711-2.964c0.218-0.379,0.218-0.846,0-1.224l-8.648-14.981
			c1.199-2.534,6.325-13.153,6.716-13.904c0.014-0.025,0.029-0.05,0.041-0.076c0.303-0.605,0.057-1.34-0.548-1.643
			c-0.593-0.3-1.35-0.014-1.661,0.579c-0.003,0.006-0.078,0.156-0.081,0.162c-3.964,7.929-5.882,11.768-6.636,13.719h-3.946V32.184
			c0-0.457-0.255-0.876-0.66-1.086l-5.203-2.702v-7.561c0.705-0.234,1.328-0.665,1.8-1.261c0.64-0.808,0.926-1.816,0.807-2.839
			c-0.227-1.944-1.873-3.409-3.828-3.409c-0.148,0-0.298,0.008-0.448,0.026c-1.023,0.119-1.939,0.63-2.578,1.437
			c-0.639,0.808-0.925,1.816-0.806,2.839c0.177,1.518,1.225,2.734,2.605,3.198v8.314c0,0.457,0.255,0.876,0.66,1.086l5.203,2.702
			v18.907h-3.415V35.169c0-0.676-0.548-1.224-1.224-1.224c-0.676,0-1.224,0.548-1.224,1.224v16.666h-3.847l-5.764-16.176
			c-0.143-0.399-0.483-0.697-0.898-0.784l-5.949-1.26l-1.896-5.583c0.249-0.158,0.488-0.336,0.701-0.556
			c0.103-0.106,0.201-0.219,0.293-0.339c0.628-0.817,0.899-1.829,0.766-2.85c-0.134-1.021-0.657-1.929-1.474-2.557
			c-0.827-0.635-1.836-0.875-2.806-0.759c-0.027,0.003-0.053,0.002-0.08,0.005c-0.052,0.006-0.101,0.025-0.153,0.033
			c-0.126,0.023-0.251,0.046-0.374,0.081c-0.806,0.21-1.525,0.658-2.051,1.323c-0.639,0.808-0.925,1.816-0.806,2.839
			c0.217,1.867,1.748,3.279,3.603,3.388l2.181,6.422c0.139,0.409,0.483,0.714,0.905,0.804l5.963,1.263l5.565,15.623l-7.941,13.754
			l-4.698-5.647l0.4-3.698c0.037-0.349-0.077-0.697-0.314-0.956l-8.323-9.126c0.333-0.665,0.47-1.412,0.381-2.168
			c-0.226-1.943-1.872-3.409-3.828-3.409c-0.148,0-0.298,0.008-0.448,0.026c-1.023,0.119-1.938,0.63-2.578,1.438
			c-0.639,0.808-0.925,1.816-0.806,2.839c0.226,1.943,1.871,3.409,3.828,3.409c0.148,0,0.297-0.009,0.448-0.026
			c0.448-0.052,0.868-0.192,1.261-0.386l7.884,8.646l-0.395,3.665c-0.035,0.33,0.065,0.66,0.277,0.914l6.167,7.414
			c0.241,0.292,0.59,0.442,0.941,0.442c0.277,0,0.555-0.092,0.783-0.283c0.155-0.129,0.257-0.293,0.331-0.467l8.572-14.848h16.521
			L82.4,68.59l-1.453,2.518c-0.154-0.019-0.306-0.043-0.464-0.043c-0.148,0-0.298,0.009-0.448,0.026
			c-1.023,0.119-1.938,0.63-2.577,1.437c-0.64,0.808-0.926,1.816-0.807,2.839c0.082,0.704,0.355,1.341,0.756,1.873l-3.265,5.656
			H56.916c-0.676,0-1.224,0.548-1.224,1.224v27.474c0,0.676,0.548,1.224,1.224,1.224c0.676,0,1.224-0.548,1.224-1.224v-26.25h6.446
			v37.431c0,0.676,0.548,1.224,1.224,1.224s1.224-0.548,1.224-1.224V85.344h6.445v17.358c0,0.676,0.548,1.224,1.224,1.224
			s1.224-0.548,1.224-1.224v-9.854l10.746-4.855c0.124-0.056,0.238-0.131,0.336-0.225l15.133-14.25
			c0.446,0.18,0.93,0.282,1.436,0.282c0.148,0,0.297-0.008,0.448-0.026c1.023-0.119,1.938-0.63,2.577-1.437
			C107.244,71.53,107.53,70.521,107.411,69.498z M63.187,18.578c-0.772,0.09-1.471-0.463-1.561-1.235s0.463-1.471,1.235-1.561
			c0.772-0.09,1.471,0.463,1.561,1.235C64.512,17.789,63.959,18.488,63.187,18.578z M41.455,26.202
			c-0.772,0.09-1.471-0.463-1.561-1.235c-0.09-0.772,0.463-1.471,1.235-1.561c0.772-0.09,1.471,0.463,1.561,1.235
			C42.78,25.413,42.227,26.112,41.455,26.202z M31.518,46.755c-0.055,0.006-0.11,0.01-0.165,0.01c-0.705,0-1.313-0.528-1.396-1.245
			c-0.09-0.772,0.463-1.471,1.235-1.561c0.055-0.006,0.11-0.01,0.165-0.01c0.705,0,1.313,0.528,1.396,1.244
			C32.843,45.966,32.29,46.665,31.518,46.755z M80.318,73.522c0.055-0.006,0.11-0.01,0.165-0.01c0.704,0,1.312,0.528,1.396,1.244
			c0.09,0.772-0.463,1.471-1.235,1.561c-0.055,0.006-0.11,0.01-0.165,0.01c-0.705,0-1.312-0.528-1.396-1.244
			C78.993,74.311,79.546,73.612,80.318,73.522z M103.744,71.342c-0.055,0.006-0.11,0.01-0.165,0.01
			c-0.704,0-1.312-0.528-1.396-1.244c-0.09-0.772,0.463-1.471,1.235-1.561c0.055-0.006,0.11-0.01,0.165-0.01
			c0.704,0,1.312,0.528,1.396,1.245C105.069,70.554,104.516,71.253,103.744,71.342z"/>
	</g>
</g>
<g id="Layer_1">
</g>
</svg>
