<?xml version="1.0" encoding="iso-8859-1"?>
<!-- Generator: Adobe Illustrator 21.1.0, SVG Export Plug-In . SVG Version: 6.00 Build 0)  -->
<svg version="1.1" xmlns="http://www.w3.org/2000/svg" xmlns:xlink="http://www.w3.org/1999/xlink" x="0px" y="0px"
	 viewBox="0 0 132 132" width="132" height="132" style="enable-background:new 0 0 132 132;" xml:space="preserve">
<g id="map_x5F_pin">
	<g>
		<g>
			<path style="fill:#5D6771;" d="M66,130.5c-35.565,0-64.5-28.935-64.5-64.5S30.435,1.5,66,1.5s64.5,28.935,64.5,64.5
				S101.565,130.5,66,130.5z"/>
			<path style="fill:#FFFFFF;" d="M66,3c34.738,0,63,28.262,63,63s-28.262,63-63,63S3,100.738,3,66S31.262,3,66,3 M66,0
				C29.549,0,0,29.549,0,66s29.549,66,66,66s66-29.549,66-66S102.451,0,66,0L66,0z"/>
		</g>
	</g>
	<g transform="translate(0,-952.36218)">
		<path style="fill:#FFFFFF;" d="M79.349,1056.751c-0.176,0-0.352-0.037-0.509-0.106l-26.188-11.212l-26.192,11.213
			c-0.138,0.062-0.29,0.094-0.449,0.094c-0.344,0-0.701-0.155-0.955-0.416c-0.235-0.241-0.361-0.545-0.354-0.854v-61.016
			c0.004-0.485,0.303-0.942,0.744-1.138l26.726-11.454l0.119-0.027c0.105-0.025,0.227-0.053,0.377-0.053
			c0.146,0,0.298,0.027,0.465,0.082l13.277,5.66c1.866-5.726,7.015-9.548,12.911-9.548h0.001c5.916,0,11.087,3.822,12.968,9.548
			l13.254-5.651c0.138-0.061,0.29-0.093,0.449-0.093c0.688,0,1.299,0.574,1.309,1.229v61.028c0.012,0.485-0.295,0.969-0.745,1.168
			l-26.7,11.443C79.7,1056.714,79.524,1056.751,79.349,1056.751z M27.207,1053.591l24.19-10.38v-58.255l-24.19,10.351V1053.591z
			 M80.602,1053.56l24.191-10.351v-58.284l-11.944,5.123c0.1,0.708,0.148,1.352,0.148,1.961c0,1.681-0.407,3.811-1.062,5.558
			c-2.021,4.241-4.021,8.466-6.022,12.692c-1.769,3.734-3.537,7.468-5.312,11.196V1053.56z M78.096,1053.56v-32.104l-11.323-23.865
			c-0.523-1.4-1.072-3.583-1.072-5.582c0-0.604,0.049-1.247,0.148-1.96l-11.944-5.094v58.255L78.096,1053.56z M79.319,980.48
			c-6.127,0-11.112,5.172-11.112,11.529c0,1.471,0.455,3.459,0.905,4.663l10.236,21.574l10.247-21.597
			c0.44-1.177,0.896-3.164,0.896-4.639C90.491,985.653,85.479,980.48,79.319,980.48z M79.349,996.689
			c-2.794,0-5.067-2.273-5.067-5.067c0-2.794,2.273-5.067,5.067-5.067s5.067,2.273,5.067,5.067
			C84.416,994.416,82.143,996.689,79.349,996.689z M79.349,989.062c-1.436,0-2.561,1.125-2.561,2.561s1.125,2.561,2.561,2.561
			s2.561-1.125,2.561-2.561S80.784,989.062,79.349,989.062z"/>
		<path style="fill:#FFFFFF;" d="M79.319,978.274c-5.994,0-11.041,4.067-12.723,9.654l-13.557-5.781
			c-0.378-0.123-0.552-0.046-0.775,0l-26.698,11.442c-0.332,0.148-0.563,0.5-0.566,0.864v61.023
			c-0.015,0.64,0.756,1.154,1.341,0.894l26.31-11.263l26.31,11.263c0.243,0.108,0.532,0.108,0.775,0l26.698-11.442
			c0.342-0.152,0.575-0.52,0.566-0.894v-61.023c-0.01-0.63-0.765-1.12-1.341-0.864l-13.557,5.781
			C90.405,982.34,85.313,978.273,79.319,978.274L79.319,978.274z M79.319,980.181c6.315,0,11.472,5.256,11.472,11.829
			c0,1.447-0.431,3.454-0.924,4.767l-10.518,22.169l-10.518-22.169c-0.491-1.315-0.924-3.323-0.924-4.767
			C67.907,985.433,73.003,980.181,79.319,980.181z M105.093,984.471v58.937l-24.791,10.608v-32.627
			c3.792-7.97,7.557-15.963,11.352-23.927c0.579-1.545,1.043-3.649,1.043-5.453c0-0.731-0.072-1.445-0.179-2.145L105.093,984.471z
			 M51.698,984.501v58.907l-24.791,10.637v-58.937L51.698,984.501z M53.605,984.501l12.574,5.363
			c-0.107,0.7-0.179,1.415-0.179,2.145c0,1.804,0.468,3.911,1.043,5.453c3.785,7.969,7.568,15.952,11.352,23.926v32.627
			l-24.791-10.608V984.501z M79.349,986.855c-2.622,0-4.767,2.146-4.767,4.767c0,2.622,2.146,4.767,4.767,4.767
			c2.622,0,4.767-2.146,4.767-4.767C84.116,989.001,81.97,986.855,79.349,986.855z M79.349,988.762c1.591,0,2.86,1.269,2.86,2.86
			c0,1.591-1.27,2.86-2.86,2.86c-1.591,0-2.86-1.269-2.86-2.86C76.488,990.031,77.758,988.762,79.349,988.762z"/>
	</g>
</g>
<g id="Layer_1">
</g>
</svg>
