<?xml version="1.0" encoding="iso-8859-1"?>
<!-- Generator: Adobe Illustrator 21.0.0, SVG Export Plug-In . SVG Version: 6.00 Build 0)  -->
<svg version="1.1" xmlns="http://www.w3.org/2000/svg" xmlns:xlink="http://www.w3.org/1999/xlink" x="0px" y="0px"
	 viewBox="0 0 136.023 133.465" style="enable-background:new 0 0 136.023 133.465;" xml:space="preserve">
<g id="Layer_38">
	<g>
		<g transform="translate(50 50) scale(0.69 0.69) rotate(0) translate(-50 -50)">
			<g>
				<g>
					<path style="fill:#FFFFFF;" d="M18.623,34.364l-0.856-1.502l-0.999-1.754L-6.66,40.576c0.385,0.52,0.795,1.072,1.233,1.659
						l1.059,1.419c0.398,0.532,0.811,1.086,1.239,1.656l22.752-9.191L18.623,34.364z"/>
					<path style="fill:#FFFFFF;" d="M-19.922,8.447l68.241-27.395c0.946-0.379,1.402-1.442,1.019-2.376
						c-0.383-0.934-1.461-1.383-2.406-1.006L-21.309,5.065c-0.946,0.379-1.402,1.442-1.019,2.376c0.291,0.709,0.983,1.14,1.713,1.14
						C-20.384,8.581-20.149,8.538-19.922,8.447z"/>
					<path style="fill:#FFFFFF;" d="M56.269-2.907c2.123-0.975,1.981-2.229,1.044-4.258c-0.509-1.103-2.753-6.775-3.304-8.13
						c-0.551-1.355-2.202-2.168-4.129-1.626c-1.927,0.542-64.06,25.848-67.088,26.932s-3.962,3.344-3.255,4.736
						c0.389,0.767,2.505,6.002,3.882,8.712c1.376,2.71,3.854,1.626,6.056,0.813C-10.524,24.273,50.912-0.446,56.269-2.907z"/>
					<path style="fill:#FFFFFF;" d="M74.888,63.546L61.434,69.05l1.704,3.927l12.798-5.236c0.328-0.622-0.9-3.204-1.003-3.95
						C74.924,63.728,74.907,63.642,74.888,63.546z"/>
					<path style="fill:#FFFFFF;" d="M83.003,43.941l-0.496,1.649c-0.195,0.65-0.388,1.293-0.578,1.927l14.9,6.096l0.731-1.864
						l0.626-1.596l0.731-1.864l-15.333-6.274C83.388,42.661,83.194,43.303,83.003,43.941z"/>
					<path style="fill:#FFFFFF;" d="M80.859,51.094l-0.491,1.652c-0.197,0.664-0.387,1.308-0.57,1.93l14.317,5.858l0.731-1.864
						l0.626-1.596l0.731-1.864l-14.768-6.042C81.238,49.822,81.046,50.465,80.859,51.094z"/>
					<path style="fill:#FFFFFF;" d="M71.84,52.746l-0.491-1.652c-0.187-0.63-0.379-1.272-0.575-1.928l-14.768,6.042l0.731,1.864
						l0.626,1.596l0.731,1.864l14.317-5.858C72.227,54.054,72.037,53.41,71.84,52.746z"/>
					<path style="fill:#FFFFFF;" d="M78.75,58.263l-0.474,1.658c-0.208,0.738-0.389,1.391-0.538,1.943L91.4,67.454l0.731-1.864
						l0.626-1.596l0.731-1.864l-14.176-5.8C79.113,57.009,78.925,57.657,78.75,58.263z"/>
					<path style="fill:#FFFFFF;" d="M69.701,45.59l-0.496-1.649c-0.192-0.637-0.385-1.279-0.58-1.926l-15.333,6.274l0.731,1.864
						l0.626,1.596l0.731,1.864l14.9-6.096C70.089,46.883,69.896,46.24,69.701,45.59z"/>
					<path style="fill:#FFFFFF;" d="M73.931,59.921l-0.474-1.658c-0.175-0.606-0.363-1.254-0.562-1.933l-14.176,5.8l0.731,1.864
						l0.626,1.596l0.731,1.864l13.661-5.589C74.321,61.312,74.14,60.659,73.931,59.921z"/>
					<path style="fill:#FFFFFF;" d="M22.333,40.877l-0.856-1.502l-0.999-1.754l-22.545,9.106c0.405,0.54,0.819,1.091,1.242,1.655
						l1.065,1.417c0.409,0.544,0.823,1.094,1.244,1.654l21.848-8.821L22.333,40.877z"/>
					<path style="fill:#FFFFFF;" d="M77.276,63.791c-0.103,0.746-1.331,3.329-1.003,3.95l12.798,5.236l1.704-3.927L77.32,63.545
						C77.3,63.642,77.284,63.728,77.276,63.791z"/>
					<path style="fill:#FFFFFF;" d="M127.02,45.888l-0.856,1.502l-0.999,1.754l19.206,8.088c0.418-0.553,0.834-1.105,1.248-1.653
						l1.068-1.415c0.419-0.556,0.835-1.107,1.246-1.653l-19.913-8.377L127.02,45.888z"/>
					<path style="fill:#FFFFFF;" d="M130.73,39.375l-0.856,1.502l-0.999,1.754l21.848,8.821c0.421-0.56,0.836-1.11,1.245-1.654
						l1.065-1.417c0.424-0.564,0.838-1.116,1.242-1.655l-22.545-9.106L130.73,39.375z"/>
					<path style="fill:#FFFFFF;" d="M26.043,47.39l-0.856-1.502l-0.999-1.754L4.275,52.511c0.412,0.546,0.827,1.097,1.246,1.653
						l1.068,1.415c0.414,0.548,0.83,1.1,1.248,1.653l19.206-8.088L26.043,47.39z"/>
					<path style="fill:#FFFFFF;" d="M121.425,59.661l-0.895,1.486l-1.045,1.736l13.779,5.638c0.412-0.543,0.83-1.095,1.252-1.651
						l1.072-1.414c0.414-0.546,0.831-1.098,1.251-1.652l-14.368-5.879L121.425,59.661z"/>
					<path style="fill:#FFFFFF;" d="M125.305,53.218l-0.895,1.486l-1.045,1.736l16.368,6.927c0.416-0.549,0.832-1.1,1.25-1.652
						l1.07-1.415c0.417-0.551,0.833-1.102,1.249-1.652l-16.951-7.165L125.305,53.218z"/>
					<path style="fill:#FFFFFF;" d="M173.517,5.065L105.276-22.33c-0.946-0.377-2.023,0.072-2.406,1.006
						c-0.383,0.934,0.073,1.997,1.019,2.376L172.13,8.447c0.228,0.091,0.462,0.134,0.693,0.134c0.731,0,1.422-0.43,1.713-1.14
						C174.919,6.508,174.463,5.444,173.517,5.065z"/>
					<path style="fill:#FFFFFF;" d="M117.545,66.105l-0.895,1.486l-1.045,1.736l13.007,5.322c0.406-0.535,0.825-1.086,1.254-1.65
						l1.073-1.413c0.41-0.54,0.828-1.092,1.253-1.651l-13.602-5.565L117.545,66.105z"/>
					<path style="fill:#FFFFFF;" d="M169.416,10.012c-3.028-1.084-65.161-26.39-67.088-26.932c-1.927-0.542-3.579,0.271-4.129,1.626
						c-0.551,1.355-2.794,7.027-3.304,8.13c-0.937,2.029-1.078,3.282,1.044,4.258c5.356,2.461,66.793,27.18,66.793,27.18
						c2.202,0.813,4.68,1.897,6.056-0.813s3.493-7.945,3.882-8.712C173.378,13.356,172.444,11.096,169.416,10.012z"/>
					<path style="fill:#FFFFFF;" d="M110.056,5.914C102.751-0.015,90.288-3.92,76.138-3.92c-14.106,0-26.537,3.882-33.852,9.779
						L-11.25,27.601c-0.072,0.538,0.03,3.928,0.087,4.611l0.115,0.275l47.482-19.329c-0.299,0.701-0.536,1.415-0.708,2.139
						l-46.439,18.905l0.775,1.846l1.009,1.439c0.336,0.464,0.746,1.025,1.218,1.665L35.84,21.426
						c0.308,1.118,0.77,2.208,1.375,3.265l-4.193,1.574l7.6,22.077l-0.625,0.287l1.633,4.798l-2.534-4.411l-1.142,0.483
						L26.882,28.962l-6.431,2.77l10.947,20.541l-1.147,0.485l4.175,7.527l0.863-0.392l14.341,24.818l-1.679,0.645l2.611,6.237
						c-0.633,0.443-1.252,0.903-1.86,1.377l-3.6-9.875l-9.985,4.264c2.564,5.329,0.27,9.193-0.54,13.857
						c-0.668,3.846,1.417,5.607,2.169,6.106c-3.111,5.979-4.867,12.758-4.867,19.942c0,24.135,19.815,43.701,44.259,43.701
						s44.259-19.566,44.259-43.701c0-7.198-1.763-13.988-4.885-19.976c0.79-0.542,2.772-2.309,2.118-6.072
						c-0.81-4.663-3.104-8.527-0.54-13.857l-9.985-4.264l-3.585,9.833c-0.607-0.473-1.228-0.93-1.86-1.371l2.596-6.201l-1.679-0.645
						l14.341-24.818l0.863,0.392l4.175-7.527l-1.147-0.485l10.947-20.541l-6.431-2.77l-11.071,20.537l-1.142-0.483l-2.534,4.411
						l1.633-4.798l-0.625-0.287l7.6-22.077l-4.136-1.552c0.607-1.055,1.071-2.144,1.38-3.261l43.489,17.702
						c0.471-0.64,0.882-1.201,1.218-1.665l1.009-1.439l0.775-1.846l-46.363-18.874c-0.17-0.724-0.406-1.437-0.702-2.137l47.4,19.295
						l0.115-0.275c0.058-0.683,0.159-4.073,0.087-4.611L110.056,5.914z M76.138,10.493c4.279,0,7.748,3.425,7.748,7.651
						s-3.469,7.651-7.748,7.651s-7.748-3.425-7.748-7.651C68.39,13.918,71.859,10.493,76.138,10.493z M41.943,56.877l0.745-0.338
						l0.001,0.003l0.646-0.277l2.745,7.612L41.943,56.877z M76.138,144.984c-9.895,0-17.946-7.949-17.946-17.72
						c0-9.771,8.051-17.72,17.946-17.72c9.896,0,17.947,7.949,17.947,17.72C94.085,137.035,86.034,144.984,76.138,144.984z
						 M103.486,44.624l-2.891,8.094l1.556,0.667L91.976,80.642l-2.879-1.106l-2.19,5.332c-0.626-0.155-1.257-0.298-1.893-0.426
						l3.47-8.941l-10.66-4.397l-1.72,5.99l-1.72-5.99l-10.66,4.397l3.474,8.953c-0.636,0.129-1.266,0.273-1.892,0.428l-2.196-5.348
						l-2.88,1.106L50.056,53.384l1.556-0.667l-2.891-8.094l-1.637,0.751l-5.412-15.458c1.055,0.904,2.228,1.763,3.508,2.572
						l0.347,1.061l0.842-0.343c0.629,0.365,1.282,0.717,1.955,1.058l-2.262,0.919l0.623,1.908l0.534,1.634l0.623,1.908l8.15-3.31
						c0.875,0.27,1.769,0.522,2.683,0.757l-8.098,3.285l0.731,1.864l0.626,1.596l0.731,1.864l16.735-6.787
						c2.192,0.197,4.442,0.302,6.738,0.302c2.276,0,4.508-0.103,6.682-0.297l16.722,6.782l0.731-1.864l0.626-1.596l0.731-1.864
						l-8.072-3.274c0.914-0.235,1.811-0.487,2.686-0.756l8.121,3.298l0.623-1.908l0.534-1.634l0.623-1.908l-2.224-0.903
						c0.674-0.341,1.327-0.693,1.957-1.057l0.801,0.327l0.329-1.006c1.274-0.799,2.443-1.649,3.496-2.543l-5.382,15.373
						L103.486,44.624z M106.127,63.877l2.745-7.612l0.646,0.277l0.001-0.003l0.745,0.338L106.127,63.877z"/>
					<path style="fill:#FFFFFF;" d="M134.441,32.862l-0.856,1.502l-0.999,1.754l22.752,9.191c0.427-0.571,0.841-1.124,1.239-1.656
						l1.059-1.419c0.438-0.588,0.848-1.139,1.233-1.659l-23.428-9.468L134.441,32.862z"/>
					<path style="fill:#FFFFFF;" d="M35.557,67.591l-0.895-1.486l-1.045-1.736l-13.602,5.565c0.424,0.559,0.843,1.111,1.253,1.651
						l1.073,1.413c0.429,0.565,0.847,1.116,1.254,1.65l13.007-5.322L35.557,67.591z"/>
					<path style="fill:#FFFFFF;" d="M39.438,74.034l-0.895-1.486l-1.045-1.736l-12.828,5.249c0.437,0.574,0.855,1.124,1.255,1.65
						l1.075,1.412c0.456,0.599,0.874,1.147,1.257,1.649l12.226-5.002L39.438,74.034z"/>
					<path style="fill:#FFFFFF;" d="M31.677,61.147l-0.895-1.486l-1.045-1.736l-14.368,5.879c0.419,0.554,0.837,1.105,1.251,1.652
						l1.072,1.414c0.421,0.556,0.84,1.108,1.252,1.651l13.779-5.638L31.677,61.147z"/>
					<path style="fill:#FFFFFF;" d="M27.797,54.704l-0.895-1.486l-1.045-1.736L8.906,58.648c0.416,0.55,0.832,1.101,1.249,1.652
						l1.07,1.415c0.418,0.552,0.834,1.103,1.25,1.652l16.368-6.927L27.797,54.704z"/>
					<path style="fill:#FFFFFF;" d="M41.378,77.256l-12.043,4.927c0.638,0.834,2.05,3.469,2.239,3.708l11.822-4.837L41.378,77.256z"
						/>
					<path style="fill:#FFFFFF;" d="M76.138,111.941c-8.556,0-15.517,6.873-15.517,15.322c0,8.449,6.961,15.322,15.517,15.322
						c8.557,0,15.518-6.873,15.518-15.322C91.656,118.815,84.694,111.941,76.138,111.941z"/>
					<path style="fill:#FFFFFF;" d="M108.812,81.055l11.822,4.837c0.188-0.24,1.6-2.874,2.239-3.708l-12.043-4.928L108.812,81.055z"
						/>
					<path style="fill:#FFFFFF;" d="M113.665,72.549l-0.895,1.486l-1.045,1.736l12.226,5.002c0.383-0.502,0.801-1.05,1.257-1.649
						l1.075-1.412c0.4-0.525,0.819-1.076,1.255-1.65l-12.828-5.249L113.665,72.549z"/>
				</g>
			</g>
		</g>
	</g>
</g>
<g id="Layer_1">
</g>
</svg>
