<svg xmlns="http://www.w3.org/2000/svg" viewBox="0 0 120.63 134.75"><defs><style>.cls-1{fill:#fffdfd;}</style></defs><title>Asset 17-02</title><g id="Layer_2" data-name="Layer 2"><g id="obstacle"><path class="cls-1" d="M81.45,44.08,73.76,10.66c-3.07-14.21-23.82-14.21-26.89,0L39.19,44.08Z"/><polygon class="cls-1" points="84.52 57.53 82.98 49.46 37.65 49.46 35.73 57.53 84.52 57.53"/><polygon class="cls-1" points="87.98 71.36 86.06 63.29 34.58 63.29 32.66 71.36 87.98 71.36"/><polygon class="cls-1" points="94.12 99.02 89.13 76.74 31.5 76.74 26.51 99.02 94.12 99.02"/><path class="cls-1" d="M113.72,120.92H99.12L95.28,104.4H25l-3.84,16.52H6.92c-9.22,0-9.22,13.83,0,13.83h106.8C122.94,134.75,122.94,120.92,113.72,120.92Z"/></g></g></svg>