<?xml version="1.0" encoding="iso-8859-1"?>
<!-- Generator: Adobe Illustrator 21.1.0, SVG Export Plug-In . SVG Version: 6.00 Build 0)  -->
<svg version="1.1" xmlns="http://www.w3.org/2000/svg" xmlns:xlink="http://www.w3.org/1999/xlink" x="0px" y="0px"
	 viewBox="0 0 84.436 95.486" style="enable-background:new 0 0 84.436 95.486;" xml:space="preserve">
<g id="path">
	<g>
		<path style="fill:#303030;" d="M51.041,95.483c-2.12-0.128-4.149-0.274-6.039-0.435c-0.478-0.039-0.912-0.264-1.223-0.631
			c-0.311-0.368-0.459-0.834-0.419-1.312c0.079-0.94,0.842-1.649,1.775-1.649c0.062,0,0.124,0.002,0.187,0.01
			c1.84,0.154,3.836,0.297,5.923,0.424c0.991,0.061,1.748,0.915,1.688,1.905c-0.059,0.949-0.847,1.691-1.796,1.691L51.041,95.483z
			 M39.044,94.483c-2.081-0.125-4.111-0.271-6.042-0.435c-0.478-0.039-0.912-0.264-1.223-0.631
			c-0.311-0.368-0.459-0.834-0.419-1.312c0.079-0.94,0.842-1.649,1.775-1.649c0.062,0,0.124,0.002,0.187,0.01
			c1.838,0.154,3.834,0.297,5.923,0.424c0.991,0.061,1.748,0.915,1.688,1.905c-0.057,0.948-0.845,1.691-1.795,1.691L39.044,94.483z
			 M27.186,93.466c-0.073,0-0.144-0.005-0.217-0.014c-2.109-0.243-4.133-0.517-6.009-0.814c-0.474-0.074-0.891-0.329-1.174-0.719
			c-0.283-0.389-0.398-0.864-0.324-1.339c0.138-0.866,0.901-1.52,1.775-1.52c0.097,0,0.194,0.008,0.292,0.024
			c1.833,0.289,3.806,0.556,5.86,0.792c0.479,0.055,0.907,0.293,1.205,0.669c0.299,0.376,0.433,0.847,0.377,1.325
			C28.869,92.779,28.101,93.466,27.186,93.466z M15.351,91.554c-0.13,0-0.262-0.014-0.39-0.042
			c-2.254-0.506-4.265-1.065-5.977-1.664c-0.937-0.327-1.434-1.354-1.107-2.291c0.252-0.723,0.935-1.208,1.699-1.208
			c0.203,0,0.403,0.033,0.594,0.101c1.593,0.556,3.468,1.077,5.573,1.549c0.467,0.104,0.867,0.384,1.125,0.79
			c0.259,0.406,0.343,0.89,0.238,1.359C16.919,90.976,16.198,91.554,15.351,91.554z M4.213,87.325c-0.387,0-0.756-0.121-1.068-0.352
			C1.058,85.434,0,83.658,0,81.697c0-0.613,0.11-1.235,0.327-1.849c0.256-0.716,0.938-1.196,1.696-1.196
			c0.207,0,0.409,0.034,0.602,0.104c0.936,0.333,1.426,1.364,1.094,2.299c-0.08,0.225-0.12,0.441-0.12,0.643
			c0,0.756,0.566,1.557,1.683,2.38c0.386,0.286,0.639,0.705,0.71,1.181c0.072,0.477-0.046,0.951-0.332,1.337
			C5.325,87.052,4.783,87.325,4.213,87.325z M6.091,77.982c-0.624,0-1.194-0.314-1.525-0.843c-0.527-0.84-0.273-1.953,0.566-2.481
			c1.616-1.017,3.616-1.958,5.784-2.723c0.191-0.066,0.392-0.101,0.597-0.101c0.762,0,1.444,0.482,1.699,1.199
			c0.33,0.938-0.164,1.969-1.1,2.298c-1.915,0.673-3.666,1.494-5.064,2.373C6.764,77.887,6.432,77.982,6.091,77.982z M17.317,73.923
			c-0.877,0-1.623-0.629-1.772-1.495c-0.083-0.474,0.025-0.951,0.303-1.344c0.278-0.394,0.692-0.654,1.166-0.735
			c1.883-0.325,3.706-0.49,5.418-0.49c0.312,0,0.621,0.005,0.926,0.016c0.48,0.017,0.925,0.219,1.252,0.569
			c0.329,0.353,0.5,0.811,0.483,1.291c-0.033,0.976-0.804,1.74-1.753,1.74l-0.134-0.005c-0.214-0.006-0.461-0.01-0.711-0.01
			c-1.553,0-3.192,0.147-4.87,0.438C17.523,73.915,17.42,73.923,17.317,73.923z M29.291,73.483c-0.987,0-1.777-0.753-1.799-1.714
			c-0.011-0.483,0.168-0.938,0.505-1.282c0.33-0.335,0.774-0.525,1.253-0.537c2.11-0.049,4.056-0.188,5.787-0.413
			c0.077-0.01,0.155-0.015,0.233-0.015c0.898,0,1.666,0.674,1.786,1.568c0.061,0.468-0.061,0.928-0.343,1.294
			c-0.291,0.378-0.72,0.621-1.209,0.686c-2.088,0.274-4.17,0.413-6.189,0.413H29.291z M41.133,71.917
			c-0.8,0-1.493-0.516-1.724-1.284c-0.138-0.462-0.088-0.949,0.141-1.371c0.228-0.424,0.608-0.732,1.069-0.869
			c1.923-0.576,3.627-1.312,5.066-2.186c0.285-0.172,0.607-0.263,0.934-0.263c0.634,0,1.209,0.323,1.539,0.864
			c0.25,0.411,0.324,0.895,0.21,1.361c-0.114,0.468-0.403,0.862-0.813,1.111c-1.702,1.035-3.689,1.896-5.908,2.56
			C41.476,71.892,41.303,71.917,41.133,71.917z M51.053,65.57c-0.382,0-0.749-0.119-1.061-0.345c-0.802-0.59-0.977-1.72-0.391-2.519
			c1.019-1.388,1.704-2.979,2.035-4.73c0.161-0.849,0.906-1.464,1.771-1.464c0.107,0,0.217,0.009,0.326,0.029
			c0.979,0.187,1.623,1.129,1.44,2.103c-0.431,2.281-1.329,4.364-2.668,6.191C52.167,65.296,51.624,65.57,51.053,65.57z
			 M53.407,54.141c-0.882,0-1.628-0.632-1.774-1.503c-0.293-1.755-0.847-3.523-1.646-5.255c-0.416-0.901-0.02-1.973,0.881-2.388
			c0.239-0.11,0.493-0.166,0.754-0.166c0.699,0,1.341,0.41,1.634,1.045c0.931,2.019,1.58,4.095,1.928,6.17
			c0.163,0.979-0.5,1.908-1.478,2.072C53.608,54.133,53.505,54.141,53.407,54.141z M13.299,51.342c-1.414,0-2.725-0.227-3.897-0.675
			c-0.927-0.354-1.394-1.396-1.041-2.324c0.264-0.693,0.939-1.159,1.682-1.159c0.222,0,0.438,0.04,0.645,0.12
			c0.755,0.289,1.635,0.435,2.615,0.435c0.716,0,1.499-0.079,2.326-0.233c0.11-0.021,0.224-0.031,0.336-0.031
			c0.862,0,1.604,0.618,1.764,1.47c0.089,0.473-0.012,0.952-0.284,1.348c-0.271,0.396-0.681,0.664-1.154,0.752
			C15.25,51.24,14.243,51.341,13.299,51.342L13.299,51.342z M78.622,50.983c-0.147,0-0.297-0.019-0.446-0.056
			c-0.966-0.254-1.546-1.24-1.297-2.199c0.3-1.144,0.574-2.248,0.828-3.314c0.192-0.815,0.913-1.385,1.751-1.385
			c0.139,0,0.279,0.016,0.415,0.048c0.467,0.11,0.864,0.397,1.117,0.807c0.253,0.409,0.331,0.892,0.219,1.36
			c-0.258,1.092-0.54,2.224-0.847,3.393C80.155,50.43,79.44,50.983,78.622,50.983z M21.676,49.275c-0.729,0-1.382-0.436-1.663-1.11
			c-0.379-0.917,0.058-1.973,0.974-2.353c1.534-0.637,3.217-1.432,5.297-2.5c0.253-0.13,0.538-0.199,0.821-0.199
			c0.678,0,1.292,0.375,1.603,0.979c0.453,0.884,0.103,1.971-0.78,2.424c-2.179,1.118-3.947,1.951-5.562,2.622
			C22.146,49.229,21.913,49.275,21.676,49.275z M5.726,46.802c-0.636,0-1.212-0.324-1.541-0.868
			c-1.094-1.805-1.967-3.788-2.597-5.892c-0.284-0.949,0.257-1.955,1.207-2.24c0.17-0.05,0.343-0.075,0.516-0.075
			c0.801,0,1.495,0.515,1.726,1.282c0.543,1.813,1.292,3.515,2.228,5.06c0.513,0.848,0.242,1.958-0.605,2.472
			C6.375,46.712,6.053,46.802,5.726,46.802z M32.421,43.916c-0.671,0-1.282-0.368-1.594-0.961c-0.462-0.878-0.124-1.969,0.754-2.432
			c1.807-0.95,3.727-1.936,5.532-2.701c0.224-0.094,0.46-0.142,0.702-0.142c0.724,0,1.375,0.431,1.658,1.097
			c0.386,0.914-0.042,1.973-0.955,2.36c-1.689,0.716-3.527,1.659-5.261,2.571C33,43.844,32.711,43.916,32.421,43.916z
			 M48.435,43.362c-0.528,0-1.028-0.231-1.372-0.634c-1.314-1.546-2.746-2.603-3.736-2.759c-0.979-0.155-1.652-1.077-1.5-2.057
			c0.137-0.882,0.885-1.522,1.778-1.522c0.092,0,0.187,0.007,0.28,0.021c1.888,0.297,3.99,1.712,5.92,3.983
			c0.312,0.366,0.462,0.832,0.423,1.311c-0.039,0.479-0.262,0.915-0.628,1.227C49.275,43.21,48.861,43.362,48.435,43.362z
			 M80.699,41.76c-0.106,0-0.21-0.008-0.318-0.027c-0.98-0.179-1.632-1.118-1.455-2.094c0.375-2.063,0.655-4.012,0.832-5.792
			c0.092-0.925,0.858-1.623,1.783-1.623c0.062,0,0.126,0.003,0.19,0.01c0.473,0.046,0.904,0.277,1.209,0.649
			c0.305,0.373,0.447,0.841,0.398,1.319c-0.184,1.866-0.478,3.912-0.871,6.082C82.314,41.139,81.57,41.76,80.699,41.76z
			 M2.242,35.436c-0.937,0-1.725-0.731-1.794-1.666c-0.062-0.809-0.092-1.645-0.092-2.486c0-1.258,0.07-2.547,0.208-3.831
			c0.099-0.917,0.87-1.607,1.795-1.607c0.059,0,0.119,0.003,0.18,0.008c0.993,0.107,1.711,0.996,1.605,1.983
			c-0.124,1.156-0.187,2.315-0.187,3.446c0,0.752,0.028,1.498,0.082,2.218c0.036,0.479-0.116,0.944-0.43,1.309
			c-0.314,0.365-0.751,0.586-1.231,0.622l-0.132,0.004H2.242z M81.747,29.483c-1.016,0-1.755-0.633-1.797-1.539
			c-0.098-2.059-0.416-3.768-0.972-5.225c-0.352-0.919,0.104-1.921,1.036-2.28c0.206-0.078,0.417-0.116,0.63-0.116
			c0.745,0,1.426,0.473,1.695,1.176c0.708,1.849,1.092,3.839,1.208,6.263c0.021,0.455-0.132,0.878-0.432,1.191
			c-0.325,0.341-0.793,0.529-1.32,0.529H81.747z M3.476,23.553c-0.159,0-0.318-0.021-0.474-0.063
			c-0.958-0.263-1.525-1.255-1.263-2.213c0.554-2.022,1.268-4.009,2.121-5.907c0.29-0.645,0.935-1.061,1.643-1.061
			c0.255,0,0.502,0.053,0.735,0.157c0.44,0.199,0.776,0.555,0.947,1.003c0.171,0.451,0.156,0.94-0.042,1.378
			c-0.777,1.728-1.427,3.538-1.931,5.38C4.997,23.009,4.284,23.553,3.476,23.553z M50.74,20.074c-0.739,0-1.443-0.032-2.094-0.097
			c-0.514-0.05-1.016-0.117-1.506-0.197c-0.476-0.079-0.892-0.337-1.171-0.728c-0.28-0.392-0.391-0.869-0.312-1.343
			c0.144-0.872,0.891-1.505,1.776-1.505c0.094,0,0.19,0.007,0.287,0.022c0.42,0.069,0.845,0.125,1.281,0.168
			c0.539,0.053,1.124,0.08,1.739,0.08c0.77,0,1.592-0.04,2.515-0.122l0.137-0.006c0.942,0,1.733,0.721,1.814,1.641
			c0.043,0.479-0.104,0.946-0.414,1.315c-0.309,0.368-0.743,0.594-1.222,0.636C52.538,20.03,51.612,20.074,50.74,20.074z
			 M76.999,19.362c-0.329,0-0.651-0.09-0.934-0.261c-1.243-0.757-2.84-1.172-4.883-1.269c-0.481-0.023-0.924-0.231-1.249-0.588
			c-0.323-0.356-0.489-0.816-0.465-1.296c0.045-0.945,0.855-1.714,1.808-1.714c2.718,0.127,4.892,0.713,6.661,1.792
			c0.411,0.251,0.7,0.646,0.812,1.114c0.113,0.467,0.038,0.951-0.213,1.361C78.214,19.032,77.625,19.362,76.999,19.362z
			 M59.355,19.124c-0.881,0-1.627-0.632-1.774-1.502c-0.08-0.474,0.03-0.951,0.31-1.342c0.279-0.391,0.693-0.651,1.167-0.73
			l1.027-0.172c1.641-0.276,3.339-0.562,4.964-0.776c0.083-0.011,0.161-0.016,0.238-0.016c0.913,0,1.662,0.658,1.781,1.564
			c0.063,0.476-0.063,0.949-0.355,1.331c-0.294,0.382-0.717,0.626-1.194,0.688c-1.602,0.211-3.32,0.502-4.835,0.758L59.655,19.1
			C59.535,19.116,59.445,19.124,59.355,19.124z M41.754,17.96c-0.281,0-0.552-0.063-0.805-0.189
			c-1.819-0.916-3.556-2.104-5.311-3.634c-0.748-0.653-0.825-1.792-0.173-2.54c0.343-0.392,0.838-0.616,1.357-0.616
			c0.435,0,0.855,0.157,1.183,0.443c1.521,1.328,3.013,2.352,4.559,3.129c0.887,0.448,1.245,1.532,0.799,2.417
			C43.056,17.581,42.439,17.96,41.754,17.96z M8.405,12.665c-0.361,0-0.709-0.107-1.007-0.31C7,12.087,6.73,11.679,6.639,11.207
			c-0.091-0.473,0.006-0.952,0.275-1.35c1.254-1.859,2.633-3.505,4.099-4.893c0.335-0.317,0.775-0.492,1.237-0.492
			c0.493,0,0.969,0.205,1.307,0.562c0.331,0.348,0.506,0.806,0.492,1.287c-0.013,0.481-0.213,0.927-0.562,1.257
			c-1.276,1.21-2.484,2.655-3.59,4.293C9.562,12.369,9.003,12.665,8.405,12.665z M32.587,10.332c-0.502,0-0.985-0.212-1.326-0.582
			l-0.338-0.369c-1.292-1.408-2.509-2.734-3.708-3.738C26.848,5.334,26.622,4.9,26.58,4.421c-0.043-0.479,0.104-0.946,0.414-1.314
			c0.343-0.409,0.846-0.643,1.38-0.643c0.422,0,0.833,0.149,1.156,0.421c1.381,1.16,2.675,2.57,4.045,4.063l0.335,0.365
			c0.325,0.354,0.493,0.813,0.473,1.294c-0.021,0.481-0.226,0.925-0.58,1.25C33.472,10.163,33.039,10.332,32.587,10.332z
			 M17.165,4.68c-0.707,0-1.352-0.416-1.642-1.061c-0.198-0.438-0.213-0.928-0.042-1.378c0.171-0.45,0.507-0.806,0.946-1.003
			C18.254,0.417,20.113,0,21.951,0c0.195,0.013,0.345,0.018,0.499,0.022c0.256,0.008,0.5,0.017,0.73,0.04
			c0.988,0.101,1.709,0.986,1.609,1.973c-0.092,0.905-0.835,1.562-1.766,1.562c-0.071,0-0.143-0.004-0.215-0.012
			c-0.118-0.013-0.24-0.031-0.362-0.049c-0.182-0.028-0.337-0.053-0.492-0.053c-1.24,0-2.603,0.33-4.051,0.98
			C17.682,4.57,17.451,4.68,17.165,4.68z"/>
		<path style="fill:#303030;" d="M78.627,66.659c-0.878,0-1.693-0.511-2.074-1.303l-2.257-4.691l-4.691,2.258
			c-0.313,0.151-0.648,0.228-0.995,0.228c-0.879,0-1.693-0.512-2.075-1.304c-0.55-1.143-0.067-2.52,1.076-3.07l4.69-2.258
			l-2.257-4.689c-0.55-1.142-0.067-2.519,1.076-3.07c0.315-0.15,0.649-0.226,0.994-0.226c0.88,0,1.695,0.511,2.076,1.302
			l2.256,4.691l4.692-2.258c0.314-0.15,0.649-0.227,0.995-0.227c0.88,0,1.695,0.512,2.075,1.303c0.549,1.143,0.066,2.52-1.077,3.07
			l-4.691,2.257l2.258,4.69c0.55,1.143,0.067,2.52-1.076,3.07C79.309,66.583,78.974,66.659,78.627,66.659z"/>
	</g>
</g>
<g id="Layer_1">
</g>
</svg>
