<?xml version="1.0" encoding="iso-8859-1"?>
<!-- Generator: Adobe Illustrator 21.1.0, SVG Export Plug-In . SVG Version: 6.00 Build 0)  -->
<svg version="1.1" xmlns="http://www.w3.org/2000/svg" xmlns:xlink="http://www.w3.org/1999/xlink" x="0px" y="0px"
	 viewBox="0 0 78.2 78.2" style="enable-background:new 0 0 78.2 78.2;" xml:space="preserve">
<g id="Pause">
	<g>
		<g>
			<path style="fill:#303030;" d="M1.409,0h29.173c0.778,0,1.409,0.631,1.409,1.409v75.383c0,0.778-0.631,1.409-1.409,1.409H1.409
				C0.631,78.2,0,77.569,0,76.791V1.409C0,0.631,0.631,0,1.409,0z"/>
			<path style="fill:#303030;" d="M47.598,0h29.214C77.578,0,78.2,0.622,78.2,1.389v75.423c0,0.767-0.622,1.389-1.389,1.389H47.598
				c-0.767,0-1.389-0.622-1.389-1.389V1.389C46.209,0.622,46.831,0,47.598,0z"/>
		</g>
	</g>
</g>
<g id="Layer_1">
</g>
</svg>
