<?xml version="1.0" encoding="iso-8859-1"?>
<!-- Generator: Adobe Illustrator 21.0.0, SVG Export Plug-In . SVG Version: 6.00 Build 0)  -->
<svg version="1.1" xmlns="http://www.w3.org/2000/svg" xmlns:xlink="http://www.w3.org/1999/xlink" x="0px" y="0px"
	 viewBox="0 0 132 132" style="enable-background:new 0 0 132 132;" xml:space="preserve">
<g id="pause">
	<path style="fill:#FFFFFF;" d="M-551,503c-36.447,0-66,29.553-66,66s29.553,66,66,66s66-29.553,66-66S-514.553,503-551,503z
		 M-551,623.804c-30.26,0-54.804-24.544-54.804-54.804s24.544-54.804,54.804-54.804s54.804,24.544,54.804,54.804
		S-520.74,623.804-551,623.804z M-563.964,545.429h-7.071c-0.648,0-1.179,0.53-1.179,1.179v44.786c0,0.648,0.53,1.179,1.179,1.179
		h7.071c0.648,0,1.179-0.53,1.179-1.179v-44.786C-562.786,545.959-563.316,545.429-563.964,545.429z M-530.964,545.429h-7.071
		c-0.648,0-1.179,0.53-1.179,1.179v44.786c0,0.648,0.53,1.179,1.179,1.179h7.071c0.648,0,1.179-0.53,1.179-1.179v-44.786
		C-529.786,545.959-530.316,545.429-530.964,545.429z"/>
</g>
<g id="Layer_1">
</g>
</svg>
