<?xml version="1.0" encoding="iso-8859-1"?>
<!-- Generator: Adobe Illustrator 21.0.0, SVG Export Plug-In . SVG Version: 6.00 Build 0)  -->
<svg version="1.1" xmlns="http://www.w3.org/2000/svg" xmlns:xlink="http://www.w3.org/1999/xlink" x="0px" y="0px"
	 viewBox="0 0 132 132" style="enable-background:new 0 0 132 132;" xml:space="preserve">
<g id="poweroff">
	<path style="fill:#FFFFFF;" d="M-521.421,509.86c-0.603-0.304-1.338-0.061-1.641,0.541c-0.087,0.173-0.132,0.365-0.131,0.559v9.808
		c0,0.84,0.443,1.619,1.146,2.078c3.445,2.168,6.633,4.721,9.503,7.608c4.996,5.011,8.922,10.832,11.657,17.31
		c2.828,6.706,4.278,13.912,4.262,21.19c0,7.349-1.436,14.483-4.262,21.19c-2.732,6.468-6.69,12.347-11.657,17.31
		c-4.95,4.979-10.825,8.944-17.294,11.672c-6.691,2.842-13.826,4.278-21.159,4.278s-14.468-1.436-21.159-4.278
		c-6.469-2.728-12.344-6.693-17.294-11.672c-4.967-4.963-8.925-10.841-11.657-17.31c-2.828-6.706-4.278-13.912-4.262-21.19
		c0-7.349,1.436-14.483,4.262-21.19c2.735-6.478,6.661-12.299,11.657-17.31c2.903-2.903,6.08-5.439,9.502-7.608
		c0.718-0.443,1.146-1.237,1.146-2.078v-9.824c0-0.917-0.962-1.497-1.772-1.1c-21.373,10.756-36.115,32.771-36.421,58.285
		c-0.428,36.483,29.409,66.794,65.876,66.871c36.513,0.076,66.12-29.532,66.12-66.061C-485,543.089-499.819,520.707-521.421,509.86z
		 M-555.886,576.333h9.777c0.672,0,1.222-0.55,1.222-1.222v-70.889c0-0.672-0.55-1.222-1.222-1.222h-9.777
		c-0.672,0-1.222,0.55-1.222,1.222v70.889C-557.109,575.783-556.559,576.333-555.886,576.333z"/>
</g>
<g id="Layer_1">
</g>
</svg>
