<?xml version="1.0" encoding="iso-8859-1"?>
<!-- Generator: Adobe Illustrator 21.1.0, SVG Export Plug-In . SVG Version: 6.00 Build 0)  -->
<svg version="1.1" xmlns="http://www.w3.org/2000/svg" xmlns:xlink="http://www.w3.org/1999/xlink" x="0px" y="0px"
	 viewBox="0 0 132 132" style="enable-background:new 0 0 132 132;" xml:space="preserve">
<g id="robot_x5F_pin">
	<g>
		<path style="fill:#5D6771;" d="M66,130.5c-35.565,0-64.5-28.935-64.5-64.5S30.435,1.5,66,1.5s64.5,28.935,64.5,64.5
			S101.565,130.5,66,130.5z"/>
		<path style="fill:#FFFFFF;" d="M66,3c34.738,0,63,28.262,63,63s-28.262,63-63,63S3,100.738,3,66S31.262,3,66,3 M66,0
			C29.549,0,0,29.549,0,66s29.549,66,66,66s66-29.549,66-66S102.451,0,66,0L66,0z"/>
	</g>
	<g>
		<path style="fill:#FFFFFF;" d="M68.27,14.496l32.412,91.346c0.358,1.008-0.854,1.837-1.664,1.137L67.335,79.597
			c-0.39-0.337-0.967-0.338-1.358-0.004l-31.849,27.191c-0.814,0.695-2.021-0.141-1.657-1.147l32.964-91.149
			C65.915,13.158,67.797,13.164,68.27,14.496z M40.021,97.411l25.903-22.116c0.428-0.366,1.059-0.364,1.485,0.004L93.18,97.571
			c0.415,0.358,1.036-0.066,0.852-0.583L67.333,21.736c-0.168-0.472-0.835-0.474-1.005-0.003l-27.156,75.09
			C38.986,97.339,39.604,97.767,40.021,97.411z"/>
		<path style="fill:#FFFFFF;" d="M66.661,77.846l33.387,28.855L67.567,15.162c-0.239-0.674-1.191-0.677-1.434-0.004L33.1,106.498
			L66.661,77.846z M66.843,17.709l29.817,84.038L66.665,75.826l-30.149,25.741L66.843,17.709z"/>
	</g>
</g>
<g id="Layer_1">
</g>
</svg>
