<?xml version="1.0" encoding="iso-8859-1"?>
<!-- Generator: Adobe Illustrator 21.0.0, SVG Export Plug-In . SVG Version: 6.00 Build 0)  -->
<svg version="1.1" xmlns="http://www.w3.org/2000/svg" xmlns:xlink="http://www.w3.org/1999/xlink" x="0px" y="0px"
	 viewBox="0 0 121.574 135.554" style="enable-background:new 0 0 121.574 135.554;" xml:space="preserve">
<g id="sad_x5F_robot">
	<g>
		<path style="fill:#FFFFFF;" d="M27.217,40.546c0,4.882,4.259,8.839,9.513,8.839s9.513-3.957,9.513-8.839s-4.259-8.839-9.513-8.839
			S27.217,35.665,27.217,40.546z M114.732,1.654H6.923c-2.806,0-5.073,2.107-5.073,4.714V103.6c0,2.608,2.267,4.714,5.073,4.714
			h107.809c2.806,0,5.073-2.107,5.073-4.714V6.368C119.805,3.76,117.538,1.654,114.732,1.654z M109.659,98.886H11.997V11.082h97.662
			V98.886z M75.414,40.546c0,4.882,4.259,8.839,9.513,8.839s9.513-3.957,9.513-8.839s-4.259-8.839-9.513-8.839
			S75.414,35.665,75.414,40.546z M115.081,122.457H6.575c-2.616,0-4.725,2.107-4.725,4.714v5.304c0,0.648,0.523,1.179,1.173,1.179
			h115.593c0.65,0,1.173-0.53,1.173-1.179v-5.304C119.805,124.564,117.697,122.457,115.081,122.457z M84.926,67.064H36.729
			c-0.698,0-1.268,0.53-1.268,1.179v8.839c0,0.648,0.571,1.179,1.268,1.179h48.197c0.698,0,1.268-0.53,1.268-1.179v-8.839
			C86.194,67.595,85.624,67.064,84.926,67.064z"/>
		<g>
			<path style="fill:#FFFFFF;" d="M25.717,40.546c0.771,13.31,22.084,13.502,22.025,0C47.682,27.042,26.488,27.23,25.717,40.546
				c-0.112,1.929,2.889,1.922,3,0c0.551-9.501,16.025-9.587,16.025,0c0,9.594-15.474,9.506-16.025,0
				C28.605,38.627,25.605,38.615,25.717,40.546z"/>
			<path style="fill:#FFFFFF;" d="M114.732,0.154c-32.284,0-64.567,0-96.851,0c-3.591,0-7.378-0.346-10.958,0
				C0.087,0.814,0.35,6.402,0.35,11.583c0,18.427,0,36.854,0,55.281c0,9.022,0,18.044,0,27.066c0,3.538-1.081,9.554,0.897,12.809
				c2.46,4.049,8.316,3.076,12.331,3.076c7.998,0,15.996,0,23.994,0c20.105,0,40.209,0,60.314,0c5.345,0,10.742,0.216,16.084,0
				c5.186-0.209,7.336-3.465,7.336-8.233c0-16.863,0-33.726,0-50.589c0-9.81,0-19.62,0-29.43c0-4.938,0.386-10.052,0-14.979
				C120.998,2.661,118.522,0.626,114.732,0.154c-1.911-0.238-1.894,2.764,0,3c5.46,0.68,3.573,10.625,3.573,13.843
				c0,8.379,0,16.759,0,25.138c0,17.771,0,35.542,0,53.313c0,4.116,1.479,9.789-3.821,11.367c-3.449,1.026-8.783,0-12.34,0
				c-18.222,0-36.445,0-54.667,0c-8.632,0-17.264,0-25.896,0c-4.235,0-9.836,0.985-13.983,0c-5.302-1.26-4.248-5.384-4.248-9.433
				c0-7.486,0-14.972,0-22.458c0-18.633,0-37.266,0-55.899c0-3.749-0.93-8.869,0-12.535c1.208-4.765,8.279-3.336,11.559-3.336
				c32.407,0,64.814,0,97.221,0c0.867,0,1.734,0,2.602,0C116.662,3.154,116.666,0.154,114.732,0.154z"/>
			<path style="fill:#FFFFFF;" d="M109.659,97.386c-28.483,0-56.966,0-85.45,0c-4.071,0-8.141,0-12.212,0c0.5,0.5,1,1,1.5,1.5
				c0-25.535,0-51.07,0-76.605c0-3.733,0-7.465,0-11.198c-0.5,0.5-1,1-1.5,1.5c28.483,0,56.966,0,85.45,0c4.071,0,8.141,0,12.212,0
				c-0.5-0.5-1-1-1.5-1.5c0,25.535,0,51.07,0,76.605c0,3.733,0,7.465,0,11.198c0,1.93,3,1.934,3,0c0-25.535,0-51.07,0-76.605
				c0-3.733,0-7.465,0-11.198c0-0.811-0.687-1.5-1.5-1.5c-28.483,0-56.966,0-85.45,0c-4.071,0-8.141,0-12.212,0
				c-0.811,0-1.5,0.687-1.5,1.5c0,25.535,0,51.07,0,76.605c0,3.733,0,7.465,0,11.198c0,0.811,0.687,1.5,1.5,1.5
				c28.483,0,56.966,0,85.45,0c4.071,0,8.141,0,12.212,0C111.589,100.386,111.592,97.386,109.659,97.386z"/>
			<path style="fill:#FFFFFF;" d="M73.914,40.546c0.771,13.31,22.084,13.502,22.025,0C95.879,27.042,74.685,27.23,73.914,40.546
				c-0.112,1.929,2.889,1.922,3,0c0.551-9.501,16.025-9.587,16.025,0c0,9.594-15.474,9.506-16.025,0
				C76.802,38.627,73.802,38.615,73.914,40.546z"/>
			<path style="fill:#FFFFFF;" d="M115.081,120.957c-16.588,0-33.176,0-49.764,0c-19.19,0-38.495-0.624-57.676,0
				c-3.151,0.103-6.091,1.205-7.068,4.561c-0.843,2.894-1.257,8.899,2.463,9.636c4.551,0.901,10.195,0,14.807,0
				c23.602,0,47.204,0,70.806,0c9.126,0,18.252,0,27.378,0c1.78,0,3.833,0.331,4.868-1.447c1.063-1.828,0.67-5.782,0.235-7.789
				C120.453,122.803,118.061,121.355,115.081,120.957c-1.907-0.255-1.889,2.748,0,3c4.197,0.561,3.005,2.833,3.209,4.892
				c0.028,0.283,0.105,3.401,0.158,3.351c0.16-0.153-0.531-0.128-0.83-0.047c-1.79,0.487-4.385,0-6.23,0c-8.477,0-16.953,0-25.43,0
				c-21.499,0-42.998,0-64.497,0c-5.4,0-12.013,1.047-17.335,0c-0.219-0.043-0.904,0.146-1.073,0
				c0.493,0.426,0.274-1.534,0.298-1.844c0.215-2.754-0.535-2.605,1.612-4.746c1.944-1.938,2.165-1.607,4.725-1.607
				c18.377,0,36.754,0,55.131,0c16.754,0,33.508,0,50.262,0C117.011,123.957,117.014,120.957,115.081,120.957z"/>
			<path style="fill:#FFFFFF;" d="M84.926,65.564c-9.185,0-18.369,0-27.554,0c-5.534,0-11.068,0-16.602,0
				c-2.421,0-5.869-0.692-6.756,2.28c-0.569,1.908-0.054,4.699-0.054,6.661c0,1.578-0.334,3.608,1.115,4.705
				c1.862,1.408,6.219,0.551,8.277,0.551c11.881,0,23.761,0,35.642,0c2.58,0,7.213,0.986,8.495-1.921
				c0.832-1.887,0.205-5.032,0.205-7.019c0-2.441,0.206-4.207-2.37-5.202c-1.802-0.696-2.582,2.203-0.798,2.893
				c0.464,0.179,0.167,4.175,0.167,5.092c0,1.476,0.181,2.968-0.187,3.158c-1.865,0.96-6.8,0-8.853,0c-10.277,0-20.554,0-30.831,0
				c-1.366,0-6.808,0.882-7.923,0c0.033,0.026-0.101-8.168-0.065-8.196c1.059-0.848,6.314,0,7.614,0c4.964,0,9.929,0,14.893,0
				c8.528,0,17.055,0,25.583,0C86.856,68.564,86.86,65.564,84.926,65.564z"/>
		</g>
	</g>
</g>
<g id="Layer_1">
</g>
</svg>
