<?xml version="1.0" encoding="iso-8859-1"?>
<!-- Generator: Adobe Illustrator 21.1.0, SVG Export Plug-In . SVG Version: 6.00 Build 0)  -->
<svg version="1.1" xmlns="http://www.w3.org/2000/svg" xmlns:xlink="http://www.w3.org/1999/xlink" x="0px" y="0px"
	 viewBox="0 0 97.395 89.986" style="enable-background:new 0 0 97.395 89.986;" xml:space="preserve">
<g id="settings">
	<g>
		<path style="fill:#FFFFFF;" d="M8.227,2.194C8.227,0.983,9.21,0,10.421,0s2.194,0.983,2.194,2.194V52.51
			c0,1.211-0.983,2.194-2.194,2.194s-2.194-0.983-2.194-2.194V2.194L8.227,2.194z M8.227,68.965c0-1.211,0.983-2.194,2.194-2.194
			s2.194,0.983,2.194,2.194v18.826c0,1.211-0.983,2.195-2.194,2.195s-2.194-0.983-2.194-2.195V68.965z"/>
		<path style="fill:#FFFFFF;" d="M46.504,2.194C46.504,0.983,47.487,0,48.698,0c1.211,0,2.194,0.983,2.194,2.194v18.827
			c0,1.211-0.983,2.194-2.194,2.194c-1.211,0-2.194-0.983-2.194-2.194V2.194L46.504,2.194z M46.504,37.475
			c0-1.211,0.983-2.194,2.194-2.194c1.211,0,2.194,0.983,2.194,2.194V87.79c0,1.211-0.983,2.195-2.194,2.195
			c-1.211,0-2.194-0.983-2.194-2.195V37.475z"/>
		<path style="fill:#FFFFFF;" d="M84.78,2.194C84.78,0.983,85.763,0,86.974,0s2.194,0.983,2.194,2.194v34.573
			c0,1.211-0.983,2.194-2.194,2.194s-2.194-0.983-2.194-2.194V2.194L84.78,2.194z M84.78,53.22c0-1.211,0.983-2.194,2.194-2.194
			s2.194,0.983,2.194,2.194v34.571c0,1.211-0.983,2.195-2.194,2.195s-2.194-0.983-2.194-2.195V53.22z"/>
		<path style="fill:#FFFFFF;" d="M48.698,18.827c2.877,0,5.482,1.166,7.369,3.052c1.886,1.887,3.052,4.492,3.052,7.369
			c0,2.876-1.166,5.482-3.052,7.368c-1.887,1.887-4.492,3.053-7.369,3.053c-2.877,0-5.482-1.166-7.368-3.053
			c-1.887-1.886-3.053-4.492-3.053-7.368c0-2.877,1.166-5.482,3.053-7.369C43.215,19.995,45.82,18.827,48.698,18.827L48.698,18.827z
			 M52.964,24.982c-1.091-1.091-2.6-1.766-4.267-1.766c-1.667,0-3.176,0.675-4.266,1.766c-1.091,1.091-1.766,2.6-1.766,4.267
			c0,1.666,0.675,3.176,1.766,4.267c1.09,1.09,2.599,1.766,4.266,1.766c1.667,0,3.176-0.676,4.267-1.766
			c1.091-1.091,1.766-2.601,1.766-4.267C54.731,27.582,54.056,26.074,52.964,24.982z"/>
		<path style="fill:#FFFFFF;" d="M10.421,50.318c2.877,0,5.482,1.166,7.368,3.053c1.887,1.886,3.053,4.491,3.053,7.368
			c0,2.877-1.166,5.482-3.053,7.368c-1.886,1.887-4.491,3.053-7.368,3.053s-5.482-1.166-7.368-3.053C1.166,66.221,0,63.616,0,60.738
			c0-2.877,1.166-5.482,3.053-7.368C4.938,51.484,7.543,50.318,10.421,50.318L10.421,50.318z M14.688,56.471
			c-1.091-1.091-2.6-1.766-4.267-1.766s-3.176,0.675-4.267,1.766c-1.091,1.091-1.766,2.601-1.766,4.267
			c0,1.667,0.675,3.176,1.766,4.267c1.091,1.091,2.6,1.766,4.267,1.766s3.176-0.675,4.267-1.766c1.091-1.091,1.766-2.6,1.766-4.267
			C16.454,59.072,15.779,57.563,14.688,56.471z"/>
		<path style="fill:#FFFFFF;" d="M86.974,34.573c2.877,0,5.482,1.166,7.369,3.052c1.886,1.887,3.052,4.492,3.052,7.369
			c0,2.877-1.166,5.482-3.052,7.369c-1.887,1.886-4.492,3.052-7.369,3.052c-2.876,0-5.482-1.166-7.368-3.052
			c-1.887-1.887-3.053-4.492-3.053-7.369c0-2.877,1.166-5.482,3.053-7.369C81.491,35.739,84.097,34.573,86.974,34.573L86.974,34.573
			z M91.24,40.726c-1.091-1.091-2.6-1.766-4.267-1.766c-1.666,0-3.176,0.675-4.266,1.766c-1.091,1.091-1.767,2.6-1.767,4.267
			s0.676,3.176,1.767,4.267c1.09,1.091,2.6,1.766,4.266,1.766c1.667,0,3.176-0.675,4.267-1.766s1.766-2.6,1.766-4.267
			S92.332,41.818,91.24,40.726z"/>
	</g>
</g>
<g id="Layer_1">
</g>
</svg>
