<?xml version="1.0" encoding="iso-8859-1"?>
<!-- Generator: Adobe Illustrator 21.0.0, SVG Export Plug-In . SVG Version: 6.00 Build 0)  -->
<svg version="1.1" xmlns="http://www.w3.org/2000/svg" xmlns:xlink="http://www.w3.org/1999/xlink" x="0px" y="0px"
	 viewBox="0 0 101.395 93.986" style="enable-background:new 0 0 101.395 93.986;" xml:space="preserve">
<g id="settings">
	<g>
		<path style="fill:#FFFFFF;stroke:#FFFFFF;stroke-width:4;stroke-miterlimit:10;" d="M-621.773,526.207
			c0-1.211,0.983-2.194,2.194-2.194c1.211,0,2.194,0.983,2.194,2.194v50.317c0,1.211-0.983,2.194-2.194,2.194
			c-1.211,0-2.194-0.983-2.194-2.194V526.207L-621.773,526.207z M-621.773,592.979c0-1.211,0.983-2.194,2.194-2.194
			c1.211,0,2.194,0.983,2.194,2.194v18.826c0,1.211-0.983,2.195-2.194,2.195c-1.211,0-2.194-0.983-2.194-2.195V592.979z"/>
		<path style="fill:#FFFFFF;stroke:#FFFFFF;stroke-width:4;stroke-miterlimit:10;" d="M-583.496,526.207
			c0-1.211,0.983-2.194,2.194-2.194s2.194,0.983,2.194,2.194v18.827c0,1.211-0.983,2.194-2.194,2.194s-2.194-0.983-2.194-2.194
			V526.207L-583.496,526.207z M-583.496,561.489c0-1.211,0.983-2.194,2.194-2.194s2.194,0.983,2.194,2.194v50.315
			c0,1.211-0.983,2.195-2.194,2.195s-2.194-0.983-2.194-2.195V561.489z"/>
		<path style="fill:#FFFFFF;stroke:#FFFFFF;stroke-width:4;stroke-miterlimit:10;" d="M-545.22,526.207
			c0-1.211,0.983-2.194,2.194-2.194s2.194,0.983,2.194,2.194v34.573c0,1.211-0.983,2.194-2.194,2.194s-2.194-0.983-2.194-2.194
			V526.207L-545.22,526.207z M-545.22,577.234c0-1.211,0.983-2.194,2.194-2.194s2.194,0.983,2.194,2.194v34.571
			c0,1.211-0.983,2.195-2.194,2.195s-2.194-0.983-2.194-2.195V577.234z"/>
		<path style="fill:#FFFFFF;stroke:#FFFFFF;stroke-width:4;stroke-miterlimit:10;" d="M-581.302,542.841
			c2.877,0,5.482,1.166,7.369,3.052c1.886,1.887,3.052,4.492,3.052,7.369c0,2.876-1.166,5.482-3.052,7.368
			c-1.887,1.887-4.492,3.053-7.369,3.053s-5.482-1.166-7.368-3.053c-1.887-1.886-3.053-4.492-3.053-7.368
			c0-2.877,1.166-5.482,3.053-7.369C-586.785,544.008-584.18,542.841-581.302,542.841L-581.302,542.841z M-577.036,548.996
			c-1.091-1.091-2.6-1.766-4.267-1.766s-3.176,0.675-4.266,1.766c-1.091,1.091-1.766,2.6-1.766,4.267
			c0,1.666,0.675,3.176,1.766,4.267c1.09,1.09,2.599,1.766,4.266,1.766s3.176-0.676,4.267-1.766
			c1.091-1.091,1.766-2.601,1.766-4.267C-575.269,551.595-575.944,550.087-577.036,548.996z"/>
		<path style="fill:#FFFFFF;stroke:#FFFFFF;stroke-width:4;stroke-miterlimit:10;" d="M-619.579,574.331
			c2.877,0,5.482,1.166,7.368,3.053c1.887,1.886,3.053,4.491,3.053,7.368s-1.166,5.482-3.053,7.368
			c-1.886,1.887-4.491,3.053-7.368,3.053c-2.877,0-5.482-1.166-7.368-3.053c-1.887-1.886-3.053-4.491-3.053-7.368
			s1.166-5.482,3.053-7.368C-625.062,575.497-622.457,574.331-619.579,574.331L-619.579,574.331z M-615.312,580.485
			c-1.091-1.091-2.6-1.766-4.267-1.766c-1.667,0-3.176,0.675-4.267,1.766s-1.766,2.601-1.766,4.267c0,1.667,0.675,3.176,1.766,4.267
			s2.6,1.766,4.267,1.766c1.667,0,3.176-0.675,4.267-1.766s1.766-2.6,1.766-4.267C-613.546,583.086-614.221,581.576-615.312,580.485
			z"/>
		<path style="fill:#FFFFFF;stroke:#FFFFFF;stroke-width:4;stroke-miterlimit:10;" d="M-543.026,558.586
			c2.877,0,5.482,1.166,7.369,3.052c1.886,1.887,3.052,4.492,3.052,7.369s-1.166,5.482-3.052,7.369
			c-1.887,1.886-4.492,3.052-7.369,3.052c-2.876,0-5.482-1.166-7.368-3.052c-1.887-1.887-3.053-4.492-3.053-7.369
			s1.166-5.482,3.053-7.369C-548.509,559.752-545.903,558.586-543.026,558.586L-543.026,558.586z M-538.76,564.74
			c-1.091-1.091-2.6-1.766-4.267-1.766c-1.666,0-3.176,0.675-4.266,1.766c-1.091,1.091-1.767,2.6-1.767,4.267
			s0.676,3.176,1.767,4.267c1.09,1.091,2.6,1.766,4.266,1.766c1.667,0,3.176-0.675,4.267-1.766s1.766-2.6,1.766-4.267
			S-537.668,565.831-538.76,564.74z"/>
	</g>
</g>
<g id="Layer_1">
</g>
</svg>
