<?xml version="1.0" encoding="iso-8859-1"?>
<!-- Generator: Adobe Illustrator 21.1.0, SVG Export Plug-In . SVG Version: 6.00 Build 0)  -->
<svg version="1.1" xmlns="http://www.w3.org/2000/svg" xmlns:xlink="http://www.w3.org/1999/xlink" x="0px" y="0px"
	 viewBox="0 0 92.71 92.716" style="enable-background:new 0 0 92.71 92.716;" xml:space="preserve">
<g id="settings">
	<g transform="translate(0,-952.36218)">
		<path style="fill:#303030;" d="M12.318,1045.078c-3.294,0-6.389-1.281-8.715-3.606c-4.805-4.806-4.805-12.624,0-17.43
			l37.916-37.916c-2.814-9.324-0.355-19.314,6.432-26.102c4.94-4.94,11.512-7.662,18.505-7.662c0.568,0,1.138,0.019,1.705,0.056
			c2.486,0.161,4.895,0.65,7.157,1.454c0.267,0.1,0.508,0.256,0.699,0.455c0.711,0.737,0.689,1.918-0.048,2.631l-13.927,13.963
			l2.685,9.429l9.464,2.719l13.971-13.972c0.191-0.184,0.4-0.315,0.641-0.405c0.212-0.079,0.432-0.119,0.653-0.119
			c0.771,0,1.473,0.486,1.744,1.21c3.379,9.519,0.979,20.25-6.112,27.342c-4.888,4.886-11.419,7.577-18.391,7.577
			c-2.628,0-5.233-0.386-7.748-1.146l-37.916,37.916C18.707,1043.797,15.612,1045.078,12.318,1045.078z M66.44,956.089
			c-6.002,0-11.637,2.329-15.866,6.559c-6.174,6.174-8.183,15.156-5.242,23.44c0.248,0.69,0.065,1.465-0.466,1.974l-38.604,38.64
			c-3.405,3.405-3.405,8.742,0,12.147c1.635,1.635,3.792,2.535,6.074,2.535c2.281,0,4.438-0.9,6.073-2.535l38.65-38.65
			c0.343-0.352,0.827-0.555,1.325-0.555c0.201,0,0.399,0.032,0.589,0.096c2.463,0.874,5.03,1.316,7.636,1.316
			c5.996,0,11.627-2.328,15.854-6.555c5.268-5.268,7.462-12.857,5.907-20.367l-12.32,12.32c-0.352,0.353-0.819,0.547-1.317,0.547
			c-0.184,0-0.366-0.027-0.543-0.081l-11.455-3.264c-0.624-0.178-1.103-0.656-1.28-1.28l-3.303-11.502
			c-0.198-0.653-0.019-1.363,0.47-1.851L71,956.68c-1.126-0.281-2.098-0.479-3.074-0.543
			C67.431,956.105,66.937,956.089,66.44,956.089z"/>
	</g>
</g>
<g id="Layer_1">
</g>
</svg>
