<?xml version="1.0" encoding="iso-8859-1"?>
<!-- Generator: Adobe Illustrator 21.1.0, SVG Export Plug-In . SVG Version: 6.00 Build 0)  -->
<svg version="1.1" xmlns="http://www.w3.org/2000/svg" xmlns:xlink="http://www.w3.org/1999/xlink" x="0px" y="0px"
	 viewBox="0 0 92.71 92.716" style="enable-background:new 0 0 92.71 92.716;" xml:space="preserve">
<g id="settings">
	<g transform="translate(0,-952.36218)">
		<path style="fill:#303030;" d="M12.318,1045.078c-3.294,0-6.389-1.281-8.715-3.606c-4.805-4.806-4.805-12.624,0-17.43
			l37.916-37.916c-2.814-9.324-0.355-19.314,6.432-26.102c4.94-4.94,11.512-7.662,18.505-7.662c0.568,0,1.138,0.019,1.705,0.056
			c2.486,0.161,4.895,0.65,7.157,1.454c0.267,0.1,0.508,0.256,0.699,0.455c0.711,0.737,0.689,1.918-0.048,2.631l-13.927,13.963
			l2.685,9.429l9.464,2.719l13.971-13.972c0.191-0.184,0.4-0.315,0.641-0.405c0.212-0.079,0.432-0.119,0.653-0.119
			c0.771,0,1.473,0.486,1.744,1.21c3.379,9.519,0.979,20.25-6.112,27.342c-4.888,4.886-11.419,7.577-18.391,7.577
			c-2.628,0-5.233-0.386-7.748-1.146l-37.916,37.916C18.707,1043.797,15.612,1045.078,12.318,1045.078z"/>
	</g>
</g>
<g id="Layer_1">
</g>
</svg>
