<?xml version="1.0" encoding="iso-8859-1"?>
<!-- Generator: Adobe Illustrator 21.1.0, SVG Export Plug-In . SVG Version: 6.00 Build 0)  -->
<svg version="1.1" xmlns="http://www.w3.org/2000/svg" xmlns:xlink="http://www.w3.org/1999/xlink" x="0px" y="0px"
	 viewBox="0 0 108 90" style="enable-background:new 0 0 108 90;" xml:space="preserve">
<g id="signal">
	<g>
		<path style="fill:#303030;" d="M104.833,0H93.167C91.425,0,90,1.425,90,3.167v83.667C90,88.575,91.425,90,93.167,90h11.667
			c1.742,0,3.167-1.425,3.167-3.167V3.167C108,1.425,106.575,0,104.833,0z"/>
		<path style="fill:#303030;" d="M70.448,18c-1.621,0-2.948,1.327-2.948,2.948v66.104c0,1.621,1.327,2.948,2.948,2.948h12.104
			c1.621,0,2.948-1.327,2.948-2.948V20.948c0-1.621-1.327-2.948-2.948-2.948H70.448z"/>
		<path style="fill:#303030;" d="M48.448,36C46.552,36,45,37.552,45,39.448v47.104C45,88.448,46.552,90,48.448,90h11.104
			C61.448,90,63,88.448,63,86.552V39.448C63,37.552,61.448,36,59.552,36H48.448z"/>
		<path style="fill:#303030;" d="M25.542,54c-1.673,0-3.042,1.369-3.042,3.042v29.917c0,1.673,1.369,3.042,3.042,3.042h11.917
			c1.673,0,3.042-1.369,3.042-3.042V57.042c0-1.673-1.369-3.042-3.042-3.042H25.542z"/>
		<path style="fill:#303030;" d="M2.854,90h12.292C16.716,90,18,88.716,18,87.146V74.854C18,73.284,16.716,72,15.146,72H2.854
			C1.284,72,0,73.284,0,74.854v12.292C0,88.716,1.284,90,2.854,90z"/>
	</g>
</g>
<g id="Layer_1">
</g>
</svg>
