<?xml version="1.0" encoding="iso-8859-1"?>
<!-- Generator: Adobe Illustrator 21.1.0, SVG Export Plug-In . SVG Version: 6.00 Build 0)  -->
<svg version="1.1" xmlns="http://www.w3.org/2000/svg" xmlns:xlink="http://www.w3.org/1999/xlink" x="0px" y="0px"
	 viewBox="0 0 92.953 102.988" style="enable-background:new 0 0 92.953 102.988;" xml:space="preserve">
<g id="support">
	<g>
		<path style="fill:#FFFFFF;" d="M72.567,102.988c-4.734,0-29.488-1.307-51.9-27.108C-6.478,44.663,0.888,17.474,0.975,17.214
			C2.419,11.604,11.447,0,18.451,0c0.188,0,0.375,0.009,0.558,0.026c0.004,0,0.006,0,0.009,0c1.544,0,3.463,1.508,5.743,4.605
			c3.521,4.898,12.061,20.113,11.527,23.046c-0.683,2.97-8.27,7.801-10.688,9.157c0.003,3.066,4.938,17.998,12.74,25.962
			C48.784,73.242,56.614,74.803,60.35,74.803c0.348,0,1.272-0.529,2.087-0.995l0.22-0.126c1.8-1.08,4.298-2.58,7.873-2.58
			c5.439,0,18.277,9.58,21.139,12.634l0.093,0.11l0.245,0.321c0.486,0.629,0.945,1.222,0.945,2.138
			C92.733,91.196,79.317,102.988,72.567,102.988z M17.59,4.619C13.769,5.634,6.476,13.627,5.169,18.526l-0.017,0.104
			C0.107,43.955,19.93,68.395,23.956,73.037c3.681,4.252,23.321,25.46,48.61,25.46c4.425,0,14.184-8.876,15.721-11.9
			c-2.578-2.573-14.307-11.005-17.571-11.005c-2.257,0-4.078,1.011-5.562,2c-1.499,0.861-2.97,1.703-4.619,1.703
			c-4.409,0-13.566-1.733-25.359-13.337C26.923,57.704,20.4,40.843,21.288,35.731c0.2-0.812,0.499-2.007,1.702-2.47
			c2.723-1.382,7.412-4.984,8.55-6.259c-0.503-1.497-2.758-6.255-5.76-11.545c-4.559-8.028-6.997-10.56-7.65-10.777L17.59,4.619z"/>
		<path style="fill:#FFFFFF;" d="M72.567,101.668c-4.628,0-28.876-1.296-50.904-26.655C-4.251,45.211,1.857,18.741,2.227,17.631
			C3.708,11.892,12.964,0.786,18.887,1.341c0.74,0,2.221,0.555,4.813,4.072c4.257,5.923,11.662,19.991,11.291,22.027
			c-0.555,2.406-8.885,7.774-10.551,8.515c-1.111,1.666,4.257,18.881,12.957,27.766C48.319,74.643,56.463,76.124,60.35,76.124
			c0.74,0,1.666-0.555,2.962-1.296c1.851-1.111,4.072-2.406,7.219-2.406c4.813,0,17.4,9.255,20.176,12.217
			c0.555,0.74,0.926,1.111,0.926,1.666C91.448,90.377,78.491,101.668,72.567,101.668z M18.332,3.192
			c-4.443,0-12.957,9.44-14.438,14.993C3.708,19.297-2.4,44.656,22.959,73.902c21.472,24.804,44.98,25.915,49.608,25.915
			c5.183,0,16.659-10.366,17.215-13.513c-1.296-1.851-14.808-12.032-19.066-12.032c-2.591,0-4.628,1.111-6.294,2.221
			c-1.296,0.74-2.591,1.481-3.887,1.481c-4.257,0-12.957-1.666-24.434-12.957c-8.33-8.33-14.253-24.804-13.513-29.061
			c0.185-0.74,0.37-1.296,0.926-1.481c2.962-1.481,9.07-6.108,9.44-7.219C32.77,25.035,21.663,3.748,18.332,3.378V3.192z"/>
	</g>
</g>
<g id="Layer_1">
</g>
</svg>
