<?xml version="1.0" encoding="iso-8859-1"?>
<!-- Generator: Adobe Illustrator 21.1.0, SVG Export Plug-In . SVG Version: 6.00 Build 0)  -->
<svg version="1.1" xmlns="http://www.w3.org/2000/svg" xmlns:xlink="http://www.w3.org/1999/xlink" x="0px" y="0px"
	 viewBox="0 0 132 132" width="132" height="132" style="enable-background:new 0 0 132 132;" xml:space="preserve">
<g id="tag_x5F_pin">
	<g>
		<g>
			<path style="fill:#5D6771;" d="M66,130.5c-35.565,0-64.5-28.935-64.5-64.5S30.435,1.5,66,1.5s64.5,28.935,64.5,64.5
				S101.565,130.5,66,130.5z"/>
			<path style="fill:#FFFFFF;" d="M66,3c34.738,0,63,28.262,63,63s-28.262,63-63,63S3,100.738,3,66S31.262,3,66,3 M66,0
				C29.549,0,0,29.549,0,66s29.549,66,66,66s66-29.549,66-66S102.451,0,66,0L66,0z"/>
		</g>
	</g>
	<g>
		<path style="fill:#FFFFFF;" d="M79.407,61.039c-2.301,0-4.451-0.884-6.056-2.489c-1.605-1.605-2.489-3.789-2.489-6.151
			c0-2.361,0.884-4.545,2.489-6.15c1.582-1.583,3.823-2.49,6.15-2.49c2.268,0,4.474,0.908,6.054,2.49
			c1.606,1.605,2.491,3.79,2.491,6.15c0,2.361-0.885,4.545-2.491,6.151C83.951,60.155,81.768,61.039,79.407,61.039z M79.596,46.901
			c-1.516,0-2.866,0.55-3.907,1.59c-1.04,1.04-1.591,2.391-1.591,3.908s0.551,2.868,1.591,3.908
			c0.922,0.997,2.346,1.591,3.813,1.591c1.517,0,2.867-0.55,3.908-1.591c0.988-0.914,1.602-2.357,1.686-3.962
			c0-1.478-0.551-2.812-1.591-3.853C82.494,47.48,81.069,46.901,79.596,46.901z"/>
		<path style="fill:#FFFFFF;" d="M52.838,116.074c-3.708,0-7.139-1.39-9.662-3.913L19.739,88.724
			c-2.524-2.732-3.913-6.162-3.913-9.66c0-3.834,1.599-7.632,4.387-10.421l38.431-38.336c2.373-2.269,5.274-3.522,8.393-3.627
			l36.258-0.854c0.797,0,1.487,0.27,1.999,0.781c0.634,0.635,0.896,1.336,0.778,2.084l-0.852,36.258c0,2.99-1.355,6.132-3.628,8.402
			l-38.334,38.43C60.393,114.551,56.692,116.074,52.838,116.074z M67.19,29.915c-2.343,0.084-4.478,0.983-6.343,2.671L22.455,70.886
			c-2.156,2.157-3.393,5.138-3.393,8.178c0,2.756,1.076,5.396,3.03,7.435l23.423,23.518c1.929,1.929,4.559,2.992,7.406,2.992
			c3.018,0,6.005-1.232,8.197-3.381l38.327-38.421c1.699-1.7,2.636-3.897,2.636-6.187l0.938-35.948L67.19,29.915z"/>
	</g>
</g>
<g id="Layer_1">
</g>
</svg>
