<svg xmlns="http://www.w3.org/2000/svg" xmlns:xlink="http://www.w3.org/1999/xlink" style="isolation:isolate;" viewBox="0 0 64 80" x="0px" y="0px"><defs><clipPath id="a"><rect width="64" height="64"/></clipPath></defs><g clip-path="url(#a)"><path d=" M 59.5 7 C 60.16 7 60.8 6.74 61.27 6.27 C 61.74 5.8 62 5.16 62 4.5 C 62 3.84 61.74 3.2 61.27 2.73 C 60.8 2.26 60.16 2 59.5 2 L 4.5 2 C 3.84 2 3.2 2.26 2.73 2.73 C 2.26 3.2 2 3.84 2 4.5 C 2 5.16 2.26 5.8 2.73 6.27 C 3.2 6.74 3.84 7 4.5 7 L 59.5 7 Z " fill="rgb(0,0,0)"/><path d=" M 34.5 21.7 L 34.5 59.5 C 34.5 60.16 34.24 60.8 33.77 61.27 C 33.3 61.74 32.66 62 32 62 C 31.34 62 30.7 61.74 30.23 61.27 C 29.76 60.8 29.5 60.16 29.5 59.5 L 29.5 21.7 C 29.5 20.596 28.866 20.334 28.086 21.114 L 15.43 33.77 C 14.97 34.24 14.33 34.5 13.67 34.5 C 13 34.5 12.37 34.24 11.9 33.77 C 11.43 33.3 11.17 32.66 11.17 32 C 11.17 31.34 11.43 30.7 11.9 30.23 L 30.586 11.544 C 31.366 10.764 32.634 10.764 33.414 11.544 L 52.1 30.23 C 52.57 30.7 52.83 31.34 52.83 32 C 52.83 32.66 52.57 33.3 52.1 33.77 C 51.63 34.24 51 34.5 50.33 34.5 C 49.67 34.5 49.03 34.24 48.57 33.77 L 35.914 21.114 C 35.134 20.334 34.5 20.596 34.5 21.7 Z " fill="rgb(0,0,0)"/></g></svg>