<?xml version="1.0" encoding="iso-8859-1"?>
<!-- Generator: Adobe Illustrator 21.1.0, SVG Export Plug-In . SVG Version: 6.00 Build 0)  -->
<svg version="1.1" xmlns="http://www.w3.org/2000/svg" xmlns:xlink="http://www.w3.org/1999/xlink" x="0px" y="0px"
	 viewBox="0 0 132 132" width="132" height="132" style="enable-background:new 0 0 132 132;" xml:space="preserve">
<g id="user_x5F_pin">
	<g>
		<path style="fill:#5D6771;" d="M66,130.5c-35.565,0-64.5-28.935-64.5-64.5S30.435,1.5,66,1.5s64.5,28.935,64.5,64.5
			S101.565,130.5,66,130.5z"/>
		<path style="fill:#FFFFFF;" d="M66,3c34.738,0,63,28.262,63,63s-28.262,63-63,63S3,100.738,3,66S31.262,3,66,3 M66,0
			C29.549,0,0,29.549,0,66s29.549,66,66,66s66-29.549,66-66S102.451,0,66,0L66,0z"/>
	</g>
	<path style="fill:#FFFFFF;" d="M31.435,104.6c-2.39,0-4.334-1.944-4.334-4.334v-14.11c0-1.779,0.968-3.229,2.59-3.877
		l26.682-11.613c0.517-0.208,0.959-0.744,1.191-1.438c0.211-0.633-0.039-1.368-0.685-2.015c-5.401-5.543-9.028-15.385-9.028-24.494
		c0-15.417,9.542-22.318,18.998-22.318c9.457,0,18.998,6.901,18.998,22.318c0,9.108-3.626,18.95-9.023,24.489
		c-0.54,0.54-0.782,1.313-0.666,2.124c0.093,0.555,0.473,0.985,1.196,1.346l26.669,11.607c1.536,0.613,2.574,2.17,2.574,3.87v14.249
		c-0.164,2.323-2.108,4.196-4.334,4.196H31.435z M66.848,24.366c-8.991,0-15.032,7.375-15.032,18.352
		c0,8.208,3.209,16.932,7.986,21.709c1.523,1.522,2.152,3.644,1.683,5.677c-0.451,1.8-1.65,3.222-3.38,4.008L31.397,85.736
		c-0.046,0.024-0.193,0.117-0.193,0.28v14.249c0,0.22,0.148,0.369,0.369,0.369h70.688c0.22,0,0.369-0.148,0.369-0.369v-14.11
		c0-0.159-0.139-0.251-0.222-0.292L75.739,74.255c-1.642-0.746-2.905-2.236-3.383-3.988c-0.474-2.052,0.154-4.179,1.677-5.701
		c4.776-4.777,7.986-13.501,7.986-21.709C81.885,31.798,75.789,24.366,66.848,24.366z"/>
</g>
<g id="Layer_1">
</g>
</svg>
