<?xml version="1.0" encoding="iso-8859-1"?>
<!-- Generator: Adobe Illustrator 21.1.0, SVG Export Plug-In . SVG Version: 6.00 Build 0)  -->
<svg version="1.1" xmlns="http://www.w3.org/2000/svg" xmlns:xlink="http://www.w3.org/1999/xlink" x="0px" y="0px"
	 viewBox="0 0 79.496 84.199" style="enable-background:new 0 0 79.496 84.199;" xml:space="preserve">
<g id="user">
	<path style="fill:#303030;" d="M4.334,84.199C1.944,84.199,0,82.255,0,79.865v-14.11c0-1.779,0.968-3.229,2.59-3.877l26.682-11.613
		c0.517-0.208,0.959-0.744,1.191-1.438c0.211-0.633-0.039-1.368-0.685-2.015c-5.401-5.543-9.028-15.385-9.028-24.494
		C20.75,6.901,30.292,0,39.748,0c9.457,0,18.998,6.901,18.998,22.318c0,9.108-3.626,18.95-9.023,24.489
		c-0.54,0.54-0.782,1.313-0.666,2.124c0.093,0.555,0.473,0.985,1.196,1.346l26.669,11.607c1.536,0.613,2.574,2.17,2.574,3.87v14.249
		c-0.164,2.323-2.108,4.196-4.334,4.196H4.334z"/>
</g>
<g id="Layer_1">
</g>
</svg>
