<?xml version="1.0" encoding="iso-8859-1"?>
<!-- Generator: Adobe Illustrator 21.0.0, SVG Export Plug-In . SVG Version: 6.00 Build 0)  -->
<svg version="1.1" xmlns="http://www.w3.org/2000/svg" xmlns:xlink="http://www.w3.org/1999/xlink" x="0px" y="0px"
	 viewBox="0 0 132 132" style="enable-background:new 0 0 132 132;" xml:space="preserve">
<g id="user">
	<path style="fill:#FFFFFF;" d="M-490.179,610.723c-3.311-7.41-8.116-14.14-14.148-19.817c-6.013-5.693-13.136-10.232-20.976-13.366
		c-0.07-0.033-0.14-0.05-0.211-0.083c10.936-7.462,18.045-19.618,18.045-33.332c0-22.719-19.484-41.126-43.532-41.126
		s-43.532,18.407-43.532,41.126c0,13.714,7.109,25.869,18.045,33.348c-0.07,0.033-0.14,0.05-0.211,0.083
		c-7.864,3.134-14.92,7.628-20.976,13.366c-6.026,5.681-10.83,12.41-14.148,19.817c-3.259,7.251-5.017,15.025-5.178,22.901
		c-0.019,0.732,0.593,1.341,1.369,1.359c0.012,0,0.024,0,0.036,0h10.532c0.772,0,1.387-0.58,1.404-1.293
		c0.351-12.802,5.793-24.791,15.412-33.879c9.953-9.403,23.17-14.576,37.248-14.576s27.295,5.174,37.248,14.576
		c9.619,9.087,15.061,21.077,15.412,33.879c0.018,0.73,0.632,1.293,1.404,1.293h10.532c0.776,0,1.404-0.594,1.405-1.326
		c0-0.011,0-0.022,0-0.034C-485.176,625.714-486.914,618.003-490.179,610.723z M-551,572.648c-8.057,0-15.64-2.968-21.345-8.358
		c-5.705-5.389-8.847-12.553-8.847-20.165c0-7.612,3.142-14.775,8.847-20.165c5.705-5.389,13.288-8.358,21.345-8.358
		s15.64,2.968,21.345,8.358c5.705,5.389,8.847,12.553,8.847,20.165c0,7.612-3.142,14.775-8.847,20.165
		C-535.36,569.68-542.943,572.648-551,572.648z"/>
</g>
<g id="Layer_1">
</g>
</svg>
