<?xml version="1.0" encoding="iso-8859-1"?>
<!-- Generator: Adobe Illustrator 23.0.1, SVG Export Plug-In . SVG Version: 6.00 Build 0)  -->
<svg version="1.1" xmlns="http://www.w3.org/2000/svg" xmlns:xlink="http://www.w3.org/1999/xlink" x="0px" y="0px"
	 viewBox="0 0 144.82 108.861" style="enable-background:new 0 0 144.82 108.861;" xml:space="preserve">
<g id="video">
	<g>
		<path style="fill-rule:evenodd;clip-rule:evenodd;fill:#FFFFFF;" d="M-595.962,724.671c37.859-7.558,76.145-7.234,114.816,0.127
			c6.754,1.283,11.791,7.003,12.8,14.538c2.987,22.373,2.82,45.197-0.104,68.436c-0.978,7.685-6.129,13.521-13.039,14.711
			c-39.326,6.841-77.654,7.743-114.535,0.3c-6.691-1.341-11.624-6.992-12.654-14.445c-3.257-23.783-2.945-46.768,0.052-69.164
			c0.989-7.477,5.973-13.163,12.675-14.503H-595.962z M-518.131,773.566l-35.32-22.65v45.289l35.32-22.65V773.566z"/>
	</g>
</g>
</svg>
