<?xml version="1.0" encoding="iso-8859-1"?>
<!-- Generator: Adobe Illustrator 21.1.0, SVG Export Plug-In . SVG Version: 6.00 Build 0)  -->
<svg version="1.1" xmlns="http://www.w3.org/2000/svg" xmlns:xlink="http://www.w3.org/1999/xlink" x="0px" y="0px"
	 viewBox="0 0 105.825 90.375" width="105.825" height="90.375" style="enable-background:new 0 0 105.825 90.375;" xml:space="preserve">
<g id="warning">
	<g>
		<path style="fill:#303030;" d="M2.161,90.375c-0.799,0-1.45-0.342-1.836-0.963c-0.434-0.704-0.434-1.416-0.002-2.117L51.075,1.102
			C51.497,0.419,52.198,0,52.912,0c0.83,0,1.466,0.383,1.838,1.106l50.749,86.188c0.435,0.701,0.435,1.558-0.005,2.123
			c-0.449,0.581-1.169,0.957-1.832,0.957H2.161z M52.911,6.606c-0.143,0-0.266,0.07-0.339,0.194L6.225,85.602
			c-0.073,0.125-0.074,0.269-0.003,0.393c0.072,0.127,0.197,0.199,0.343,0.199H99.26c0.145,0,0.27-0.072,0.341-0.198
			c0.072-0.125,0.071-0.269-0.002-0.395L53.251,6.802C53.178,6.678,53.055,6.606,52.911,6.606z"/>
		<path style="fill:#303030;" d="M52.617,35.732c-1.128,0-2.115,0.955-2.115,2.046v23.185c0,1.091,0.987,2.046,2.115,2.046
			s2.115-0.955,2.115-2.046V37.777C54.731,36.686,53.745,35.732,52.617,35.732z"/>
		<path style="fill:#303030;" d="M52.617,68.463c-1.128,0-2.115,0.955-2.115,2.046v2.728c0,1.091,0.987,2.046,2.115,2.046
			s2.115-0.955,2.115-2.046v-2.728C54.731,69.418,53.745,68.463,52.617,68.463z"/>
	</g>
</g>
<g id="Layer_1">
</g>
</svg>
