<?xml version="1.0" encoding="iso-8859-1"?>
<!-- Generator: Adobe Illustrator 21.1.0, SVG Export Plug-In . SVG Version: 6.00 Build 0)  -->
<svg version="1.1" xmlns="http://www.w3.org/2000/svg" xmlns:xlink="http://www.w3.org/1999/xlink" x="0px" y="0px"
	 viewBox="0 0 76.262 76.261" style="enable-background:new 0 0 76.262 76.261;" xml:space="preserve">
<g id="x">
	<g>
		<path d="M2.313,76.261c-0.615,0-1.195-0.239-1.634-0.673c-0.905-0.905-0.905-2.371-0.003-3.273L72.315,0.677
			C72.751,0.24,73.332,0,73.95,0c0.618,0,1.199,0.24,1.635,0.677c0.437,0.436,0.677,1.017,0.677,1.635s-0.24,1.199-0.677,1.635
			L3.947,75.585C3.511,76.022,2.931,76.261,2.313,76.261z"/>
		<path d="M2.314,75.539c-0.407,0-0.814-0.156-1.126-0.464c-0.62-0.62-0.62-1.628,0-2.249L72.826,1.188
			c0.62-0.62,1.628-0.62,2.249,0s0.62,1.628,0,2.249L3.436,75.074C3.128,75.383,2.721,75.539,2.314,75.539z"/>
		<path d="M73.949,76.261c-0.615,0-1.196-0.239-1.635-0.674L0.677,3.947C0.24,3.511,0,2.93,0,2.312s0.24-1.199,0.677-1.635
			C1.113,0.24,1.694,0,2.312,0s1.199,0.24,1.635,0.677l71.638,71.638c0.902,0.902,0.902,2.369,0,3.27
			C75.144,76.022,74.563,76.261,73.949,76.261z"/>
		<path d="M73.949,75.539c-0.407,0-0.814-0.156-1.126-0.464L1.188,3.436c-0.62-0.62-0.62-1.628,0-2.249s1.628-0.62,2.249,0
			l71.638,71.638c0.62,0.62,0.62,1.628,0,2.249C74.763,75.383,74.356,75.539,73.949,75.539z"/>
	</g>
</g>
<g id="Layer_1">
</g>
</svg>
