<?xml version="1.0" encoding="iso-8859-1"?>
<!-- Generator: Adobe Illustrator 21.1.0, SVG Export Plug-In . SVG Version: 6.00 Build 0)  -->
<svg version="1.1" id="Layer_1" xmlns="http://www.w3.org/2000/svg" xmlns:xlink="http://www.w3.org/1999/xlink" x="0px" y="0px"
	 viewBox="0 0 132 132" style="enable-background:new 0 0 132 132;" xml:space="preserve">
<g>
	<path style="fill:#303030;" d="M30.051,103.999c-0.615,0-1.195-0.239-1.634-0.673c-0.905-0.905-0.905-2.371-0.003-3.273
		l71.638-71.638c0.436-0.437,1.017-0.677,1.635-0.677c0.618,0,1.199,0.24,1.635,0.677C103.76,28.851,104,29.432,104,30.05
		c0,0.618-0.24,1.199-0.677,1.635l-71.638,71.638C31.249,103.759,30.669,103.999,30.051,103.999z"/>
	<path style="fill:#303030;" d="M101.687,103.999c-0.615,0-1.196-0.239-1.635-0.674l-71.637-71.64
		c-0.437-0.436-0.677-1.017-0.677-1.635c0-0.618,0.24-1.199,0.677-1.635c0.436-0.437,1.017-0.677,1.635-0.677
		c0.618,0,1.199,0.24,1.635,0.677l71.638,71.638c0.902,0.902,0.902,2.369,0,3.27C102.881,103.76,102.301,103.999,101.687,103.999z"
		/>
</g>
</svg>
