<svg id="Layer_1" data-name="Layer 1" xmlns="http://www.w3.org/2000/svg" viewBox="0 0 72.19 99.95"><title>logo</title><path d="M53.87,23,48,35.08a1.11,1.11,0,0,0,2,1l6.18-12.63a1.11,1.11,0,0,0-.06-1.08L53.14,17.7,55.56,13a3.45,3.45,0,0,0,.8.1l.4,0a3.48,3.48,0,0,0-.4-6.94l-.4,0a3.47,3.47,0,0,0-2.28,5.66l-2.79,5.47a1.11,1.11,0,0,0,0,1.09ZM56,8.31a1.27,1.27,0,1,1-1.12,1.41A1.27,1.27,0,0,1,56,8.31Z" style="fill:#939598"/><path d="M11.7,49.26A1.11,1.11,0,1,0,10,50.6l9.63,12.54v8.36a1.11,1.11,0,0,0,2.21,0V62.77a1.11,1.11,0,0,0-.23-.67Z" style="fill:#939598"/><path d="M38.41,43.25l3.73,6.34a1.11,1.11,0,1,0,1.91-1.11L40,41.6A1.11,1.11,0,0,0,39,41h-9.2a1.11,1.11,0,0,0,0,2.21Z" style="fill:#939598"/><path d="M29.52,59.51H39.79a1.11,1.11,0,1,0,0-2.21H30.16L25.8,49.87A1.11,1.11,0,0,0,23.89,51l4.67,8A1.11,1.11,0,0,0,29.52,59.51Z" style="fill:#939598"/><path d="M20.34,36.21a1.11,1.11,0,0,0,1-1.49L17.74,25a1.11,1.11,0,0,0-2.07.78l3.64,9.69A1.11,1.11,0,0,0,20.34,36.21Z" style="fill:#939598"/><path d="M72.17,50.73a3.48,3.48,0,0,0-3.46-3.08l-.4,0a3.46,3.46,0,0,0-2.58,5.23L52.36,65.5l-8.63,3.9V64.46L46.91,59a3.45,3.45,0,0,0,.94.14l.4,0a3.28,3.28,0,0,0,2.58-1.69H55a1.11,1.11,0,0,0,.74-.29l4.28-3.88a1.11,1.11,0,0,0-1.49-1.64l-4,3.6H51.3a3.46,3.46,0,0,0-1-2l1.55-2.68a1.11,1.11,0,0,0,0-1.11L44,35.83c1.08-2.29,5.71-11.88,6.07-12.56l0-.07a1.11,1.11,0,0,0-.5-1.48,1.15,1.15,0,0,0-1.5.52l-.07.15C44.46,29.55,42.73,33,42,34.78H38.48V17a1.11,1.11,0,0,0-.6-1l-4.7-2.44V6.78A3.48,3.48,0,0,0,32.09,0l-.4,0A3.48,3.48,0,0,0,31,6.77v7.51a1.11,1.11,0,0,0,.6,1l4.7,2.44V34.78H33.19V19.73a1.11,1.11,0,1,0-2.21,0V34.78H27.5L22.3,20.17a1.11,1.11,0,0,0-.81-.71l-5.37-1.14-1.71-5a3.45,3.45,0,0,0,.63-.5A3.47,3.47,0,0,0,12.13,6.9h-.07l-.14,0L11.58,7a3.47,3.47,0,0,0,.67,6.82l2,5.8a1.11,1.11,0,0,0,.82.73l5.39,1.14,5,14.11L18.28,48,14,42.93l.36-3.34a1.11,1.11,0,0,0-.28-.86L6.6,30.48a3.48,3.48,0,0,0-3.11-5l-.4,0a3.48,3.48,0,0,0,.4,6.94l.4,0A3.47,3.47,0,0,0,5,32l7.12,7.81-.36,3.31A1.11,1.11,0,0,0,12,44l5.57,6.7a1.1,1.1,0,0,0,1.56.14,1.08,1.08,0,0,0,.3-.42L27.2,37H42.13l7.46,12.92-1.31,2.27a3.44,3.44,0,0,0-.42,0l-.4,0a3.47,3.47,0,0,0-2.37,5.55l-2.95,5.11H26.57a1.11,1.11,0,0,0-1.11,1.11V88.75a1.11,1.11,0,1,0,2.21,0V65h5.82V98.85a1.11,1.11,0,1,0,2.21,0V65h5.82V80.72a1.11,1.11,0,1,0,2.21,0v-8.9l9.7-4.38a1.09,1.09,0,0,0,.3-.2L67.41,54.36a3.46,3.46,0,0,0,1.3.25l.4,0a3.48,3.48,0,0,0,3.06-3.86Zm-39.94-46a1.27,1.27,0,1,1,1.12-1.41A1.27,1.27,0,0,1,32.23,4.74ZM12.6,11.63a1.27,1.27,0,1,1,1.12-1.41A1.27,1.27,0,0,1,12.6,11.63Zm-9,18.56H3.48a1.27,1.27,0,0,1-.15-2.53h.15a1.27,1.27,0,0,1,.15,2.53ZM47.7,54.37h.15A1.27,1.27,0,0,1,48,56.89h-.15a1.27,1.27,0,0,1-.15-2.53Zm21.16-2h-.15a1.27,1.27,0,0,1-.15-2.53h.15a1.27,1.27,0,0,1,.15,2.53Z" style="fill:#ff671b"/></svg>