<?xml version="1.0" encoding="iso-8859-1"?>
<!-- Generator: Adobe Illustrator 21.1.0, SVG Export Plug-In . SVG Version: 6.00 Build 0)  -->
<svg version="1.1" id="Layer_1" xmlns="http://www.w3.org/2000/svg" xmlns:xlink="http://www.w3.org/1999/xlink" x="0px" y="0px"
	 viewBox="0 0 294 152" style="enable-background:new 0 0 294 152;" xml:space="preserve">
<path style="fill:#939598;" d="M37.013,93.76v7.118c0,1.988,0.764,2.538,3.318,2.538h8.094v2.485h-8.094
	c-4.01,0-5.857-1.384-5.857-5.023V93.76H37.013z"/>
<path style="fill:#939598;" d="M62.55,96.173c-2.379,0-3.089,0.905-3.266,2.52h12.673v2.272H59.284
	c0.177,1.616,0.887,2.503,3.266,2.503h9.62v2.431h-9.62c-4.349,0-5.857-2.077-5.857-6.071s1.508-6.07,5.857-6.07h9.62v2.414H62.55z"
	/>
<path style="fill:#939598;" d="M88.32,96.244c-2.893,0-3.976,0.373-3.976,2.876v0.337h11.609v2.254H84.343v4.189h-2.538v-6.78
	c0-4.153,2.167-5.36,6.514-5.36h8.077v2.485H88.32z"/>
<path style="fill:#939598;" d="M110.664,105.901v-9.851h-6.036v-2.29h14.609v2.29h-6.036v9.851H110.664z"/>
<path style="fill:#939598;" d="M177.742,105.901v-4.953h-10.187v4.953h-2.54V93.76h2.54v4.934h10.187V93.76h2.54v12.141H177.742z"/>
<path style="fill:#939598;" d="M206.76,105.901h-2.733l-1.543-2.999h-8.946l-1.546,2.999h-2.715l4.97-9.745
	c0.763-1.508,1.686-2.574,3.764-2.574c2.076,0,2.981,1.066,3.762,2.574L206.76,105.901z M199.269,96.671
	c-0.265-0.515-0.602-0.835-1.258-0.835c-0.658,0-0.995,0.32-1.261,0.835l-2.058,3.976h6.62L199.269,96.671z"/>
<path style="fill:#939598;" d="M218.276,105.901h-2.537V93.76h1.791c3.267,0,4.154,1.047,7.226,5.289
	c2.893,3.994,3.106,4.278,4.419,4.278h0.017V93.76h2.54v12.141h-1.794c-2.999,0-3.905-0.959-7.223-5.307
	c-3.106-4.065-3.196-4.26-4.42-4.26h-0.019V105.901z"/>
<path style="fill:#939598;" d="M241.864,93.76h9.975c4.349,0,5.839,2.076,5.839,6.07s-1.49,6.071-5.839,6.071h-9.975V93.76z
	 M251.839,96.227h-7.437v7.189h7.437c2.893,0,3.249-1.261,3.249-3.586C255.087,97.505,254.731,96.227,251.839,96.227z"/>
<path style="fill:#FF671B;" d="M11.302,115.806h22.686c6.417,0,10.389,2.903,10.389,8.135c0,3.666-1.947,5.92-5.347,6.913
	c3.323,1.069,4.773,3.208,4.773,5.919v5.156H38.15v-5.271c0-1.451-0.801-3.323-4.276-3.323h-17.11v8.593h-5.462V115.806z
	 M34.409,128.486c3.36,0,4.39-2.215,4.39-3.934c0-1.718-1.031-3.933-4.39-3.933H16.764v7.867H34.409z"/>
<path style="fill:#FF671B;" d="M85.168,128.868c0,10.12-5.882,13.443-18.333,13.443c-12.449,0-18.331-3.323-18.331-13.443
	c0-10.121,5.882-13.443,18.331-13.443C79.286,115.425,85.168,118.748,85.168,128.868z M79.593,128.868
	c0-7.295-4.202-8.288-12.758-8.288c-8.554,0-12.755,0.993-12.755,8.288c0,7.294,4.201,8.287,12.755,8.287
	C75.391,137.156,79.593,136.163,79.593,128.868z"/>
<path style="fill:#FF671B;" d="M118.283,128.601c3.59,1.031,5.156,3.284,5.156,6.264c0,4.124-2.978,7.065-10.197,7.065H90.365
	v-26.123h22.343c9.433,0,10.043,4.965,10.043,6.913C122.751,126.003,120.956,127.761,118.283,128.601z M113.051,126.233
	c2.98,0,4.392-0.954,4.392-2.75c0-1.681-1.221-2.864-4.01-2.864H95.635v5.614H113.051z M95.635,130.892v6.149h18.18
	c3.207,0,4.239-1.451,4.239-2.903c0-1.451-1.032-3.246-4.622-3.246H95.635z"/>
<path style="fill:#FF671B;" d="M164.078,128.868c0,10.12-5.881,13.443-18.331,13.443c-12.451,0-18.333-3.323-18.333-13.443
	c0-10.121,5.882-13.443,18.333-13.443C158.197,115.425,164.078,118.748,164.078,128.868z M158.501,128.868
	c0-7.295-4.201-8.288-12.755-8.288c-8.556,0-12.757,0.993-12.757,8.288c0,7.294,4.201,8.287,12.757,8.287
	C154.3,137.156,158.501,136.163,158.501,128.868z"/>
<path style="fill:#FF671B;" d="M179.09,141.93v-21.196h-12.986v-4.927h31.432v4.927h-12.986v21.196H179.09z"/>
<path style="fill:#FF671B;" d="M206.972,115.806v26.123h-5.462v-26.123H206.972z"/>
<path style="fill:#FF671B;" d="M245.547,121.115h-20.662c-6.264,0-7.028,2.75-7.028,7.753c0,5.003,0.764,7.714,7.028,7.714h20.662
	v5.347h-20.662c-9.396,0-12.604-4.469-12.604-13.061c0-8.593,3.209-13.062,12.604-13.062h20.662V121.115z"/>
<path style="fill:#FF671B;" d="M272.857,137.041c3.209,0,4.239-0.993,4.239-2.444c0-1.757-1.566-2.635-5.31-2.941l-12.641-0.993
	c-5.881-0.458-9.394-2.559-9.394-7.371c0-5.538,4.659-7.486,10.043-7.486h21.235v4.889h-21.731c-2.56,0-4.01,0.688-4.01,2.444
	c0,1.451,0.992,2.215,5.27,2.559l12.031,0.954c6.15,0.497,10.122,2.444,10.122,7.715c0,4.43-2.827,7.562-10.198,7.562h-22.877
	v-4.889H272.857z"/>
<g>
	<path style="fill:#939598;" d="M165.238,31.686l-5.905,12.074c-0.268,0.549-0.04,1.211,0.508,1.479
		c0.156,0.076,0.321,0.112,0.484,0.112c0.41,0,0.803-0.227,0.995-0.62l6.176-12.628c0.168-0.344,0.147-0.751-0.058-1.075
		l-2.928-4.646l2.423-4.742c0.259,0.061,0.525,0.104,0.801,0.104c0.133,0,0.269-0.008,0.405-0.024
		c0.924-0.108,1.751-0.569,2.328-1.298c0.577-0.73,0.836-1.64,0.728-2.564c-0.205-1.755-1.691-3.079-3.457-3.079
		c-0.134,0-0.269,0.008-0.405,0.024c-0.924,0.108-1.751,0.569-2.328,1.298c-0.578,0.73-0.836,1.64-0.728,2.564
		c0.08,0.686,0.36,1.301,0.772,1.802l-2.794,5.468c-0.177,0.348-0.158,0.762,0.049,1.093L165.238,31.686z M167.356,16.999
		c0.697-0.081,1.328,0.418,1.41,1.115c0.081,0.697-0.418,1.328-1.115,1.409c-0.697,0.081-1.328-0.418-1.41-1.115
		C166.16,17.711,166.659,17.08,167.356,16.999z"/>
	<path style="fill:#939598;" d="M123.075,57.942c-0.37-0.483-1.064-0.576-1.551-0.203c-0.484,0.372-0.574,1.066-0.203,1.551
		l9.633,12.542v8.364c0,0.61,0.495,1.106,1.106,1.106s1.106-0.495,1.106-1.106v-8.74c0-0.243-0.081-0.48-0.229-0.674L123.075,57.942
		z"/>
	<path style="fill:#939598;" d="M149.779,51.939l3.727,6.34c0.204,0.355,0.576,0.553,0.959,0.553c0.187,0,0.377-0.048,0.551-0.148
		c0.528-0.305,0.71-0.981,0.405-1.51l-4.047-6.893c-0.197-0.342-0.563-0.553-0.957-0.553h-9.196c-0.61,0-1.106,0.495-1.106,1.106
		s0.495,1.106,1.106,1.106H149.779z"/>
	<path style="fill:#939598;" d="M140.888,68.195h10.268c0.61,0,1.106-0.495,1.106-1.106c0-0.61-0.495-1.106-1.106-1.106h-9.63
		l-4.351-7.427c-0.304-0.528-0.979-0.713-1.51-0.405c-0.528,0.305-0.71,0.981-0.405,1.51l4.67,7.98
		C140.128,67.984,140.494,68.195,140.888,68.195z"/>
	<path style="fill:#939598;" d="M131.716,44.895c0.13,0,0.261-0.022,0.389-0.071c0.572-0.215,0.861-0.852,0.646-1.424l-3.639-9.693
		c-0.216-0.572-0.852-0.862-1.424-0.646c-0.572,0.214-0.861,0.852-0.646,1.424l3.639,9.693
		C130.848,44.622,131.268,44.895,131.716,44.895z"/>
	<path style="fill:#FF671B;" d="M183.542,59.417c-0.205-1.755-1.691-3.079-3.457-3.079c-0.134,0-0.269,0.008-0.405,0.024
		c-0.924,0.108-1.751,0.569-2.328,1.298c-0.577,0.729-0.836,1.64-0.728,2.564c0.059,0.502,0.231,0.962,0.476,1.372l-13.365,12.586
		l-8.626,3.897v-4.933l3.171-5.493c0.301,0.085,0.613,0.144,0.939,0.144c0.134,0,0.269-0.008,0.405-0.024
		c0.924-0.108,1.751-0.569,2.328-1.298c0.098-0.124,0.174-0.259,0.253-0.393h4.207c0.275,0,0.54-0.102,0.743-0.286l4.284-3.884
		c0.452-0.41,0.487-1.109,0.076-1.562c-0.41-0.452-1.11-0.487-1.562-0.076l-3.968,3.598h-3.314
		c-0.104-0.806-0.482-1.512-1.028-2.044l1.545-2.677c0.197-0.342,0.197-0.764,0-1.106l-7.81-13.53
		c1.083-2.289,5.712-11.879,6.065-12.557c0.013-0.022,0.026-0.045,0.037-0.068c0.274-0.546,0.052-1.21-0.495-1.484
		c-0.536-0.271-1.219-0.012-1.5,0.523c-0.003,0.005-0.071,0.141-0.073,0.146c-3.58,7.161-5.313,10.628-5.993,12.39h-3.564V25.718
		c0-0.412-0.23-0.791-0.596-0.981l-4.699-2.44v-6.829c0.636-0.212,1.2-0.601,1.625-1.139c0.578-0.73,0.836-1.64,0.728-2.564
		c-0.205-1.755-1.691-3.079-3.457-3.079c-0.134,0-0.269,0.008-0.405,0.024c-0.924,0.108-1.751,0.569-2.328,1.298
		c-0.577,0.73-0.836,1.64-0.728,2.564c0.16,1.371,1.106,2.469,2.353,2.888v7.509c0,0.412,0.23,0.791,0.596,0.981l4.699,2.44v17.076
		h-3.084V28.413c0-0.61-0.495-1.106-1.106-1.106c-0.61,0-1.106,0.495-1.106,1.106v15.052h-3.475l-5.206-14.609
		c-0.129-0.361-0.437-0.629-0.811-0.708l-5.373-1.138l-1.712-5.042c0.225-0.143,0.44-0.304,0.633-0.502
		c0.093-0.096,0.182-0.198,0.265-0.307c0.567-0.738,0.812-1.652,0.692-2.574c-0.121-0.922-0.594-1.742-1.331-2.309
		c-0.747-0.574-1.658-0.79-2.534-0.686c-0.024,0.002-0.048,0.001-0.072,0.004c-0.047,0.005-0.091,0.022-0.138,0.03
		c-0.114,0.021-0.226,0.041-0.338,0.073c-0.728,0.189-1.377,0.595-1.852,1.195c-0.577,0.73-0.835,1.64-0.728,2.564
		c0.196,1.686,1.579,2.961,3.254,3.06l1.969,5.8c0.126,0.369,0.436,0.645,0.818,0.726l5.386,1.141l5.026,14.11l-7.172,12.422
		l-4.243-5.1l0.361-3.34c0.033-0.315-0.069-0.63-0.284-0.864l-7.517-8.242c0.301-0.6,0.424-1.275,0.345-1.958
		c-0.204-1.755-1.69-3.079-3.457-3.079c-0.134,0-0.269,0.008-0.405,0.024c-0.924,0.108-1.751,0.569-2.328,1.298
		c-0.577,0.73-0.835,1.64-0.728,2.564c0.204,1.755,1.69,3.079,3.457,3.079c0.133,0,0.269-0.008,0.405-0.024
		c0.404-0.047,0.784-0.173,1.139-0.348l7.12,7.808l-0.357,3.31c-0.032,0.298,0.059,0.596,0.251,0.826l5.57,6.696
		c0.217,0.263,0.533,0.399,0.849,0.399c0.25,0,0.501-0.083,0.707-0.256c0.14-0.117,0.232-0.265,0.299-0.422l7.742-13.41h14.921
		l7.457,12.92l-1.312,2.274c-0.139-0.017-0.276-0.039-0.419-0.039c-0.134,0-0.269,0.008-0.405,0.024
		c-0.924,0.108-1.751,0.569-2.328,1.298c-0.578,0.73-0.836,1.64-0.728,2.564c0.074,0.636,0.321,1.211,0.683,1.692l-2.949,5.108
		h-15.558c-0.61,0-1.106,0.495-1.106,1.106v24.813c0,0.61,0.495,1.106,1.106,1.106c0.61,0,1.106-0.495,1.106-1.106V73.728h5.822
		v33.806c0,0.61,0.495,1.106,1.106,1.106s1.106-0.495,1.106-1.106V73.728h5.821v15.677c0,0.61,0.495,1.106,1.106,1.106
		s1.106-0.495,1.106-1.106v-8.899l9.705-4.384c0.112-0.05,0.214-0.119,0.304-0.203l13.667-12.87c0.403,0.162,0.84,0.254,1.297,0.254
		c0.134,0,0.268-0.008,0.405-0.024c0.924-0.108,1.751-0.569,2.328-1.298C183.391,61.252,183.649,60.341,183.542,59.417z
		 M143.602,13.43c-0.697,0.081-1.328-0.418-1.41-1.115c-0.081-0.697,0.418-1.328,1.115-1.409c0.697-0.081,1.328,0.418,1.41,1.115
		C144.799,12.717,144.299,13.348,143.602,13.43z M123.975,20.315c-0.697,0.081-1.328-0.418-1.409-1.115
		c-0.081-0.697,0.418-1.328,1.115-1.41c0.697-0.081,1.328,0.418,1.409,1.115C125.171,19.603,124.672,20.234,123.975,20.315z
		 M115.001,38.877c-0.05,0.006-0.1,0.009-0.149,0.009c-0.636,0-1.186-0.477-1.261-1.124c-0.081-0.697,0.418-1.328,1.115-1.409
		c0.05-0.006,0.1-0.009,0.149-0.009c0.636,0,1.186,0.477,1.261,1.124C116.197,38.165,115.698,38.796,115.001,38.877z
		 M159.073,63.051c0.05-0.006,0.1-0.009,0.149-0.009c0.636,0,1.185,0.477,1.261,1.124c0.081,0.697-0.418,1.328-1.115,1.41
		c-0.05,0.006-0.1,0.009-0.149,0.009c-0.636,0-1.185-0.477-1.261-1.124C157.877,63.764,158.376,63.133,159.073,63.051z
		 M180.23,61.083c-0.05,0.006-0.1,0.009-0.149,0.009c-0.636,0-1.185-0.477-1.261-1.124c-0.081-0.697,0.418-1.328,1.115-1.41
		c0.05-0.006,0.1-0.009,0.149-0.009c0.636,0,1.185,0.477,1.261,1.124C181.426,60.371,180.927,61.002,180.23,61.083z"/>
</g>
</svg>
