<svg xmlns="http://www.w3.org/2000/svg" xmlns:xlink="http://www.w3.org/1999/xlink" version="1.1" x="0px" y="0px" viewBox="0 0 164 205" enable-background="new 0 0 164 164" xml:space="preserve"><path style="fill:#FFFFFF;" fill-rule="evenodd" clip-rule="evenodd" d="M118.817,27.374v-7.096h16.789v7.096h28.074c0,2.011,0,7.19,0,9.2H0  c0-2.01,0-7.189,0-9.2h30.722v-7.096h16.789v7.096H118.817L118.817,27.374z M105.825,50.689L86.88,80.336l12.705-4.025  l-41.729,56.802L78.08,92.25l-13.974,4.947l19.447-35.718L105.825,50.689L105.825,50.689z M155.961,40.582H7.72  c0,34.483,0,68.976,0,103.46h148.241C155.961,109.558,155.961,75.065,155.961,40.582L155.961,40.582z M123.33,73.392v-7.13h-7.207  v-4.906h7.207v-7.13h4.791v7.13h7.207v4.906h-7.207v7.13H123.33L123.33,73.392z M28.352,66.435v-5.251h14.924v5.251H28.352z"/></svg>