<svg xmlns="http://www.w3.org/2000/svg" xmlns:xlink="http://www.w3.org/1999/xlink" version="1.1" x="0px" y="0px" viewBox="0 0 100 125" enable-background="new 0 0 100 100" xml:space="preserve"><path d="M82.766,70.822c4.502-9.167,9.915-21.928,10.848-32.294L77.313,66.685c4.485-16.376,9.212-33.299,14.31-39.649  c-9.653,4.553-16.288,19.491-20.426,32.724c0.707-17.125,0.906-38.298-2.134-42.293c-2.513,5.186-5.066,26.181-6.771,42.938  c0.256-9.999,0.281-21.222-0.49-28.714c-1.504,3.199-4.054,17.423-6.108,30.016c-0.267-12.464-1.042-26.854-3.133-32.002  c-2.965,4.014-4.758,20.251-4.654,34.046c-1.524-9.486-3.979-19.806-7.749-23.759c0.247,9.247,1.289,19.976,1.477,28.906  c-2.87-12.87-6.801-32.032-7.852-44.726c-3.737,11.913-3.426,25.314-1.886,36.898C27.432,48.453,20.171,33.997,9.226,28.834  c5.332,6.642,11.893,23.738,17.271,40.309L8.377,38.528C8.778,51.172,16.3,67.323,20.902,76.227L5,53.171  c4.563,21.086,11.728,29.363,11.728,29.363h67.131c0,0,6.578-8.277,11.142-29.363L82.766,70.822z"/></svg>