<svg xmlns="http://www.w3.org/2000/svg" xmlns:xlink="http://www.w3.org/1999/xlink" version="1.1" x="0px" y="0px" viewBox="0 0 100 125" enable-background="new 0 0 100 100" xml:space="preserve"><rect style="fill:#FFFFFF;" x="41.105" y="48.462" transform="matrix(-1 0.0022 -0.0022 -1 97.6588 115.1987)" width="15.319" height="18.383"/><polygon style="fill:#FFFFFF;" points="23.737,15.418 15.276,23.758 20.274,28.681 28.951,20.435 "/><path style="fill:#FFFFFF;"  d="M77.782,19.142l-7.489-9.026l-25.116,0.058l-8.185,9.21l-4.622,0.012l-7.501,7.461l-4.302,4.285l-0.168,51.534l7.429,7.197  l44.042-0.102l6.057-7.773L77.782,19.142z M46.295,13.482l21.825-0.108l-6.668,9.018l-17.363,0.04l-5.923,0.121L46.295,13.482z   M69.96,80.841L57.517,68.356l-16.998,0.038L28.902,80.936l-1.701-1.472l12.394-12.802l-0.04-18.346L27.102,36.567l1.527-1.791  l12.84,12.172l15.998-0.038L70.12,34.682l0.938,1.769L57.937,49.273l0.041,17.344l13.179,12.611L69.96,80.841z"/></svg>