<svg xmlns="http://www.w3.org/2000/svg" xmlns:xlink="http://www.w3.org/1999/xlink" width="100" height="100" viewBox="0 0 100 100"><g><g transform="translate(50 50) scale(0.69 0.69) rotate(0) translate(-50 -50)" style="fill:#000000"><svg fill="#000000" xmlns="http://www.w3.org/2000/svg" xmlns:xlink="http://www.w3.org/1999/xlink" version="1.1" x="0px" y="0px" viewBox="0 0 500 500" style="enable-background:new 0 0 500 500;" xml:space="preserve"><g><g><path d="M107.919,151.741l-2.114-3.758l-2.469-4.389l-57.874,23.687c0.952,1.3,1.965,2.681,3.046,4.15l2.615,3.55    c0.983,1.332,2.004,2.716,3.061,4.144l56.204-22.995L107.919,151.741z"></path><path d="M12.702,86.899L181.278,18.36c2.336-0.947,3.463-3.608,2.517-5.944c-0.947-2.336-3.608-3.461-5.944-2.517L9.274,78.438    c-2.336,0.947-3.463,3.608-2.517,5.944c0.72,1.774,2.428,2.852,4.232,2.852C11.56,87.234,12.141,87.126,12.702,86.899z"></path><path d="M200.916,58.494c5.244-2.44,4.894-5.577,2.58-10.652c-1.258-2.76-6.801-16.95-8.161-20.34    c-1.36-3.39-5.44-5.424-10.201-4.068S26.886,88.103,19.405,90.815s-9.788,8.365-8.04,11.85c0.962,1.918,6.189,15.015,9.589,21.795    c3.4,6.78,9.521,4.068,14.961,2.034C35.916,126.494,187.684,64.65,200.916,58.494z"></path><path d="M246.911,224.748l-33.235,13.772l4.209,9.825l31.614-13.1c0.811-1.555-2.223-8.016-2.478-9.883    C247,225.205,246.96,224.989,246.911,224.748z"></path><path d="M266.958,175.699l-1.226,4.126c-0.482,1.626-0.959,3.235-1.429,4.82l36.808,15.252l1.806-4.664l1.546-3.993l1.806-4.664    l-37.878-15.696C267.909,172.498,267.431,174.105,266.958,175.699z"></path><path d="M261.661,193.597l-1.213,4.132c-0.487,1.661-0.957,3.272-1.409,4.828l35.367,14.655l1.806-4.664l1.546-3.993l1.806-4.664    l-36.482-15.117C262.598,190.414,262.124,192.023,261.661,193.597z"></path><path d="M239.383,197.729l-1.213-4.132c-0.463-1.575-0.937-3.183-1.421-4.823l-36.482,15.117l1.806,4.664l1.546,3.993l1.806,4.664    l35.367-14.655C240.339,201.001,239.869,199.39,239.383,197.729z"></path><path d="M256.452,211.531l-1.17,4.149c-0.515,1.846-0.962,3.48-1.329,4.862l33.748,13.984l1.806-4.664l1.546-3.993l1.806-4.664    l-35.02-14.511C257.349,208.394,256.884,210.015,256.452,211.531z"></path><path d="M234.099,179.825l-1.226-4.126c-0.474-1.594-0.952-3.201-1.434-4.818l-37.878,15.696l1.806,4.664l1.546,3.993l1.806,4.664    l36.808-15.252C235.058,183.06,234.581,181.451,234.099,179.825z"></path><path d="M244.549,215.68l-1.17-4.149c-0.432-1.516-0.897-3.137-1.388-4.837l-35.02,14.511l1.806,4.664l1.546,3.993l1.806,4.664    l33.748-13.984C245.511,219.16,245.064,217.526,244.549,215.68z"></path><path d="M117.084,168.035l-2.114-3.758l-2.469-4.389l-55.693,22.783c1,1.35,2.022,2.729,3.069,4.141l2.63,3.544    c1.01,1.361,2.033,2.738,3.074,4.138l53.971-22.07L117.084,168.035z"></path><path d="M252.81,225.361c-0.255,1.867-3.288,8.328-2.478,9.883l31.614,13.1l4.209-9.825l-33.235-13.772    C252.871,224.989,252.831,225.205,252.81,225.361z"></path><path d="M375.695,180.572l-2.114,3.758l-2.469,4.389l47.444,20.235c1.032-1.384,2.061-2.764,3.083-4.135l2.638-3.541    c1.036-1.392,2.062-2.77,3.079-4.136l-49.192-20.959L375.695,180.572z"></path><path d="M384.86,164.277l-2.114,3.758l-2.469,4.389l53.971,22.07c1.041-1.401,2.064-2.778,3.075-4.138l2.63-3.544    c1.047-1.411,2.069-2.791,3.069-4.141l-55.693-22.783L384.86,164.277z"></path><path d="M126.25,184.33l-2.114-3.758l-2.469-4.389l-49.192,20.959c1.017,1.367,2.043,2.745,3.079,4.136l2.638,3.541    c1.022,1.371,2.05,2.751,3.083,4.135l47.444-20.235L126.25,184.33z"></path><path d="M361.874,215.03l-2.211,3.718l-2.582,4.342l34.039,14.105c1.018-1.359,2.051-2.74,3.093-4.131l2.647-3.537    c1.023-1.367,2.054-2.746,3.09-4.132l-35.494-14.708L361.874,215.03z"></path><path d="M371.459,198.91l-2.211,3.718l-2.582,4.342l40.433,17.33c1.027-1.374,2.056-2.751,3.088-4.133l2.643-3.539    c1.03-1.379,2.059-2.758,3.086-4.134l-41.875-17.927L371.459,198.91z"></path><path d="M490.557,78.438L321.981,9.899c-2.336-0.944-4.997,0.181-5.944,2.517c-0.946,2.336,0.181,4.997,2.517,5.944    l168.576,68.539c0.562,0.227,1.142,0.335,1.712,0.335c1.805,0,3.513-1.077,4.232-2.852    C494.02,82.047,492.893,79.385,490.557,78.438z"></path><path d="M352.288,231.151l-2.211,3.718l-2.582,4.342l32.132,13.315c1.004-1.338,2.038-2.716,3.097-4.129l2.651-3.535    c1.012-1.35,2.046-2.731,3.095-4.13l-33.601-13.923L352.288,231.151z"></path><path d="M480.426,90.815c-7.481-2.712-160.969-66.025-165.729-67.381c-4.76-1.356-8.841,0.678-10.201,4.068    c-1.36,3.39-6.902,17.58-8.161,20.34c-2.314,5.076-2.663,8.212,2.58,10.652c13.231,6.156,165,68,165,68    c5.44,2.034,11.561,4.746,14.961-2.034s8.628-19.877,9.589-21.795C490.214,99.18,487.906,93.527,480.426,90.815z"></path><path d="M333.789,80.561C315.742,65.729,284.954,55.958,250,55.958c-34.846,0-65.555,9.711-83.624,24.466L34.123,134.821    c-0.177,1.347,0.073,9.828,0.216,11.537l0.285,0.687l117.295-48.358c-0.738,1.753-1.323,3.539-1.748,5.352L35.451,151.336    l1.914,4.619l2.492,3.601c0.83,1.161,1.844,2.565,3.008,4.166l107.585-44.35c0.761,2.797,1.901,5.525,3.397,8.168l-10.358,3.937    l18.775,55.234l-1.545,0.718l4.033,12.003l-6.259-11.035l-2.82,1.208l-27.35-51.381l-15.887,6.931l27.043,51.391l-2.833,1.214    l10.314,18.831l2.133-0.98l35.426,62.09l-4.148,1.613l6.45,15.605c-1.563,1.109-3.094,2.259-4.595,3.446l-8.894-24.706    l-24.667,10.667c6.333,13.333,0.667,23-1.333,34.667c-1.65,9.623,3.501,14.027,5.357,15.276    c-7.684,14.958-12.023,31.918-12.023,49.891c0,60.383,48.95,109.333,109.333,109.333c60.383,0,109.334-48.95,109.334-109.333    c0-18.008-4.356-34.997-12.068-49.976c1.951-1.357,6.847-5.777,5.233-15.191c-2-11.667-7.667-21.333-1.333-34.667l-24.667-10.667    l-8.856,24.6c-1.5-1.183-3.033-2.327-4.595-3.431l6.412-15.514l-4.148-1.613l35.426-62.09l2.133,0.98l10.314-18.831l-2.833-1.214    l27.043-51.391l-15.887-6.931l-27.35,51.381l-2.82-1.208l-6.259,11.035l4.033-12.003l-1.545-0.718l18.775-55.234l-10.218-3.884    c1.499-2.64,2.645-5.365,3.41-8.158l107.432,44.287c1.164-1.601,2.178-3.005,3.008-4.166l2.492-3.601l1.914-4.619l-114.531-47.219    c-0.42-1.811-1.002-3.595-1.735-5.346l117.093,48.274l0.285-0.687c0.143-1.709,0.393-10.19,0.216-11.537L333.789,80.561z     M250,92.017c10.571,0,19.141,8.57,19.141,19.141c0,10.571-8.57,19.141-19.141,19.141s-19.141-8.57-19.141-19.141    C230.859,100.587,239.429,92.017,250,92.017z M165.528,208.063l1.841-0.845l0.002,0.007l1.597-0.693l6.782,19.045L165.528,208.063    z M250,428.494c-24.445,0-44.333-19.888-44.333-44.333c0-24.446,19.888-44.334,44.333-44.334    c24.446,0,44.334,19.888,44.334,44.334C294.334,408.607,274.446,428.494,250,428.494z M317.557,177.408l-7.141,20.249l3.844,1.669    l-25.135,68.194l-7.113-2.766l-5.409,13.341c-1.547-0.387-3.104-0.746-4.676-1.066l8.571-22.368l-26.333-11l-4.25,14.987    l-4.25-14.987l-26.333,11l8.583,22.399c-1.571,0.322-3.127,0.683-4.673,1.072l-5.424-13.379l-7.114,2.766l-25.135-68.194    l3.844-1.669l-7.141-20.249l-4.043,1.88l-13.37-38.674c2.607,2.261,5.505,4.412,8.666,6.435l0.856,2.655l2.079-0.858    c1.555,0.912,3.166,1.795,4.829,2.647l-5.589,2.299l1.54,4.774l1.318,4.088l1.54,4.774l20.133-8.28    c2.161,0.675,4.371,1.307,6.628,1.895l-20.005,8.219l1.806,4.664l1.546,3.993l1.806,4.664l41.34-16.981    c5.415,0.494,10.974,0.756,16.645,0.756c5.623,0,11.135-0.257,16.507-0.743l41.309,16.968l1.806-4.664l1.546-3.993l1.806-4.664    l-19.94-8.192c2.259-0.587,4.473-1.218,6.635-1.892l20.061,8.25l1.54-4.774l1.318-4.088l1.54-4.774l-5.495-2.26    c1.665-0.852,3.278-1.734,4.834-2.645l1.979,0.817l0.812-2.516c3.146-2,6.034-4.126,8.637-6.361l-13.296,38.46L317.557,177.408z     M324.081,225.576l6.782-19.045l1.597,0.693l0.003-0.007l1.841,0.846L324.081,225.576z"></path><path d="M394.026,147.983l-2.114,3.758l-2.469,4.389l56.204,22.995c1.056-1.428,2.078-2.812,3.061-4.144l2.615-3.55    c1.081-1.47,2.094-2.85,3.046-4.15l-57.874-23.687L394.026,147.983z"></path><path d="M149.753,234.869l-2.211-3.718l-2.582-4.342l-33.601,13.923c1.048,1.399,2.083,2.78,3.095,4.13l2.651,3.535    c1.06,1.413,2.093,2.791,3.097,4.129l32.132-13.315L149.753,234.869z"></path><path d="M159.338,250.989l-2.211-3.718l-2.582-4.342l-31.69,13.131c1.079,1.437,2.113,2.813,3.101,4.127l2.656,3.533    c1.127,1.499,2.16,2.87,3.106,4.125l30.202-12.515L159.338,250.989z"></path><path d="M140.168,218.748l-2.211-3.718l-2.582-4.342l-35.494,14.708c1.036,1.386,2.068,2.765,3.09,4.132l2.647,3.537    c1.041,1.391,2.075,2.772,3.093,4.131l34.039-14.105L140.168,218.748z"></path><path d="M130.583,202.627l-2.211-3.718l-2.582-4.342l-41.875,17.927c1.027,1.376,2.056,2.755,3.085,4.134l2.643,3.539    c1.032,1.381,2.061,2.759,3.088,4.133l40.433-17.33L130.583,202.627z"></path><path d="M164.131,259.05l-29.749,12.327c1.577,2.087,5.065,8.678,5.53,9.277l29.205-12.102L164.131,259.05z"></path><path d="M250,345.827c-21.137,0-38.333,17.196-38.333,38.334c0,21.137,17.196,38.333,38.333,38.333    c21.138,0,38.334-17.196,38.334-38.333C288.334,363.023,271.137,345.827,250,345.827z"></path><path d="M330.715,268.553l29.205,12.102c0.464-0.6,3.953-7.191,5.53-9.277L335.7,259.05L330.715,268.553z"></path><path d="M342.703,247.272l-2.211,3.718l-2.582,4.342l30.201,12.515c0.946-1.256,1.978-2.627,3.106-4.125l2.656-3.533    c0.988-1.314,2.022-2.691,3.101-4.127l-31.689-13.131L342.703,247.272z"></path></g></g></svg></g></g></svg>