<svg xmlns="http://www.w3.org/2000/svg" xmlns:xlink="http://www.w3.org/1999/xlink" version="1.1" x="0px" y="0px" viewBox="0 0 50 62.5" style="enable-background:new 0 0 50 50;" xml:space="preserve"><polygon points="2.707,10.707 6,7.414 9.293,10.707 10.707,9.293 7.414,6 10.707,2.707 9.293,1.293 6,4.586 2.707,1.293   1.293,2.707 4.586,6 1.293,9.293 "/><polygon points="39.293,40.707 42.586,44 39.293,47.293 40.707,48.707 44,45.414 47.293,48.707 48.707,47.293 45.414,44   48.707,40.707 47.293,39.293 44,42.586 40.707,39.293 "/><rect x="18.715" y="5" width="3" height="2"/><rect x="19" y="43" width="3" height="2"/><rect x="25.143" y="24" width="3" height="2"/><rect x="19.143" y="24" width="3" height="2"/><rect x="13.143" y="24" width="3" height="2"/><rect x="12.715" y="5" width="3" height="2"/><rect x="25" y="43" width="3" height="2"/><rect x="13" y="43" width="3" height="2"/><path d="M42.489,23.008l0.939,1.766c0.978-0.521,1.864-1.19,2.634-1.99l-1.441-1.387C43.998,22.044,43.28,22.586,42.489,23.008z"/><rect x="31" y="43" width="3" height="2"/><path d="M42.148,7.819c0.81,0.385,1.55,0.895,2.202,1.514l1.377-1.45c-0.805-0.765-1.72-1.394-2.72-1.869L42.148,7.819z"/><rect x="30.715" y="5" width="3" height="2"/><path d="M47.952,20.078c0.485-0.999,0.806-2.062,0.953-3.163l-1.982-0.266c-0.119,0.889-0.378,1.748-0.77,2.556L47.952,20.078z"/><path d="M10.006,24.105c-1.1,0.157-2.161,0.485-3.155,0.977l0.887,1.793c0.804-0.397,1.661-0.663,2.55-0.79L10.006,24.105z"/><path d="M2.117,39.218c0.497,0.988,1.146,1.89,1.93,2.679l1.42-1.409c-0.635-0.639-1.161-1.369-1.563-2.168L2.117,39.218z"/><path d="M1,34.502c0.001,0.526,0.041,1.054,0.117,1.569l1.978-0.295C3.033,35.357,3.001,34.927,3,34.5  c0-0.471,0.039-0.941,0.115-1.398l-1.973-0.33C1.048,33.338,1,33.919,1,34.502z"/><rect x="31.143" y="24" width="3" height="2"/><path d="M45.978,11.455c0.428,0.788,0.727,1.636,0.886,2.519l1.969-0.356c-0.198-1.093-0.567-2.142-1.097-3.117L45.978,11.455z"/><path d="M6.711,43.846c0.988,0.507,2.045,0.852,3.14,1.025l0.312-1.976c-0.886-0.14-1.74-0.418-2.54-0.829L6.711,43.846z"/><rect x="24.715" y="5" width="3" height="2"/><path d="M4.159,26.992c-0.794,0.776-1.457,1.667-1.97,2.649l1.773,0.926c0.414-0.794,0.951-1.515,1.595-2.144L4.159,26.992z"/><path d="M36.715,5v2h1.784c0.365,0.001,0.731,0.023,1.087,0.069l0.252-1.984C39.399,5.029,38.949,5.001,38.5,5H36.715z"/><rect x="37" y="43" width="3" height="2"/><path d="M38.5,24h-1.357v2H38.5c0.606,0,1.214-0.052,1.806-0.155l-0.342-1.971C39.484,23.958,38.992,24,38.5,24z"/></svg>