<svg xmlns="http://www.w3.org/2000/svg" xmlns:xlink="http://www.w3.org/1999/xlink" version="1.1" x="0px" y="0px" viewBox="0 0 100 125" style="enable-background:new 0 0 100 100;" xml:space="preserve"><path d="M79,26.7l-25.8-26c-1-1-2.5-1-3.5,0L23.3,27.3c-1,1-1,2.5,0,3.5c0.5,0.5,1.1,0.7,1.7,0.7c0.6,0,1.3-0.2,1.7-0.7L49.2,8.2  v64.8c0,1.4,1.1,2.5,2.5,2.5s2.5-1.1,2.5-2.5V8.7l21.4,21.6c1,1,2.5,1,3.5,0S80,27.7,79,26.7z"/><path d="M99.6,72.1c-0.2-1.3-1.4-2.2-2.7-2.1c-1.3,0.2-2.2,1.5-2,2.8c0,0.2,2.7,19.6-8.1,22.3H50H13.1C2.4,92.4,5,73,5,72.8  c0.2-1.3-0.7-2.6-2-2.8c-1.3-0.2-2.5,0.7-2.7,2.1c-0.1,1-3.3,24.4,12,27.9c0.2,0,0.3,0.1,0.5,0.1H50h37.1c0.2,0,0.3,0,0.5-0.1  C102.9,96.5,99.8,73.1,99.6,72.1z"/></svg>